<svg width="24" height="25" viewBox="0 0 24 25" fill="none" xmlns="http://www.w3.org/2000/svg">
<g clip-path="url(#clip0_459_53576)">
<path d="M19.9631 22.1082C18.9812 21.1264 17.9994 20.2537 17.1267 19.2718C16.7994 18.9446 16.7994 18.5082 17.1267 18.0718C17.454 17.7446 17.8903 17.7446 18.3267 18.0718C18.654 18.3991 18.9812 18.8355 19.3085 19.1628C20.5085 17.9628 21.4903 15.6718 21.4903 14.0355H19.9631C19.4176 14.0355 19.0903 13.8173 19.0903 13.2718C19.0903 12.7264 19.4176 12.5082 19.9631 12.3991H21.5994C21.4903 10.4355 20.7267 8.79912 19.5267 7.27184C19.1994 7.70821 18.8722 8.03548 18.654 8.36275C18.2176 8.79912 17.7812 8.79912 17.3449 8.36275C17.0176 7.92639 17.0176 7.49003 17.454 7.16275C17.7812 6.83548 18.1085 6.6173 18.5449 6.18094C16.9085 4.76275 15.1631 4.10821 13.1994 3.89003V5.4173C13.1994 5.96275 12.8722 6.39912 12.3267 6.39912C11.7812 6.39912 11.5631 5.96275 11.454 5.52639V3.99912C9.49034 4.2173 7.85397 4.87184 6.21761 6.18094L7.19943 7.16275C7.63579 7.59912 7.63579 8.03548 7.19943 8.47184C6.76306 8.79912 6.3267 8.79912 5.99943 8.36275C5.67215 8.03548 5.45397 7.70821 5.01761 7.27184C3.70852 8.79912 3.05397 10.4355 2.83579 12.3991H4.25397C4.90852 12.3991 5.23579 12.7264 5.23579 13.2718C5.23579 13.8173 4.90852 14.0355 4.25397 14.1446H2.94488L2.83579 14.2537C2.94488 16.1082 3.70852 17.7446 4.90852 19.2718C5.23579 18.9446 5.67215 18.6173 5.99943 18.29C6.3267 17.9628 6.76306 17.8537 7.19943 18.29C7.63579 18.7264 7.5267 19.1628 7.19943 19.49C6.3267 20.4718 5.34488 21.3446 4.47216 22.2173C1.74488 20.1446 -0.436936 15.4537 0.763064 10.5446C1.96306 5.63548 6.3267 1.8173 11.7812 1.49003C16.5812 1.16275 21.3812 4.32639 23.2358 8.90821C24.9812 13.49 23.6722 19.0537 19.9631 22.1082Z" fill="#F18805"/>
<path d="M15.9269 21.5628V24.6173H8.29052V21.5628H15.9269ZM13.636 13.381C13.636 14.1446 13.0905 14.7992 12.3269 14.7992C11.5632 14.7992 11.0178 14.2537 10.7996 13.4901C10.6905 13.1628 10.5814 12.7264 10.3632 12.5082L8.39961 10.5446C8.07233 10.2173 7.85415 9.78098 8.18142 9.34461C8.5087 9.01734 8.94506 9.01734 9.38142 9.4537L11.0178 11.0901C11.4542 11.5264 11.7814 11.9628 12.5451 11.9628C13.1996 12.0719 13.636 12.7264 13.636 13.381Z" fill="#F18805"/>
</g>
<defs>
<clipPath id="clip0_459_53576">
<rect width="24" height="23.9185" fill="white" transform="translate(0 0.945312)"/>
</clipPath>
</defs>
</svg>
