<svg width="135" height="64" viewBox="0 0 135 64" fill="none" xmlns="http://www.w3.org/2000/svg">
<path fill-rule="evenodd" clip-rule="evenodd" d="M61.5907 33.571C61.4283 33.6912 61.2659 33.9148 61.1056 33.9148C55.2757 33.9148 49.4459 33.9043 43.6182 33.8389C43.3103 33.8347 42.9243 33.3749 42.7176 33.0395C41.6398 31.2889 40.7771 29.3779 39.5116 27.7813C38.3811 26.3555 36.9742 25.0098 35.4198 24.0881C32.2264 22.1982 28.8496 20.6142 25.4348 18.8446C24.4983 21.5802 23.6547 24.0417 22.8152 26.5052C21.6804 29.8314 20.5056 33.145 19.4552 36.4965C19.2802 37.0533 19.7231 37.7789 19.7294 38.4285C19.74 39.2806 20.2019 39.5843 20.9106 39.8585C22.9122 40.6305 23.2497 41.451 22.6739 43.691C22.3195 45.0704 21.9483 46.4498 21.7079 47.8503C21.2586 50.4762 22.3132 52.5517 24.4604 53.9606C26.2321 55.1228 28.1704 56.0298 30.1172 57.0928C28.3181 58.1516 26.4156 58.468 24.4119 58.4553C23.4205 58.449 22.4102 58.487 21.4442 58.681C19.5839 59.0544 17.7932 58.8561 15.9561 58.4764C12.4485 57.753 8.90503 57.2004 5.39322 56.5022C2.50573 55.9285 0.584248 54.2728 0 51.2798C0 50.5775 0 49.873 0 49.1707C0.141316 48.6855 0.269978 48.1962 0.426059 47.7153C0.902737 46.2368 1.59877 44.9143 2.71665 43.7753C3.73539 42.7376 4.66133 41.5796 5.46282 40.3647C6.47313 38.8356 6.75576 38.6247 8.70888 39.0128C8.60131 37.0196 8.57389 35.0665 8.36719 33.1302C8.22587 31.812 8.65193 31.0484 9.94276 31.0505C10.5523 31.0526 10.7949 30.8206 10.9699 30.2933C11.8621 27.5978 12.8007 24.917 13.6634 22.213C13.8174 21.7279 13.8638 21.0825 13.6676 20.6416C13.3449 19.914 13.5811 19.3635 13.8195 18.7223C15.3634 14.5503 16.8905 10.372 18.388 6.18099C18.5272 5.78868 18.5061 5.29091 18.4154 4.87539C17.886 2.43294 19.4215 0.408119 21.9293 0.254147C22.6443 0.209854 23.3615 -0.0390361 24.0659 0.00525706C25.3715 0.089625 26.095 0.813082 26.3502 2.07016C26.4198 2.41185 26.5611 2.76409 26.5253 3.09524C26.3565 4.6455 26.8416 5.84352 28.1367 6.78211C28.5564 7.08583 29.0458 7.55619 29.4697 7.83882C29.9717 8.17629 30.2902 8.46736 30.8787 8.70781C31.4882 8.9588 32.1104 9.27096 32.6019 9.70124C34.3167 11.1988 35.9724 12.7638 37.6576 14.2951C38.7206 15.2611 39.7774 16.2397 40.8784 17.1615C41.5153 17.6951 42.1861 18.2456 42.9348 18.5704C43.8312 18.9606 44.4366 19.4985 44.7572 20.4139C45.4701 22.4492 46.8685 23.8012 48.7921 24.7841C50.4921 25.651 52.0508 26.7963 53.6749 27.8129C53.9111 27.9606 54.1684 28.2158 54.4025 28.1989C56.8134 28.0323 58.024 30.2195 59.9518 30.983C60.3294 31.1328 60.7259 31.3416 61.114 31.3416C83.1846 31.3564 105.255 31.3458 127.326 31.3627C128.684 31.3627 130.081 31.388 131.392 31.6875C133.691 32.2127 135.364 34.8766 134.932 37.1735C134.21 41.0017 133.462 44.8278 132.637 48.6349C131.903 52.0223 130.026 57.1571 126.552 57.1593C95.4813 57.1677 64.4128 57.1635 33.3422 57.1698C31.7055 57.1698 31.4334 55.6934 30.5222 54.9087C30.556 54.8075 30.5897 54.7084 30.6213 54.6071C31.195 54.6071 31.7687 54.6071 32.3424 54.6071C63.3413 54.6113 94.3402 54.586 125.341 54.6598C128.986 54.6683 129.865 50.8475 130.549 46.6565C131.047 43.6024 131.724 40.5778 132.348 37.5469C132.721 35.7308 131.629 34.1511 129.794 33.9718C129.131 33.9064 128.461 33.9064 127.794 33.9064C106.917 33.9085 86.0405 33.919 65.1637 33.8916C64.4423 33.8916 63.645 33.6575 63.0102 33.3032C60.8799 32.1136 58.8086 30.8206 56.6573 29.5319C56.4864 29.8609 56.3324 30.1605 56.1194 30.5717C56.7648 30.8143 57.3849 31.0505 58.005 31.2847C59.1989 32.0482 60.3948 32.8096 61.5907 33.571ZM21.383 4.53582L21.3535 4.50628C21.8428 5.6115 21.8091 6.7104 21.3873 7.83882C21.1574 8.45471 21.0435 9.11699 20.9106 9.76662C20.3116 12.6689 19.7653 15.5838 19.1262 18.4776C18.3648 21.9135 17.5169 25.3283 16.7302 28.7578C16.5024 29.7534 16.3589 30.7679 16.1754 31.7909C17.6814 31.9048 19.006 32.0039 20.3959 32.1094C20.5119 31.8352 20.7208 31.4323 20.8557 31.0041C21.5919 28.6903 22.3237 26.3744 23.0303 24.0522C24.106 20.5172 26.0844 17.2395 26.0022 13.3755C25.9241 9.70546 25.9094 6.03335 25.8292 2.36123C25.8039 1.22438 24.956 0.732931 24.0069 0.460844C23.1991 0.228833 21.7817 0.960729 21.3556 1.82972C20.9232 2.71136 20.5246 3.64363 21.383 4.53582ZM44.2932 21.8302C43.9578 20.3031 42.996 19.3803 41.6946 18.8847C38.4697 17.6592 35.2805 16.3326 32.0514 15.1156C30.8133 14.6494 29.5035 14.3731 28.2084 14.0061C27.8414 16.1069 27.892 16.2123 29.4697 17.075C33.0828 19.0471 36.7296 20.9644 40.2878 23.0314C41.3361 23.6388 42.3696 24.531 42.9981 25.5476C44.3522 27.7328 45.4321 30.0845 46.6428 32.3582C46.7968 32.6451 47.0457 33.0648 47.284 33.0901C48.1319 33.1787 48.9967 33.126 49.9395 33.126C49.8699 32.8455 49.8572 32.6345 49.7707 32.4616C48.733 30.4136 47.6067 28.4077 46.6723 26.3154C46.1661 25.1785 45.9004 24.7799 44.5041 24.6776C43.8587 24.7578 43.4495 24.1503 43.344 23.3815C43.1898 22.2576 43.6604 22.5684 44.2932 21.8302ZM1.37098 53.4682C1.719 53.4513 1.59244 52.4378 1.79071 52.4652C4.44408 52.8407 7.12698 53.0874 9.74027 53.659C14.0262 54.5228 14.1569 54.9847 15.1862 57.1593C13.3934 52.4136 16.5572 43.7658 18.7719 40.4966C18.1391 40.813 15.8485 45.2149 15.5026 45.6641C14.7138 46.6955 14.351 47.091 13.2036 46.7514C12.3093 46.4856 11.7588 46.7598 11.3116 47.517C10.8835 48.2468 10.4005 48.9471 9.94276 49.66C9.83308 49.6157 9.72129 49.5714 9.61161 49.5271C9.35007 48.4514 10.1706 47.5191 10.2338 46.473C9.2636 46.3296 8.33555 46.1355 7.40118 46.0828C7.07003 46.0638 6.6271 46.3106 6.39931 46.5784C5.92052 47.1374 5.5493 47.7891 5.13379 48.4029C4.99669 48.3586 4.85959 48.3143 4.72249 48.2679C4.82373 47.4727 4.92498 46.6776 5.03466 45.8212C4.47361 45.6778 3.93787 45.5407 3.63837 45.4648C4.86592 43.5243 6.07449 41.6134 7.28095 39.7046C7.12698 39.5801 6.97512 39.4557 6.82115 39.3312C6.68616 39.5822 6.5364 39.8248 6.41618 40.0821C5.56828 41.8981 4.06021 43.1763 2.7968 44.6675C0.862662 46.9497 0.518863 50.5933 1.37098 53.4682ZM34.4601 14.5545C33.1207 13.5843 31.7708 12.6246 30.4484 11.6312C30.1594 11.4139 30.0286 10.7284 29.9506 10.4078C29.5414 8.73945 30.8997 10.8624 26.5759 7.17127C26.5759 8.99995 26.6539 10.8402 26.6539 12.5697C29.6638 11.8505 31.8468 13.8564 34.4601 14.5545ZM47.573 25.9442C48.4862 27.718 49.2772 29.2957 50.1209 30.8438C50.2558 31.0906 50.625 31.3416 50.8992 31.3543C52.0677 31.4112 53.2404 31.3775 54.3245 31.3775C54.1431 29.8124 53.0294 29.1776 51.9179 28.53C50.5385 27.7264 49.1759 26.8996 47.573 25.9442ZM14.564 39.2321C16.0383 38.4201 17.3144 37.7578 18.5398 37.0153C18.833 36.8382 19.0461 36.4248 19.1578 36.0746C19.3118 35.5916 19.3329 35.0686 19.4194 34.5181C18.9997 34.4274 18.5715 34.3367 18.1412 34.2417C17.4705 34.0941 16.7787 33.7587 16.1354 33.8368C15.1989 33.9528 15.5532 34.9209 15.3613 35.5284C15.2558 35.8616 15.1525 36.197 15.0808 36.5366C14.9057 37.4013 14.7475 38.2682 14.564 39.2321ZM20.4023 3.79338C20.282 3.75963 20.1597 3.72377 20.0395 3.69003C19.9066 3.95578 19.7484 4.21311 19.6472 4.49152C18.833 6.73993 18.0653 9.00732 17.2111 11.241C16.2577 13.7404 15.2179 16.2081 14.2518 18.7033C14.1844 18.8784 14.3995 19.1652 14.4817 19.3993C14.6948 19.2875 15.0175 19.2285 15.0976 19.0555C15.2832 18.659 15.3191 18.1929 15.4752 17.7774C16.9643 13.8184 18.4829 9.86787 19.953 5.90047C20.1998 5.23396 20.2567 4.49785 20.4023 3.79338ZM15.471 21.9135C15.3613 21.8797 15.2516 21.846 15.1419 21.8123C14.1527 24.8811 13.1656 27.95 12.1427 31.1307C12.6826 31.1771 13.0496 31.2087 13.4989 31.2467C14.1675 28.0829 14.8192 24.9992 15.471 21.9135ZM14.1738 33.2673C15.6481 33.4339 17.0908 33.5963 18.5356 33.7609C18.601 33.3749 18.6854 32.8834 18.7719 32.3899C17.2237 32.2865 15.7241 32.1874 14.1738 32.084C14.1738 32.47 14.1738 32.9045 14.1738 33.2673ZM12.3388 40.0206C12.4295 40.0206 13.0897 40.0106 13.1825 40.0106C13.1825 38.3 12.9716 34.1901 12.9716 32.4816C12.8809 32.4816 12.748 32.4816 12.6552 32.4816C12.6552 34.1901 12.3388 38.31 12.3388 40.0206ZM11.0353 30.9219C11.126 30.9535 11.2167 30.983 11.3074 31.0147C12.4042 27.8087 13.501 24.6027 14.5978 21.3989C14.5134 21.3693 14.429 21.3419 14.3447 21.3124C13.2415 24.5141 12.1384 27.718 11.0353 30.9219ZM52.7763 27.9226C55.1555 29.5319 58.4248 31.0842 52.9198 27.6885C50.5912 26.2521 48.2648 24.8157 45.9362 23.3815C45.8835 23.4701 45.8286 23.5566 45.7759 23.643C48.1087 25.0689 50.4436 26.4947 52.7763 27.9226ZM8.24274 39.886C6.54695 42.0141 6.04918 44.6528 5.2751 47.1775C6.38876 44.8025 6.79584 42.1259 8.24274 39.886ZM8.43679 40.0041C8.63295 40.5904 8.3714 40.6927 10.0187 40.9184C10.295 40.9564 13.946 40.9796 14.2371 40.9184C14.2139 40.8214 15.1588 40.1431 15.1356 40.044C14.2729 39.928 9.35218 40.1306 8.43679 40.0041ZM32.18 10.4078C32.14 10.4732 32.102 10.5407 32.0619 10.6061C33.1207 11.5088 34.1774 12.4116 35.2363 13.3143C34.8587 12.6604 34.3652 12.1374 33.8252 11.6712C33.3021 11.222 32.7305 10.8276 32.18 10.4078ZM11.5795 44.3364C11.5183 44.3026 11.4593 44.271 11.3981 44.2393C10.9024 45.7622 10.4047 47.2871 9.90901 48.81C10.0018 48.8395 10.0967 48.8711 10.1895 48.9007C10.6536 47.3778 11.1155 45.8571 11.5795 44.3364ZM15.1356 39.9176C16.2092 39.1393 17.2828 38.361 18.4787 37.4941C16.9052 37.7979 16.1733 39.0866 15.1356 39.9176Z" fill="black"/>
<path d="M49.4396 49.4818H50.2833V52.9409H42.0152V49.4818H43.2807L42.9433 47.7944H40.0748L39.7373 49.4818H41.0028V52.9409H33.7893V49.4818H34.633L38.1976 36.5313H45.875L49.4396 49.4818ZM40.5388 45.5587H42.4792L41.6145 41.3614H41.4035L40.5388 45.5587Z" fill="black"/>
<path d="M53.2712 52.9409V49.4818H54.3258V39.9904H53.2712V36.5313H62.1721V39.9904H60.2316V49.4818H62.1299V47.5413H66.3272V52.9409H53.2712Z" fill="black"/>
<path d="M69.3712 49.4818H70.4258V39.9904H69.3712V36.5313H78.6306C80.4445 36.5313 81.8295 36.925 82.7857 37.7124C83.7418 38.4858 84.2199 39.7443 84.2199 41.4879C84.2199 43.2315 83.7418 44.497 82.7857 45.2845C81.8295 46.0578 80.4445 46.4445 78.6306 46.4445H76.3315V49.4818H78.3564V52.9409H69.3712V49.4818ZM77.0487 43.4495C77.8642 43.4495 78.272 42.9995 78.272 42.0996V41.3403C78.272 40.8762 78.1665 40.5388 77.9556 40.3279C77.7588 40.1029 77.4564 39.9904 77.0487 39.9904H76.3315V43.4495H77.0487Z" fill="black"/>
<path d="M104.137 39.9904H103.082V49.4818H104.137V52.9409H96.1639V49.4818H97.1763V46.0016H94.2235V49.4818H95.2359V52.9409H87.2631V49.4818H88.3177V39.9904H87.2631V36.5313H95.2359V39.9904H94.2235V43.1964H97.1763V39.9904H96.1639V36.5313H104.137V39.9904Z" fill="black"/>
<path d="M122.779 49.4818H123.622V52.9409H115.354V49.4818H116.62L116.282 47.7944H113.414L113.076 49.4818H114.342V52.9409H107.128V49.4818H107.972L111.537 36.5313H119.214L122.779 49.4818ZM113.878 45.5587H115.818L114.954 41.3614H114.743L113.878 45.5587Z" fill="black"/>
<path d="M80.0483 62.6432V61.7438H80.3225V59.276H80.0483V58.3767H82.3625V59.276H81.858V61.7438H82.3515V61.2393H83.4428V62.6432H80.0483Z" fill="black"/>
<path d="M84.1246 62.6432V61.7438H84.3988V59.276H84.1246V58.3767H86.2085V59.276H85.9343V61.7438H86.2085V62.6432H84.1246Z" fill="black"/>
<path d="M88.6209 62.7199C88.27 62.7199 87.9373 62.6907 87.6229 62.6322C87.3121 62.57 87.0727 62.5006 86.9045 62.4238V61.338H88.111C88.111 61.4513 88.1365 61.5336 88.1877 61.5848C88.2389 61.6359 88.3321 61.6615 88.4674 61.6615C88.5807 61.6615 88.6612 61.6451 88.7087 61.6122C88.7599 61.5756 88.7855 61.5226 88.7855 61.4532C88.7855 61.3947 88.7617 61.3453 88.7142 61.3051C88.6667 61.2612 88.5844 61.2174 88.4674 61.1735L87.9958 61.009C87.59 60.8554 87.2975 60.6744 87.1184 60.4661C86.9429 60.2577 86.8551 59.9762 86.8551 59.6215C86.8551 59.1901 86.9959 58.8629 87.2774 58.6399C87.5626 58.4132 88.036 58.2999 88.6977 58.2999C89.0158 58.2999 89.3138 58.3328 89.5916 58.3986C89.8731 58.4608 90.0998 58.5449 90.2716 58.6509V59.6325H89.1748C89.1748 59.4497 89.0615 59.3583 88.8348 59.3583C88.7251 59.3583 88.6465 59.3729 88.599 59.4022C88.5551 59.4278 88.5332 59.4753 88.5332 59.5448C88.5332 59.6069 88.5588 59.6563 88.61 59.6928C88.6648 59.7294 88.7526 59.7678 88.8732 59.808L89.3503 59.9725C89.7378 60.1041 90.0194 60.2759 90.1948 60.488C90.374 60.6964 90.4635 60.9706 90.4635 61.3106C90.4635 61.7749 90.3063 62.1258 89.9919 62.3635C89.6812 62.6011 89.2242 62.7199 88.6209 62.7199Z" fill="black"/>
<path d="M95.2007 59.7038H94.2575V59.276H93.9065V61.7438H94.2904V62.6432H91.9871V61.7438H92.371V59.276H92.02V59.7038H91.0768V58.3767H95.2007V59.7038Z" fill="black"/>
<path d="M95.8822 62.6432V61.7438H96.1564V59.276H95.8822V58.3767H97.9661V59.276H97.6919V61.7438H97.9661V62.6432H95.8822Z" fill="black"/>
<path d="M101.837 58.3767H103.636V59.276H103.362V62.6432H101.821L100.214 60.1699V61.7438H100.477V62.6432H98.6786V61.7438H98.9528V59.276H98.6786V58.3767H100.658L102.101 60.5757V59.276H101.837V58.3767Z" fill="black"/>
<path d="M108.475 61.2722H108.201V62.369C108.04 62.4604 107.804 62.5426 107.493 62.6157C107.186 62.6852 106.854 62.7199 106.495 62.7199C105.812 62.7199 105.276 62.5408 104.888 62.1825C104.501 61.8206 104.307 61.263 104.307 60.5099C104.307 59.7385 104.499 59.1773 104.883 58.8264C105.271 58.4754 105.823 58.2999 106.539 58.2999C106.886 58.2999 107.212 58.3365 107.515 58.4096C107.819 58.4827 108.047 58.565 108.201 58.6564V59.967H106.83V59.7093C106.83 59.5557 106.797 59.446 106.731 59.3802C106.669 59.3108 106.568 59.276 106.429 59.276C106.291 59.276 106.188 59.3108 106.122 59.3802C106.06 59.446 106.029 59.5557 106.029 59.7093V61.3106C106.029 61.4641 106.06 61.5756 106.122 61.6451C106.188 61.7109 106.291 61.7438 106.429 61.7438C106.568 61.7438 106.669 61.7109 106.731 61.6451C106.797 61.5756 106.83 61.4641 106.83 61.3106V61.2722H106.534V60.4551H108.475V61.2722Z" fill="black"/>
<path d="M110.823 62.7199C110.472 62.7199 110.14 62.6907 109.825 62.6322C109.514 62.57 109.275 62.5006 109.107 62.4238V61.338H110.313C110.313 61.4513 110.339 61.5336 110.39 61.5848C110.441 61.6359 110.534 61.6615 110.67 61.6615C110.783 61.6615 110.864 61.6451 110.911 61.6122C110.962 61.5756 110.988 61.5226 110.988 61.4532C110.988 61.3947 110.964 61.3453 110.917 61.3051C110.869 61.2612 110.787 61.2174 110.67 61.1735L110.198 61.009C109.792 60.8554 109.5 60.6744 109.321 60.4661C109.145 60.2577 109.057 59.9762 109.057 59.6215C109.057 59.1901 109.198 58.8629 109.48 58.6399C109.765 58.4132 110.238 58.2999 110.9 58.2999C111.218 58.2999 111.516 58.3328 111.794 58.3986C112.075 58.4608 112.302 58.5449 112.474 58.6509V59.6325H111.377C111.377 59.4497 111.264 59.3583 111.037 59.3583C110.927 59.3583 110.849 59.3729 110.801 59.4022C110.758 59.4278 110.736 59.4753 110.736 59.5448C110.736 59.6069 110.761 59.6563 110.812 59.6928C110.867 59.7294 110.955 59.7678 111.076 59.808L111.553 59.9725C111.94 60.1041 112.222 60.2759 112.397 60.488C112.576 60.6964 112.666 60.9706 112.666 61.3106C112.666 61.7749 112.509 62.1258 112.194 62.3635C111.884 62.6011 111.427 62.7199 110.823 62.7199Z" fill="black"/>
<path fill-rule="evenodd" clip-rule="evenodd" d="M59.6924 32.085C58.6546 31.4243 57.855 30.9558 56.8802 30.3458C56.7249 30.2487 56.7906 30.0683 56.9483 30.1615C58.0695 30.8005 60.4444 32.1194 62.0524 33.168C62.2544 33.2998 62.1274 33.5368 61.9153 33.4218C61.4321 33.16 60.7331 32.7476 59.6924 32.085Z" fill="black"/>
<path fill-rule="evenodd" clip-rule="evenodd" d="M1.25069 51.3664C1.28865 50.818 1.31396 50.4552 1.34349 50.0207C5.35941 50.6029 9.26564 51.1702 13.2246 51.7461C13.2499 52.1595 13.271 52.4969 13.3069 53.0938C9.24033 52.5096 5.28136 51.9422 1.25069 51.3664Z" fill="black"/>
<path d="M34.0678 62.6432V61.7438H34.342V59.276H34.0678V58.3767H37.7694V60.0328H36.541V59.276H35.8774V60.1425H36.36V60.7677H35.8774V61.7438H36.541V60.8773H37.7694V62.6432H34.0678Z" fill="black"/>
<path d="M42.7153 63.0709C41.9402 63.0709 41.3187 63.0471 40.8508 62.9996C40.3865 62.9521 39.9861 62.8497 39.6498 62.6925C39.3134 62.539 39.0319 62.3068 38.8053 61.9961C38.5603 61.6414 38.4378 61.1461 38.4378 60.5099C38.4378 59.7678 38.6206 59.2139 38.9862 58.8483C39.3555 58.4827 39.871 58.2999 40.5327 58.2999C41.1908 58.2999 41.7044 58.4626 42.0737 58.788C42.4429 59.1097 42.6276 59.5923 42.6276 60.2357C42.6276 60.5136 42.5819 60.775 42.4905 61.0199C42.4027 61.2612 42.2492 61.4842 42.0298 61.689L42.0572 61.7438H42.7153V63.0709ZM40.5327 61.7438C40.7813 61.7438 40.9056 61.6085 40.9056 61.338V59.6819C40.9056 59.4113 40.7813 59.276 40.5327 59.276C40.2841 59.276 40.1598 59.4113 40.1598 59.6819V61.338C40.1598 61.6085 40.2841 61.7438 40.5327 61.7438Z" fill="black"/>
<path d="M45.4549 62.7199C44.8809 62.7199 44.4367 62.5938 44.1223 62.3415C43.8115 62.0893 43.6562 61.6798 43.6562 61.1132V59.276H43.382V58.3767H45.411V59.276H45.1917V61.3928C45.1917 61.5135 45.2173 61.6031 45.2684 61.6615C45.3233 61.7164 45.4037 61.7438 45.5097 61.7438C45.6158 61.7438 45.6944 61.7164 45.7455 61.6615C45.8004 61.6031 45.8278 61.5135 45.8278 61.3928V59.276H45.6084V58.3767H47.4894V59.276H47.2152V61.1132C47.2152 61.6798 47.0635 62.0893 46.7601 62.3415C46.4566 62.5938 46.0216 62.7199 45.4549 62.7199Z" fill="black"/>
<path d="M48.1818 62.6432V61.7438H48.456V59.276H48.1818V58.3767H50.2657V59.276H49.9915V61.7438H50.2657V62.6432H48.1818Z" fill="black"/>
<path d="M50.9781 61.7438H51.2523V59.276H50.9781V58.3767H53.3856C53.8572 58.3767 54.2173 58.479 54.4659 58.6838C54.7145 58.8849 54.8388 59.2121 54.8388 59.6654C54.8388 60.1187 54.7145 60.4478 54.4659 60.6525C54.2173 60.8536 53.8572 60.9541 53.3856 60.9541H52.7878V61.7438H53.3143V62.6432H50.9781V61.7438ZM52.9743 60.1754C53.1863 60.1754 53.2923 60.0584 53.2923 59.8244V59.627C53.2923 59.5064 53.2649 59.4186 53.2101 59.3638C53.1589 59.3053 53.0803 59.276 52.9743 59.276H52.7878V60.1754H52.9743Z" fill="black"/>
<path d="M61.5691 59.276H61.2949V61.7438H61.5691V62.6432H59.4962V61.7438H59.7594V59.8244L58.8272 62.6432H58.0155L57.0559 59.8519V61.7438H57.3191V62.6432H55.5204V61.7438H55.7946V59.276H55.5204V58.3767H58.032L58.6023 60.0877L59.1507 58.3767H61.5691V59.276Z" fill="black"/>
<path d="M62.2797 62.6432V61.7438H62.5539V59.276H62.2797V58.3767H65.9813V60.0328H64.753V59.276H64.0894V60.1425H64.572V60.7677H64.0894V61.7438H64.753V60.8773H65.9813V62.6432H62.2797Z" fill="black"/>
<path d="M69.8414 58.3767H71.6402V59.276H71.366V62.6432H69.825L68.2182 60.1699V61.7438H68.4814V62.6432H66.6827V61.7438H66.9569V59.276H66.6827V58.3767H68.6624L70.1047 60.5757V59.276H69.8414V58.3767Z" fill="black"/>
<path d="M76.4352 59.7038H75.492V59.276H75.141V61.7438H75.5249V62.6432H73.2216V61.7438H73.6055V59.276H73.2545V59.7038H72.3113V58.3767H76.4352V59.7038Z" fill="black"/>
</svg>
