<svg width="24" height="19" viewBox="0 0 24 19" fill="none" xmlns="http://www.w3.org/2000/svg">
<path d="M2.25 0.945312V18.9453H1.5V0.945312H2.25ZM4.5 0.945312V18.9453H3.75V0.945312H4.5ZM9.75 0.945312V18.9453H9V0.945312H9.75ZM11.25 0.945312V18.9453H10.5V0.945312H11.25ZM13.5 0.945312V18.9453H12.75V0.945312H13.5ZM15.75 0.945312V18.9453H15V0.945312H15.75ZM18 0.945312V18.9453H17.25V0.945312H18ZM19.5 0.945312V18.9453H18.75V0.945312H19.5ZM24 0.945312V18.9453H23.25V0.945312H24ZM22.5 0.945312V18.9453H20.25V0.945312H22.5ZM8.25 0.945312V18.9453H6V0.945312H8.25ZM0.75 0.945312V18.9453H0V0.945312H0.75Z" fill="#F18805"/>
</svg>
