<svg width="163" height="89" viewBox="0 0 163 89" fill="none" xmlns="http://www.w3.org/2000/svg">
<g filter="url(#filter0_b_719_53387)">
<rect width="163" height="89" fill="url(#paint0_radial_719_53387)" fill-opacity="0.1"/>
</g>
<rect x="18.9922" y="45.0112" width="6.62288" height="2.00816" transform="rotate(3.94731 18.9922 45.0112)" fill="black"/>
<path d="M21.6436 47.124L20.1718 47.492L19.5586 50.3128L19.6812 54.1148L20.9077 54.6054L24.3418 52.5204L25.2003 51.4166V50.6808L25.4456 49.9449L25.8135 48.5958V47.7373L24.3418 47.492L21.6436 47.124Z" fill="#FBAC19"/>
<path d="M32.9295 9.22654C31.6539 7.55856 29.0457 8.44979 27.901 9.1039L26.7972 11.1889L27.533 14.7456L20.9102 45.1618L25.6933 45.5297L26.7972 46.0203L31.8256 31.0575L32.9295 28.8499L33.788 24.312L33.2974 19.6515C33.7062 16.8715 34.205 10.8945 32.9295 9.22654Z" fill="#FBAC19"/>
<path d="M12.5703 55.5861L12.8156 54.4823V54.3597L16.7403 54.421L17.1082 46.0197L18.212 45.0386L18.9479 48.4727L18.7026 54.4517L20.6649 54.4823L20.1744 55.7088L16.9856 56.6899L14.6553 56.8126L12.5703 57.1805V55.5861Z" fill="#FBAC19"/>
<path d="M34.8867 26.5196L35.6226 23.6987L53.5289 30.4443C53.8968 31.0166 54.6572 32.4311 54.7554 33.5104C54.8535 34.5897 53.9786 34.5325 53.5289 34.3689L54.1421 36.2086L57.0856 37.0671L60.5197 44.058L61.8688 47.1241H56.7177L52.4251 40.8692L50.9533 36.6992L43.2266 32.1613L34.8867 26.5196Z" fill="#FBAC19"/>
<path fill-rule="evenodd" clip-rule="evenodd" d="M74.6277 47.0419C74.4388 47.1817 74.2499 47.4417 74.0635 47.4417C67.2836 47.4417 60.5038 47.4294 53.7264 47.3534C53.3682 47.3485 52.9193 46.8137 52.679 46.4237C51.4255 44.3878 50.4223 42.1655 48.9505 40.3086C47.6358 38.6504 45.9997 37.0855 44.1919 36.0135C40.4781 33.8157 36.551 31.9736 32.5797 29.9156C31.4907 33.097 30.5095 35.9596 29.5332 38.8246C28.2136 42.6928 26.8473 46.5464 25.6257 50.4441C25.4221 51.0916 25.9372 51.9354 25.9446 52.6909C25.9569 53.6819 26.4941 54.0351 27.3182 54.354C29.6461 55.2518 30.0385 56.206 29.3689 58.811C28.9568 60.4152 28.5251 62.0194 28.2454 63.6481C27.723 66.702 28.9494 69.1157 31.4465 70.7542C33.5069 72.1058 35.7612 73.1605 38.0252 74.3968C35.9329 75.6282 33.7204 75.9961 31.3901 75.9814C30.2372 75.974 29.0623 76.0182 27.9388 76.2439C25.7754 76.678 23.6928 76.4475 21.5563 76.0059C17.4771 75.1646 13.3562 74.5219 9.27211 73.71C5.91407 73.0428 3.67946 71.1173 3 67.6366C3 66.8197 3 66.0005 3 65.1836C3.16435 64.6195 3.31397 64.0504 3.49549 63.4911C4.04985 61.7716 4.85931 60.2337 6.15936 58.9091C7.34412 57.7022 8.42095 56.3556 9.35306 54.9427C10.528 53.1643 10.8567 52.9191 13.1281 53.3704C13.003 51.0524 12.9711 48.781 12.7307 46.5292C12.5664 44.9961 13.0619 44.1082 14.5631 44.1106C15.272 44.1131 15.554 43.8433 15.7576 43.23C16.7952 40.0952 17.8868 36.9775 18.89 33.8329C19.0691 33.2687 19.123 32.5181 18.8949 32.0055C18.5196 31.1592 18.7943 30.519 19.0715 29.7733C20.8671 24.9214 22.643 20.0622 24.3845 15.1883C24.5464 14.732 24.5219 14.1531 24.4164 13.6699C23.8008 10.8294 25.5865 8.47463 28.503 8.29556C29.3345 8.24405 30.1685 7.9546 30.9878 8.00611C32.5062 8.10423 33.3475 8.94558 33.6443 10.4075C33.7253 10.8049 33.8896 11.2145 33.8479 11.5996C33.6517 13.4025 34.2158 14.7958 35.7219 15.8873C36.2101 16.2406 36.7791 16.7876 37.2722 17.1163C37.856 17.5087 38.2264 17.8472 38.9107 18.1269C39.6196 18.4188 40.3432 18.7818 40.9148 19.2822C42.909 21.0238 44.8345 22.8438 46.7944 24.6246C48.0307 25.7481 49.2596 26.8862 50.54 27.9582C51.2808 28.5787 52.0608 29.219 52.9316 29.5967C53.9741 30.0505 54.6781 30.676 55.0509 31.7406C55.88 34.1076 57.5063 35.6799 59.7434 36.823C61.7204 37.8312 63.5331 39.1631 65.4219 40.3454C65.6966 40.5171 65.9959 40.8139 66.2681 40.7943C69.0718 40.6005 70.4798 43.1442 72.7218 44.0321C73.1608 44.2063 73.622 44.4491 74.0733 44.4491C99.7407 44.4663 125.408 44.454 151.075 44.4737C152.655 44.4737 154.279 44.5031 155.805 44.8514C158.478 45.4622 160.423 48.5602 159.921 51.2314C159.082 55.6835 158.211 60.1331 157.252 64.5606C156.398 68.5 154.215 74.4716 150.175 74.4741C114.041 74.4839 77.9097 74.479 41.7757 74.4864C39.8723 74.4864 39.5559 72.7693 38.4962 71.8568C38.5354 71.7391 38.5747 71.6238 38.6115 71.5061C39.2787 71.5061 39.9459 71.5061 40.6131 71.5061C76.6636 71.511 112.714 71.4815 148.767 71.5674C153.006 71.5772 154.029 67.1337 154.823 62.2598C155.402 58.7079 156.19 55.1905 156.916 51.6656C157.35 49.5536 156.079 47.7164 153.945 47.5079C153.175 47.4319 152.395 47.4319 151.62 47.4319C127.341 47.4343 103.062 47.4466 78.7829 47.4147C77.944 47.4147 77.0168 47.1424 76.2785 46.7303C73.801 45.3469 71.3923 43.8433 68.8903 42.3445C68.6916 42.7272 68.5126 43.0755 68.2648 43.5538C69.0154 43.8359 69.7366 44.1106 70.4577 44.3829C71.8461 45.2709 73.2369 46.1564 74.6277 47.0419ZM27.8677 13.275L27.8333 13.2406C28.4024 14.526 28.3632 15.8039 27.8726 17.1163C27.6052 17.8325 27.4728 18.6027 27.3182 19.3582C26.6216 22.7334 25.9863 26.1234 25.2431 29.4888C24.3576 33.4846 23.3715 37.4559 22.4566 41.4443C22.1916 42.6021 22.0248 43.7819 21.8114 44.9716C23.5628 45.1041 25.1033 45.2193 26.7197 45.342C26.8546 45.0231 27.0975 44.5546 27.2545 44.0567C28.1105 41.3658 28.9617 38.6725 29.7834 35.9718C31.0344 31.8607 33.3352 28.0489 33.2396 23.5552C33.1488 19.2871 33.1317 15.0166 33.0384 10.746C33.009 9.4239 32.0229 8.85237 30.9191 8.53595C29.9797 8.26612 28.3313 9.11729 27.8358 10.1279C27.333 11.1532 26.8694 12.2374 27.8677 13.275ZM54.5113 33.3877C54.1213 31.6118 53.0028 30.5386 51.4893 29.9622C47.7388 28.537 44.03 26.9942 40.2745 25.5788C38.8347 25.0367 37.3114 24.7154 35.8053 24.2886C35.3785 26.7317 35.4374 26.8543 37.2722 27.8576C41.474 30.1511 45.7151 32.3808 49.8532 34.7846C51.0723 35.4911 52.2742 36.5287 53.0052 37.711C54.58 40.2522 55.8359 42.9872 57.2438 45.6314C57.4229 45.965 57.7124 46.4532 57.9895 46.4826C58.9756 46.5856 59.9813 46.5243 61.0778 46.5243C60.9968 46.1981 60.9821 45.9528 60.8815 45.7516C59.6747 43.3698 58.3648 41.0371 57.2782 38.6038C56.6895 37.2817 56.3804 36.8181 54.7566 36.6991C54.006 36.7924 53.5301 36.0859 53.4075 35.1918C53.2282 33.8848 53.7754 34.2462 54.5113 33.3877ZM4.5944 70.1815C4.99913 70.1619 4.85195 68.9832 5.08253 69.0151C8.1683 69.4517 11.2884 69.7387 14.3276 70.4035C19.3119 71.4079 19.464 71.9451 20.661 74.4741C18.576 68.955 22.2554 58.8981 24.831 55.096C24.0951 55.464 21.4312 60.5832 21.029 61.1057C20.1116 62.3052 19.6897 62.7651 18.3553 62.3701C17.3152 62.0611 16.675 62.38 16.155 63.2606C15.6571 64.1093 15.0953 64.9236 14.5631 65.7527C14.4355 65.7012 14.3055 65.6497 14.1779 65.5982C13.8738 64.3472 14.828 63.263 14.9016 62.0464C13.7732 61.8796 12.6939 61.6539 11.6073 61.5926C11.2222 61.5705 10.7071 61.8575 10.4422 62.169C9.88534 62.819 9.45363 63.577 8.97041 64.2908C8.81097 64.2393 8.65152 64.1878 8.49208 64.1338C8.60982 63.209 8.72757 62.2843 8.85512 61.2884C8.20264 61.1216 7.5796 60.9622 7.23128 60.8739C8.65888 58.6172 10.0644 56.3948 11.4675 54.1749C11.2884 54.0302 11.1118 53.8855 10.9327 53.7408C10.7758 54.0327 10.6016 54.3148 10.4618 54.614C9.47571 56.726 7.72187 58.2124 6.25257 59.9467C4.00324 62.6007 3.60342 66.8382 4.5944 70.1815ZM43.0758 24.9263C41.5182 23.798 39.9483 22.6819 38.4103 21.5266C38.0743 21.2739 37.9222 20.4768 37.8314 20.1039C37.3556 18.1637 38.9353 20.6325 33.9068 16.3399C33.9068 18.4666 33.9975 20.6068 33.9975 22.6182C37.4978 21.7817 40.0366 24.1144 43.0758 24.9263ZM58.3256 38.1721C59.3877 40.235 60.3075 42.0698 61.2887 43.8702C61.4457 44.1572 61.875 44.4491 62.1938 44.4638C63.5528 44.5301 64.9166 44.4908 66.1774 44.4908C65.9664 42.6708 64.6713 41.9324 63.3786 41.1794C61.7744 40.2448 60.1898 39.2833 58.3256 38.1721ZM19.9374 53.6255C21.652 52.6811 23.136 51.9109 24.5612 51.0475C24.9021 50.8414 25.1499 50.3607 25.2799 49.9535C25.4589 49.3918 25.4835 48.7834 25.584 48.1432C25.0959 48.0377 24.5979 47.9323 24.0976 47.8219C23.3175 47.6502 22.513 47.2602 21.7648 47.3509C20.6757 47.4858 21.0878 48.6117 20.8646 49.3182C20.742 49.7057 20.6218 50.0957 20.5384 50.4907C20.3348 51.4964 20.1508 52.5045 19.9374 53.6255ZM26.7271 12.4116C26.5873 12.3723 26.445 12.3306 26.3052 12.2914C26.1506 12.6004 25.9667 12.8997 25.8489 13.2235C24.9021 15.8383 24.0092 18.4752 23.0158 21.0728C21.9071 23.9795 20.6978 26.8494 19.5744 29.7512C19.4959 29.9548 19.7461 30.2884 19.8417 30.5607C20.0895 30.4307 20.4648 30.362 20.558 30.1609C20.7738 29.6997 20.8155 29.1576 20.9971 28.6744C22.7288 24.0703 24.4949 19.476 26.2046 14.862C26.4916 14.0869 26.5578 13.2308 26.7271 12.4116ZM20.9922 33.4846C20.8646 33.4453 20.7371 33.4061 20.6095 33.3668C19.4591 36.9358 18.3111 40.5048 17.1215 44.2038C17.7494 44.2578 18.1762 44.2946 18.6987 44.3387C19.4763 40.6594 20.2342 37.0732 20.9922 33.4846ZM19.4836 46.6886C21.1982 46.8824 22.876 47.0713 24.5562 47.2626C24.6323 46.8137 24.7304 46.2422 24.831 45.6682C23.0305 45.548 21.2865 45.4327 19.4836 45.3125C19.4836 45.7614 19.4836 46.2667 19.4836 46.6886ZM17.3496 54.5425C17.455 54.5425 18.2228 54.5308 18.3307 54.5308C18.3307 52.5415 18.0855 47.7618 18.0855 45.7749C17.98 45.7749 17.8254 45.7749 17.7175 45.7749C17.7175 47.7618 17.3496 52.5532 17.3496 54.5425ZM15.8337 43.961C15.9391 43.9978 16.0446 44.0321 16.1501 44.0689C17.4256 40.3405 18.7011 36.6121 19.9767 32.8861C19.8785 32.8517 19.7804 32.8198 19.6823 32.7855C18.3994 36.509 17.1165 40.235 15.8337 43.961ZM64.3769 40.4729C67.1438 42.3445 70.9458 44.1498 64.5437 40.2007C61.8357 38.5302 59.1301 36.8598 56.4221 35.1918C56.3608 35.2948 56.297 35.3954 56.2357 35.496C58.9486 37.1541 61.664 38.8123 64.3769 40.4729ZM12.586 54.3859C10.6139 56.8609 10.035 59.9295 9.13475 62.8656C10.4299 60.1037 10.9033 56.9909 12.586 54.3859ZM12.8117 54.5233C13.0398 55.2052 12.7356 55.3242 14.6514 55.5866C14.9727 55.6308 19.2187 55.6578 19.5572 55.5866C19.5302 55.4738 20.6291 54.685 20.6021 54.5697C19.5989 54.4348 13.8762 54.6704 12.8117 54.5233ZM40.4242 20.1039C40.3776 20.18 40.3334 20.2584 40.2868 20.3345C41.5182 21.3843 42.7471 22.4342 43.9785 23.484C43.5394 22.7236 42.9654 22.1153 42.3375 21.5732C41.7291 21.0507 41.0644 20.592 40.4242 20.1039ZM16.4665 59.5616C16.3954 59.5223 16.3267 59.4855 16.2556 59.4487C15.6791 61.2197 15.1002 62.9932 14.5238 64.7642C14.6317 64.7985 14.7421 64.8353 14.85 64.8697C15.3897 63.0987 15.9269 61.3301 16.4665 59.5616ZM20.6021 54.4227C21.8507 53.5176 23.0992 52.6124 24.49 51.6043C22.6601 51.9575 21.809 53.4562 20.6021 54.4227Z" fill="black"/>
<path d="M60.4964 65.5455H61.4776V69.5683H51.8621V65.5455H53.3339L52.9414 63.5831H49.6055L49.213 65.5455H50.6847V69.5683H42.2958V65.5455H43.2769L47.4224 50.4845H56.351L60.4964 65.5455ZM50.1451 60.983H52.4018L51.3961 56.1017H51.1508L50.1451 60.983Z" fill="black"/>
<path d="M64.9525 69.5683V65.5455H66.1789V54.5073H64.9525V50.4845H75.3038V54.5073H73.0471V65.5455H75.2547V63.2888H80.136V69.5683H64.9525Z" fill="black"/>
<path d="M83.6761 65.5455H84.9026V54.5073H83.6761V50.4845H94.4444C96.5539 50.4845 98.1647 50.9424 99.2767 51.8582C100.389 52.7576 100.945 54.2212 100.945 56.2489C100.945 58.2767 100.389 59.7484 99.2767 60.6642C98.1647 61.5636 96.5539 62.0133 94.4444 62.0133H91.7707V65.5455H94.1255V69.5683H83.6761V65.5455ZM92.6047 58.5301C93.5532 58.5301 94.0274 58.0068 94.0274 56.9603V56.0772C94.0274 55.5376 93.9048 55.1451 93.6595 54.8998C93.4305 54.6382 93.079 54.5073 92.6047 54.5073H91.7707V58.5301H92.6047Z" fill="black"/>
<path d="M124.107 54.5073H122.881V65.5455H124.107V69.5683H114.835V65.5455H116.012V61.4982H112.578V65.5455H113.756V69.5683H104.484V65.5455H105.71V54.5073H104.484V50.4845H113.756V54.5073H112.578V58.2358H116.012V54.5073H114.835V50.4845H124.107V54.5073Z" fill="black"/>
<path d="M145.787 65.5455H146.768V69.5683H137.153V65.5455H138.625L138.232 63.5831H134.896L134.504 65.5455H135.975V69.5683H127.586V65.5455H128.568L132.713 50.4845H141.642L145.787 65.5455ZM135.436 60.983H137.692L136.687 56.1017H136.441L135.436 60.983Z" fill="black"/>
<path d="M96.0932 80.8517V79.8057H96.4121V76.9358H96.0932V75.8899H98.7845V76.9358H98.1978V79.8057H98.7718V79.219H100.041V80.8517H96.0932Z" fill="black"/>
<path d="M100.834 80.8517V79.8057H101.153V76.9358H100.834V75.8899H103.257V76.9358H102.938V79.8057H103.257V80.8517H100.834Z" fill="black"/>
<path d="M106.063 80.941C105.655 80.941 105.268 80.907 104.902 80.8389C104.541 80.7666 104.262 80.6859 104.067 80.5966V79.3338H105.47C105.47 79.4656 105.5 79.5613 105.559 79.6208C105.619 79.6803 105.727 79.7101 105.884 79.7101C106.016 79.7101 106.11 79.691 106.165 79.6527C106.224 79.6102 106.254 79.5485 106.254 79.4677C106.254 79.3997 106.227 79.3423 106.171 79.2955C106.116 79.2445 106.02 79.1935 105.884 79.1425L105.336 78.9512C104.864 78.7726 104.524 78.5621 104.315 78.3198C104.111 78.0774 104.009 77.75 104.009 77.3376C104.009 76.8359 104.173 76.4554 104.5 76.196C104.832 75.9324 105.383 75.8006 106.152 75.8006C106.522 75.8006 106.869 75.8389 107.192 75.9154C107.519 75.9877 107.783 76.0855 107.983 76.2088V77.3504H106.707C106.707 77.1378 106.575 77.0315 106.312 77.0315C106.184 77.0315 106.093 77.0485 106.037 77.0825C105.986 77.1123 105.961 77.1676 105.961 77.2483C105.961 77.3206 105.991 77.378 106.05 77.4205C106.114 77.4631 106.216 77.5077 106.356 77.5545L106.911 77.7458C107.362 77.8989 107.689 78.0987 107.893 78.3453C108.102 78.5876 108.206 78.9065 108.206 79.3019C108.206 79.8419 108.023 80.2501 107.657 80.5264C107.296 80.8028 106.764 80.941 106.063 80.941Z" fill="black"/>
<path d="M113.715 77.4333H112.618V76.9358H112.21V79.8057H112.656V80.8517H109.978V79.8057H110.424V76.9358H110.016V77.4333H108.919V75.8899H113.715V77.4333Z" fill="black"/>
<path d="M114.507 80.8517V79.8057H114.826V76.9358H114.507V75.8899H116.931V76.9358H116.612V79.8057H116.931V80.8517H114.507Z" fill="black"/>
<path d="M121.433 75.8899H123.525V76.9358H123.206V80.8517H121.414L119.545 77.9754V79.8057H119.851V80.8517H117.76V79.8057H118.078V76.9358H117.76V75.8899H120.062L121.739 78.4473V76.9358H121.433V75.8899Z" fill="black"/>
<path d="M129.152 79.2573H128.833V80.5328C128.646 80.6391 128.372 80.7348 128.011 80.8198C127.654 80.9006 127.267 80.941 126.85 80.941C126.055 80.941 125.432 80.7326 124.981 80.316C124.531 79.895 124.305 79.2466 124.305 78.3708C124.305 77.4737 124.529 76.821 124.975 76.4129C125.426 76.0047 126.068 75.8006 126.901 75.8006C127.305 75.8006 127.683 75.8431 128.036 75.9282C128.389 76.0132 128.655 76.1089 128.833 76.2152V77.7394H127.239V77.4397C127.239 77.2611 127.201 77.1335 127.124 77.057C127.052 76.9762 126.935 76.9358 126.774 76.9358C126.612 76.9358 126.493 76.9762 126.416 77.057C126.344 77.1335 126.308 77.2611 126.308 77.4397V79.3019C126.308 79.4805 126.344 79.6102 126.416 79.691C126.493 79.7675 126.612 79.8057 126.774 79.8057C126.935 79.8057 127.052 79.7675 127.124 79.691C127.201 79.6102 127.239 79.4805 127.239 79.3019V79.2573H126.895V78.307H129.152V79.2573Z" fill="black"/>
<path d="M131.883 80.941C131.475 80.941 131.088 80.907 130.723 80.8389C130.361 80.7666 130.083 80.6859 129.887 80.5966V79.3338H131.29C131.29 79.4656 131.32 79.5613 131.38 79.6208C131.439 79.6803 131.548 79.7101 131.705 79.7101C131.837 79.7101 131.93 79.691 131.985 79.6527C132.045 79.6102 132.075 79.5485 132.075 79.4677C132.075 79.3997 132.047 79.3423 131.992 79.2955C131.937 79.2445 131.841 79.1935 131.705 79.1425L131.156 78.9512C130.684 78.7726 130.344 78.5621 130.136 78.3198C129.932 78.0774 129.83 77.75 129.83 77.3376C129.83 76.8359 129.994 76.4554 130.321 76.196C130.653 75.9324 131.203 75.8006 131.973 75.8006C132.343 75.8006 132.689 75.8389 133.012 75.9154C133.34 75.9877 133.603 76.0855 133.803 76.2088V77.3504H132.528C132.528 77.1378 132.396 77.0315 132.132 77.0315C132.005 77.0315 131.913 77.0485 131.858 77.0825C131.807 77.1123 131.781 77.1676 131.781 77.2483C131.781 77.3206 131.811 77.378 131.871 77.4205C131.934 77.4631 132.036 77.5077 132.177 77.5545L132.732 77.7458C133.182 77.8989 133.51 78.0987 133.714 78.3453C133.922 78.5876 134.026 78.9065 134.026 79.3019C134.026 79.8419 133.843 80.2501 133.478 80.5264C133.116 80.8028 132.585 80.941 131.883 80.941Z" fill="black"/>
<path fill-rule="evenodd" clip-rule="evenodd" d="M72.4201 45.3137C71.2131 44.5453 70.2833 44.0004 69.1496 43.2911C68.969 43.1781 69.0454 42.9684 69.2288 43.0767C70.5326 43.8199 73.2945 45.3537 75.1646 46.5732C75.3996 46.7264 75.2518 47.002 75.0052 46.8684C74.4432 46.5638 73.6303 46.0843 72.4201 45.3137Z" fill="black"/>
<path fill-rule="evenodd" clip-rule="evenodd" d="M4.4545 67.7372C4.49866 67.0995 4.52809 66.6776 4.56243 66.1723C9.23279 66.8493 13.7756 67.5091 18.3797 68.1787C18.4092 68.6595 18.4337 69.052 18.4754 69.7462C13.7462 69.0667 9.14203 68.4069 4.4545 67.7372Z" fill="black"/>
<path d="M42.6195 80.8517V79.8057H42.9384V76.9358H42.6195V75.8899H46.9244V77.8159H45.4958V76.9358H44.7241V77.9435H45.2854V78.6705H44.7241V79.8057H45.4958V78.7981H46.9244V80.8517H42.6195Z" fill="black"/>
<path d="M52.6763 81.3491C51.7749 81.3491 51.0521 81.3215 50.5079 81.2662C49.968 81.211 49.5024 81.0919 49.1112 80.9091C48.7201 80.7305 48.3927 80.4605 48.1291 80.0991C47.8442 79.6867 47.7018 79.1106 47.7018 78.3708C47.7018 77.5077 47.9144 76.8636 48.3395 76.4384C48.769 76.0132 49.3685 75.8006 50.138 75.8006C50.9033 75.8006 51.5007 75.9898 51.9301 76.3682C52.3595 76.7424 52.5743 77.3036 52.5743 78.0519C52.5743 78.375 52.5211 78.679 52.4148 78.9639C52.3128 79.2445 52.1342 79.5039 51.8791 79.742L51.911 79.8057H52.6763V81.3491ZM50.138 79.8057C50.4271 79.8057 50.5717 79.6484 50.5717 79.3338V77.4078C50.5717 77.0932 50.4271 76.9358 50.138 76.9358C49.8489 76.9358 49.7043 77.0932 49.7043 77.4078V79.3338C49.7043 79.6484 49.8489 79.8057 50.138 79.8057Z" fill="black"/>
<path d="M55.8624 80.941C55.1948 80.941 54.6782 80.7943 54.3126 80.5009C53.9512 80.2075 53.7705 79.7314 53.7705 79.0723V76.9358H53.4516V75.8899H55.8113V76.9358H55.5562V79.3976C55.5562 79.5379 55.586 79.6421 55.6455 79.7101C55.7093 79.7739 55.8028 79.8057 55.9261 79.8057C56.0494 79.8057 56.1408 79.7739 56.2004 79.7101C56.2641 79.6421 56.296 79.5379 56.296 79.3976V76.9358H56.0409V75.8899H58.2284V76.9358H57.9096V79.0723C57.9096 79.7314 57.7331 80.2075 57.3802 80.5009C57.0273 80.7943 56.5214 80.941 55.8624 80.941Z" fill="black"/>
<path d="M59.0336 80.8517V79.8057H59.3525V76.9358H59.0336V75.8899H61.4571V76.9358H61.1382V79.8057H61.4571V80.8517H59.0336Z" fill="black"/>
<path d="M62.2857 79.8057H62.6046V76.9358H62.2857V75.8899H65.0854C65.6339 75.8899 66.0527 76.009 66.3418 76.2471C66.631 76.4809 66.7755 76.8614 66.7755 77.3886C66.7755 77.9159 66.631 78.2985 66.3418 78.5366C66.0527 78.7705 65.6339 78.8874 65.0854 78.8874H64.3903V79.8057H65.0025V80.8517H62.2857V79.8057ZM64.6071 77.9818C64.8537 77.9818 64.977 77.8457 64.977 77.5736V77.344C64.977 77.2037 64.9451 77.1017 64.8814 77.0379C64.8218 76.9698 64.7304 76.9358 64.6071 76.9358H64.3903V77.9818H64.6071Z" fill="black"/>
<path d="M74.6026 76.9358H74.2837V79.8057H74.6026V80.8517H72.1919V79.8057H72.498V77.5736L71.4138 80.8517H70.4699L69.3538 77.6055V79.8057H69.66V80.8517H67.5681V79.8057H67.887V76.9358H67.5681V75.8899H70.4891L71.1523 77.8797L71.7901 75.8899H74.6026V76.9358Z" fill="black"/>
<path d="M75.429 80.8517V79.8057H75.7479V76.9358H75.429V75.8899H79.7339V77.8159H78.3053V76.9358H77.5336V77.9435H78.0948V78.6705H77.5336V79.8057H78.3053V78.7981H79.7339V80.8517H75.429Z" fill="black"/>
<path d="M84.223 75.8899H86.3148V76.9358H85.996V80.8517H84.2039L82.3352 77.9754V79.8057H82.6414V80.8517H80.5495V79.8057H80.8684V76.9358H80.5495V75.8899H82.8518L84.5291 78.4473V76.9358H84.223V75.8899Z" fill="black"/>
<path d="M91.8913 77.4333H90.7943V76.9358H90.3862V79.8057H90.8326V80.8517H88.154V79.8057H88.6005V76.9358H88.1923V77.4333H87.0954V75.8899H91.8913V77.4333Z" fill="black"/>
<circle cx="29.2468" cy="11.1887" r="0.731168" fill="#F5B03A" stroke="black" stroke-width="0.5"/>
<circle cx="29.8601" cy="11.3108" r="0.367938" fill="black"/>
<path d="M33.0486 14.1325L38.851 18.8122C39.01 18.9405 39.0344 19.1737 38.9053 19.3321C38.7775 19.4889 38.5472 19.5134 38.3892 19.387L33.0486 15.1137L33.0486 14.1325Z" fill="white"/>
<path d="M33.082 14.3774L39.0007 19.2011C39.0532 19.2439 39.061 19.3212 39.0182 19.3737C38.9754 19.4262 38.8982 19.434 38.8457 19.3913L32.9271 14.5676L33.082 14.3774Z" fill="black"/>
<circle cx="55.3733" cy="35.1053" r="1.10381" fill="white"/>
<circle cx="55.3671" cy="35.1049" r="0.61323" fill="black"/>
<defs>
<filter id="filter0_b_719_53387" x="-2" y="-2" width="167" height="93" filterUnits="userSpaceOnUse" color-interpolation-filters="sRGB">
<feFlood flood-opacity="0" result="BackgroundImageFix"/>
<feGaussianBlur in="BackgroundImageFix" stdDeviation="1"/>
<feComposite in2="SourceAlpha" operator="in" result="effect1_backgroundBlur_719_53387"/>
<feBlend mode="normal" in="SourceGraphic" in2="effect1_backgroundBlur_719_53387" result="shape"/>
</filter>
<radialGradient id="paint0_radial_719_53387" cx="0" cy="0" r="1" gradientUnits="userSpaceOnUse" gradientTransform="translate(81.5 44.5) rotate(90.7441) scale(38.5032 70.5172)">
<stop stop-color="#D9D9D9" stop-opacity="0.5"/>
<stop offset="1" stop-color="#D9D9D9" stop-opacity="0"/>
</radialGradient>
</defs>
</svg>
