<svg width="30" height="30" viewBox="0 0 30 30" fill="none" xmlns="http://www.w3.org/2000/svg">
<path d="M24.5809 21.0135C24.2348 21.8204 23.8072 22.5898 23.3047 23.3098C22.6334 24.2685 22.0822 24.931 21.6597 25.2998C21.0034 25.9023 20.2984 26.2123 19.5447 26.2298C19.0047 26.2298 18.3522 26.076 17.5922 25.7635C16.8297 25.4523 16.1297 25.2998 15.4884 25.2998C14.8172 25.2998 14.0972 25.4523 13.3259 25.7635C12.5559 26.076 11.9334 26.2398 11.4572 26.2548C10.7359 26.286 10.0147 25.9685 9.29594 25.2998C8.83719 24.8998 8.26344 24.2123 7.57469 23.2398C6.83719 22.2035 6.23094 20.9973 5.75594 19.626C5.24719 18.1423 4.99219 16.7073 4.99219 15.3173C4.99219 13.726 5.33594 12.3523 6.02469 11.2023C6.54562 10.2991 7.29037 9.54533 8.18719 9.01354C9.07152 8.48312 10.081 8.19752 11.1122 8.18604C11.6872 8.18604 12.4409 8.36354 13.3747 8.71354C14.3084 9.06354 14.9084 9.24104 15.1697 9.24104C15.3672 9.24104 16.0309 9.03229 17.1609 8.61854C18.2272 8.23479 19.1272 8.07604 19.8647 8.13854C21.8647 8.29979 23.3659 9.08729 24.3647 10.5073C22.5772 11.591 21.6934 13.1073 21.7109 15.0535C21.7259 16.5698 22.2772 17.831 23.3572 18.8323C23.8347 19.2892 24.3918 19.6548 25.0009 19.911C24.8684 20.2948 24.7284 20.661 24.5809 21.0135ZM19.9972 2.97479C19.9972 4.16229 19.5622 5.27229 18.6984 6.29854C17.6534 7.51854 16.3909 8.22479 15.0222 8.11354C15.0043 7.96421 14.9955 7.81393 14.9959 7.66354C14.9959 6.52229 15.4909 5.30229 16.3747 4.30354C16.8147 3.79854 17.3747 3.37729 18.0534 3.04229C18.7309 2.71229 19.3709 2.52979 19.9734 2.49854C19.9897 2.65854 19.9972 2.81729 19.9972 2.97479Z" fill="#9D9D9D"/>
</svg>
