<svg width="21" height="21" viewBox="0 0 21 21" fill="none" xmlns="http://www.w3.org/2000/svg">
<g clip-path="url(#clip0_1569_7790)">
<path d="M19.3195 4.1891H1.88363C1.17539 4.1891 0.601562 3.61527 0.601562 2.90707C0.601562 2.19887 1.17539 1.625 1.88363 1.625H19.3195C20.0277 1.625 20.6016 2.19883 20.6016 2.90707C20.6016 3.61531 20.0277 4.1891 19.3195 4.1891Z" fill="white"/>
<path d="M12.14 11.8805H1.88363C1.17539 11.8805 0.601562 11.3067 0.601562 10.5985C0.601562 9.89027 1.17539 9.31641 1.88363 9.31641H12.14C12.8482 9.31641 13.4221 9.89023 13.4221 10.5985C13.4221 11.3067 12.8482 11.8805 12.14 11.8805Z" fill="white"/>
<path d="M19.3177 11.8825H17.2664C16.5582 11.8825 15.9844 11.3087 15.9844 10.6004C15.9844 9.89219 16.5582 9.31836 17.2664 9.31836H19.3177C20.0259 9.31836 20.5998 9.89219 20.5998 10.6004C20.5998 11.3087 20.0259 11.8825 19.3177 11.8825Z" fill="#DCDCDC"/>
<path d="M19.3195 19.5739H1.88363C1.17539 19.5739 0.601562 19 0.601562 18.2918C0.601562 17.5836 1.17539 17.0098 1.88363 17.0098H19.3195C20.0277 17.0098 20.6016 17.5836 20.6016 18.2918C20.6016 19 20.0277 19.5739 19.3195 19.5739Z" fill="white"/>
</g>
<defs>
<clipPath id="clip0_1569_7790">
<rect width="20" height="20" fill="white" transform="translate(0.601562 0.599609)"/>
</clipPath>
</defs>
</svg>
