<svg width="20" height="21" viewBox="0 0 20 21" fill="none" xmlns="http://www.w3.org/2000/svg">
<path d="M6.25 8.125H8.75V10.625H6.25V8.125ZM10 8.125H12.5V10.625H10V8.125ZM13.75 8.125H16.25V10.625H13.75V8.125ZM2.5 15.625H5V18.125H2.5V15.625ZM6.25 15.625H8.75V18.125H6.25V15.625ZM10 15.625H12.5V18.125H10V15.625ZM6.25 11.875H8.75V14.375H6.25V11.875ZM10 11.875H12.5V14.375H10V11.875ZM13.75 11.875H16.25V14.375H13.75V11.875ZM2.5 11.875H5V14.375H2.5V11.875ZM16.25 0.625V1.875H13.75V0.625H5V1.875H2.5V0.625H0V20.625H18.75V0.625H16.25ZM17.5 19.375H1.25V5.625H17.5V19.375Z" fill="black"/>
</svg>
