<svg width="21" height="21" viewBox="0 0 21 21" fill="none" xmlns="http://www.w3.org/2000/svg">
<g clip-path="url(#clip0_2_81163)">
<path d="M13.8374 14.7896L9.7207 10.6737V5.15625H12.2207V9.63875L15.604 13.0221L13.8374 14.7904V14.7896ZM10.9707 0.15625C5.44737 0.15625 0.970703 4.63292 0.970703 10.1562C0.970703 15.6796 5.44737 20.1562 10.9707 20.1562C16.494 20.1562 20.9707 15.6796 20.9707 10.1562C20.9707 4.63292 16.494 0.15625 10.9707 0.15625ZM10.9707 17.6562C9.98579 17.6562 9.01052 17.4623 8.10058 17.0853C7.19064 16.7084 6.36384 16.156 5.6674 15.4595C4.97096 14.7631 4.41852 13.9363 4.04161 13.0264C3.6647 12.1164 3.4707 11.1412 3.4707 10.1562C3.4707 9.17134 3.6647 8.19607 4.04161 7.28612C4.41852 6.37618 4.97096 5.54939 5.6674 4.85295C6.36384 4.15651 7.19064 3.60406 8.10058 3.22715C9.01052 2.85024 9.98579 2.65625 10.9707 2.65625C12.9598 2.65625 14.8675 3.44643 16.274 4.85295C17.6805 6.25947 18.4707 8.16713 18.4707 10.1562C18.4707 12.1454 17.6805 14.053 16.274 15.4595C14.8675 16.8661 12.9598 17.6562 10.9707 17.6562Z" fill="black"/>
</g>
<defs>
<clipPath id="clip0_2_81163">
<rect width="19.964" height="20" fill="white" transform="translate(0.970703 0.15625)"/>
</clipPath>
</defs>
</svg>
