<svg width="25" height="25" viewBox="0 0 25 25" fill="none" xmlns="http://www.w3.org/2000/svg">
<g clip-path="url(#clip0_459_50646)">
<path d="M24.4286 12.2143C24.4286 5.46856 18.96 0 12.2143 0C5.46856 0 0 5.46847 0 12.2143C0 18.3107 4.46661 23.3639 10.3058 24.2802V15.745H7.20452V12.2143H10.3058V9.52333C10.3058 6.46212 12.1294 4.77121 14.9193 4.77121C16.2557 4.77121 17.6535 5.00977 17.6535 5.00977V8.01562H16.1133C14.5959 8.01562 14.1228 8.95717 14.1228 9.92315V12.2143H17.5103L16.9688 15.745H14.1228V24.2802C19.962 23.3639 24.4286 18.3108 24.4286 12.2143Z" fill="#1877F2"/>
<path d="M16.9674 15.7448L17.5089 12.2141H14.1214V9.92294C14.1214 8.95687 14.5946 8.01542 16.1119 8.01542H17.6521V5.00956C17.6521 5.00956 16.2543 4.771 14.9179 4.771C12.128 4.771 10.3044 6.46191 10.3044 9.52312V12.2141H7.20312V15.7448H10.3044V24.28C10.9358 24.3789 11.5738 24.4285 12.2129 24.4284C12.8519 24.4286 13.49 24.3789 14.1214 24.28V15.7448H16.9674Z" fill="white"/>
</g>
<defs>
<clipPath id="clip0_459_50646">
<rect width="24.4286" height="24.4286" fill="white"/>
</clipPath>
</defs>
</svg>
