<svg width="24" height="25" viewBox="0 0 24 25" fill="none" xmlns="http://www.w3.org/2000/svg">
<g clip-path="url(#clip0_459_53711)">
<path d="M17.262 7.75488V22.7969H0V7.75488H17.262ZM19.292 6.22788L23 7.20888L19.292 20.8769V6.22788ZM12.185 13.7719L12.17 13.7869L8.366 17.5439L8.123 17.7839L6.093 15.7769L2.031 19.7889V20.7909H15.231V16.7809L12.185 13.7709V13.7719ZM5.077 9.76087C3.955 9.76087 3.047 10.6589 3.047 11.7659C3.047 12.8739 3.955 13.7719 5.077 13.7719C6.198 13.7719 7.107 12.8739 7.107 11.7659C7.107 10.6589 6.198 9.76087 5.077 9.76087ZM6.327 2.79688L17.482 5.74888H5.525L6.327 2.79688Z" fill="#F18805"/>
</g>
<defs>
<clipPath id="clip0_459_53711">
<rect width="24" height="24" fill="white" transform="translate(0 0.796875)"/>
</clipPath>
</defs>
</svg>
