<svg width="28" height="28" viewBox="0 0 28 28" fill="none" xmlns="http://www.w3.org/2000/svg">
<path d="M27.7277 11.2581H26.6V11.2H14V16.8H21.9121C20.7578 20.0599 17.6561 22.4 14 22.4C9.3611 22.4 5.6 18.6389 5.6 14C5.6 9.3611 9.3611 5.6 14 5.6C16.1413 5.6 18.0894 6.4078 19.5727 7.7273L23.5326 3.7674C21.0322 1.4371 17.6876 0 14 0C6.2685 0 0 6.2685 0 14C0 21.7315 6.2685 28 14 28C21.7315 28 28 21.7315 28 14C28 13.0613 27.9034 12.145 27.7277 11.2581Z" fill="#FFC107"/>
<path d="M1.61328 7.4837L6.21298 10.857C7.45758 7.7756 10.4718 5.6 13.9991 5.6C16.1404 5.6 18.0885 6.4078 19.5718 7.7273L23.5317 3.7674C21.0313 1.4371 17.6867 0 13.9991 0C8.62168 0 3.95828 3.0359 1.61328 7.4837Z" fill="#FF3D00"/>
<path d="M13.9987 28.0001C17.6149 28.0001 20.9007 26.6162 23.385 24.3657L19.052 20.6991C17.6464 21.7638 15.8992 22.4001 13.9987 22.4001C10.3573 22.4001 7.26536 20.0782 6.10056 16.8379L1.53516 20.3554C3.85216 24.8893 8.55756 28.0001 13.9987 28.0001Z" fill="#4CAF50"/>
<path d="M27.7277 11.2583H26.6V11.2002H14V16.8002H21.9121C21.3577 18.3661 20.3504 19.7164 19.0512 20.6999C19.0519 20.6992 19.0526 20.6992 19.0533 20.6985L23.3863 24.3651C23.0797 24.6437 28 21.0002 28 14.0002C28 13.0615 27.9034 12.1452 27.7277 11.2583Z" fill="#1976D2"/>
</svg>
