<svg width="28" height="28" viewBox="0 0 28 28" fill="none" xmlns="http://www.w3.org/2000/svg">
<path d="M25.3672 11.6811H24.4302V11.6328H13.9608V16.2858H20.535C19.5759 18.9945 16.9986 20.9389 13.9608 20.9389C10.1063 20.9389 6.98119 17.8138 6.98119 13.9593C6.98119 10.1048 10.1063 6.97972 13.9608 6.97972C15.74 6.97972 17.3587 7.65093 18.5912 8.7473L21.8815 5.45701C19.8039 3.52075 17.0248 2.32666 13.9608 2.32666C7.53665 2.32666 2.32812 7.53518 2.32812 13.9593C2.32812 20.3834 7.53665 25.592 13.9608 25.592C20.3849 25.592 25.5934 20.3834 25.5934 13.9593C25.5934 13.1793 25.5132 12.418 25.3672 11.6811Z" fill="#FFC107"/>
<path d="M3.66797 8.54489L7.48988 11.3478C8.52402 8.78744 11.0285 6.97972 13.9594 6.97972C15.7386 6.97972 17.3573 7.65092 18.5898 8.7473L21.8801 5.45701C19.8025 3.52075 17.0234 2.32666 13.9594 2.32666C9.49128 2.32666 5.61644 4.8492 3.66797 8.54489Z" fill="#FF3D00"/>
<path d="M13.9575 25.5921C16.9622 25.5921 19.6924 24.4422 21.7566 22.5723L18.1563 19.5257C16.9492 20.4437 15.4741 20.9402 13.9575 20.939C10.9319 20.939 8.36281 19.0098 7.39497 16.3174L3.60156 19.2401C5.52677 23.0073 9.4365 25.5921 13.9575 25.5921Z" fill="#4CAF50"/>
<path d="M25.3673 11.6811H24.4303V11.6328H13.9609V16.2859H20.5351C20.0763 17.575 19.2499 18.7015 18.158 19.5261L18.1597 19.525L21.7601 22.5716C21.5053 22.8031 25.5936 19.7757 25.5936 13.9593C25.5936 13.1794 25.5133 12.418 25.3673 11.6811Z" fill="#1976D2"/>
</svg>
