<svg width="17" height="17" viewBox="0 0 17 17" fill="none" xmlns="http://www.w3.org/2000/svg">
<path fill-rule="evenodd" clip-rule="evenodd" d="M5.12546 5.33807C6.03206 4.43147 7.23742 3.92683 8.51953 3.92683C9.80165 3.92683 11.007 4.43413 11.9136 5.34073C12.4888 5.91596 12.8998 6.6072 13.1235 7.37863H16.7267V2.53577C16.7267 1.39963 15.8485 0.521484 14.7124 0.521484H2.36953C1.23339 0.521484 0.269531 1.39963 0.269531 2.53577V7.37863H3.91547C4.13927 6.6072 4.55023 5.9133 5.12546 5.33807ZM15.3553 4.08686C15.3553 4.38982 15.1097 4.63544 14.8067 4.63544H13.161C12.858 4.63544 12.6124 4.38986 12.6124 4.08686V2.44115C12.6124 2.13819 12.858 1.89258 13.161 1.89258H14.8067C15.1097 1.89258 15.3553 2.13815 15.3553 2.44115V4.08686Z" fill="white"/>
<path fill-rule="evenodd" clip-rule="evenodd" d="M11.9136 12.1262C11.007 13.0328 9.80165 13.5268 8.51953 13.5268C7.23742 13.5268 6.03206 13.0355 5.12546 12.1289C4.22053 11.224 3.7215 9.99286 3.71962 8.75H0.269531V14.8786C0.269531 16.0147 1.23339 16.9786 2.36953 16.9786H14.7124C15.8485 16.9786 16.7267 16.0147 16.7267 14.8786V8.75H13.3194C13.3176 9.99286 12.8186 11.2213 11.9136 12.1262Z" fill="white"/>
</svg>
