<svg width="24" height="25" viewBox="0 0 24 25" fill="none" xmlns="http://www.w3.org/2000/svg">
<path d="M11.8002 21.2445C11.3002 20.3445 10.7002 19.4445 10.2002 18.6445C9.10015 16.7445 8.00015 14.8445 7.00015 12.8445C6.40015 11.7445 6.00015 10.5445 5.80015 9.24448C5.20015 5.84448 7.50015 2.64448 11.0002 2.14448C14.7002 1.64448 18.0002 4.64448 17.8002 8.34448C17.8002 9.74448 17.3002 11.0445 16.7002 12.3445C15.9002 14.2445 14.8002 16.0445 13.7002 17.8445C13.1002 18.9445 12.5002 20.1445 11.8002 21.2445V21.2445ZM11.8002 5.94448C10.6002 5.94448 9.60015 6.94448 9.60015 8.04448C9.60015 9.24448 10.6002 10.2445 11.8002 10.2445C13.0002 10.2445 14.0002 9.24448 14.0002 8.04448C13.9002 6.84448 13.0002 5.94448 11.8002 5.94448Z" fill="#F18805"/>
<path d="M8.90023 19.6461L7.40023 20.2461C7.10023 20.3461 6.80023 20.5461 6.80023 20.9461C6.80023 21.3461 7.10023 21.4461 7.40023 21.6461C8.20023 22.0461 9.00023 22.2461 9.90023 22.3461C11.7002 22.6461 13.4002 22.5461 15.2002 22.0461C15.6002 21.9461 16.0002 21.7461 16.4002 21.5461C16.9002 21.2461 16.9002 20.7461 16.4002 20.4461C15.9002 20.1461 15.3002 19.9461 14.7002 19.6461C14.9002 19.2461 15.2002 18.7461 15.5002 18.2461C15.7002 18.3461 15.9002 18.3461 16.1002 18.4461C16.7002 18.6461 17.3002 18.9461 17.8002 19.4461C18.7002 20.3461 18.7002 21.5461 17.8002 22.4461C17.1002 23.0461 16.3002 23.4461 15.4002 23.6461C12.8002 24.3461 10.1002 24.2461 7.60023 23.3461C6.90023 23.1461 6.30023 22.7461 5.80023 22.2461C5.10023 21.4461 5.10023 20.3461 5.90023 19.5461C6.50023 18.8461 7.30023 18.5461 8.20023 18.2461C8.30023 18.2461 8.40023 18.2461 8.40023 18.3461C8.40023 18.7461 8.70023 19.2461 8.90023 19.6461V19.6461Z" fill="#F18805"/>
</svg>
