<svg width="200" height="93" viewBox="0 0 200 93" fill="none" xmlns="http://www.w3.org/2000/svg">
<rect x="20.2773" y="46.9268" width="8.39721" height="2.54616" transform="rotate(3.94731 20.2773 46.9268)" fill="black"/>
<path d="M23.6397 49.6055L21.7736 50.072L20.9961 53.6486L21.1516 58.4692L22.7066 59.0912L27.0607 56.4476L28.1493 55.0481V54.1151L28.4603 53.1821L28.9268 51.4715V50.383L27.0607 50.072L23.6397 49.6055Z" fill="#FBAC19"/>
<path d="M37.9464 1.55504C36.3292 -0.559815 33.0221 0.570179 31.5708 1.39953L30.1712 4.04311L31.1042 8.55272L22.707 47.1177L28.7717 47.5842L30.1712 48.2062L36.5469 29.2347L37.9464 26.4357L39.0349 20.682L38.4129 14.7729C38.9313 11.2481 39.5636 3.66989 37.9464 1.55504Z" fill="#FBAC19"/>
<path d="M12.1328 60.3352L12.4438 58.9357V58.7802L17.4199 58.858L17.8865 48.2059L19.286 46.9619L20.219 51.316L19.908 58.8968L22.3961 58.9357L21.7741 60.4907L17.731 61.7348L14.7764 61.8903L12.1328 62.3568V60.3352Z" fill="#FBAC19"/>
<path d="M40.4297 23.4809L41.3627 19.9043L64.0663 28.457C64.5328 29.1827 65.4969 30.9762 65.6213 32.3446C65.7457 33.713 64.6365 33.6405 64.0663 33.4331L64.8438 35.7657L68.5759 36.8542L72.93 45.7179L74.6405 49.6055H68.1094L62.6667 41.6748L60.8007 36.3877L51.0039 30.6341L40.4297 23.4809Z" fill="#FBAC19"/>
<path fill-rule="evenodd" clip-rule="evenodd" d="M90.8173 49.5015C90.5779 49.6788 90.3384 50.0085 90.102 50.0085C81.5058 50.0085 72.9095 49.9929 64.3164 49.8965C63.8623 49.8903 63.2932 49.2123 62.9884 48.7178C61.3991 46.1364 60.1271 43.3187 58.2611 40.9643C56.5941 38.8619 54.5196 36.8777 52.2275 35.5186C47.5189 32.732 42.5396 30.3963 37.5044 27.787C36.1235 31.8207 34.8795 35.4502 33.6417 39.0828C31.9685 43.9873 30.2362 48.8733 28.6873 53.8152C28.4292 54.6362 29.0823 55.7061 29.0917 56.664C29.1072 57.9205 29.7883 58.3683 30.8333 58.7726C33.7848 59.9109 34.2824 61.1207 33.4333 64.4236C32.9108 66.4576 32.3635 68.4916 32.0089 70.5567C31.3465 74.4288 32.9015 77.4891 36.0676 79.5666C38.68 81.2803 41.5382 82.6176 44.4088 84.1851C41.7559 85.7464 38.9506 86.2128 35.996 86.1942C34.5343 86.1849 33.0446 86.2408 31.6201 86.527C28.8771 87.0775 26.2366 86.7851 23.5277 86.2253C18.3557 85.1585 13.1307 84.3437 7.95247 83.3143C3.69477 82.4683 0.861491 80.0269 0 75.6137C0 74.5781 0 73.5393 0 72.5036C0.208375 71.7883 0.398091 71.0668 0.628237 70.3577C1.33111 68.1775 2.35744 66.2275 4.00578 64.5481C5.50794 63.0179 6.87327 61.3105 8.0551 59.5191C9.54483 57.2643 9.96158 56.9533 12.8415 57.5255C12.6829 54.5865 12.6425 51.7066 12.3377 48.8515C12.1293 46.9077 12.7575 45.7819 14.6609 45.785C15.5597 45.7881 15.9174 45.446 16.1755 44.6684C17.4911 40.6938 18.8751 36.7409 20.1471 32.7537C20.3741 32.0384 20.4425 31.0867 20.1533 30.4367C19.6775 29.3638 20.0258 28.552 20.3772 27.6066C22.6538 21.4548 24.9055 15.2938 27.1136 9.11405C27.3189 8.53558 27.2878 7.8016 27.1541 7.18892C26.3734 3.58745 28.6376 0.601783 32.3355 0.374748C33.3898 0.309436 34.4472 -0.0575599 35.486 0.0077517C37.4111 0.132155 38.4779 1.19891 38.8542 3.05252C38.9568 3.55635 39.1652 4.07574 39.1123 4.56402C38.8635 6.84993 39.5788 8.61645 41.4884 10.0004C42.1073 10.4483 42.8289 11.1418 43.454 11.5586C44.1942 12.0562 44.6638 12.4854 45.5315 12.8399C46.4303 13.21 47.3478 13.6703 48.0725 14.3048C50.6009 16.5129 53.0424 18.8206 55.5273 21.0785C57.0948 22.5029 58.6529 23.946 60.2764 25.3051C61.2156 26.092 62.2046 26.9037 63.3087 27.3827C64.6305 27.958 65.5231 28.7511 65.9958 30.1009C67.047 33.1021 69.109 35.0956 71.9454 36.5449C74.4521 37.8232 76.7505 39.5119 79.1452 41.011C79.4936 41.2287 79.873 41.605 80.2182 41.5801C83.773 41.3344 85.5582 44.5596 88.4008 45.6854C88.9575 45.9063 89.5422 46.2142 90.1145 46.2142C122.658 46.2359 155.202 46.2204 187.746 46.2453C189.749 46.2453 191.808 46.2826 193.742 46.7242C197.132 47.4986 199.598 51.4266 198.961 54.8135C197.897 60.4583 196.793 66.1 195.577 71.7137C194.495 76.7085 191.727 84.28 186.605 84.2831C140.79 84.2955 94.9786 84.2893 49.1641 84.2986C46.7507 84.2986 46.3495 82.1216 45.0059 80.9646C45.0557 80.8153 45.1054 80.6692 45.1521 80.5199C45.998 80.5199 46.844 80.5199 47.6899 80.5199C93.3987 80.5261 139.108 80.4888 184.819 80.5976C190.194 80.6101 191.491 74.9761 192.498 68.7964C193.232 64.293 194.23 59.8332 195.151 55.364C195.702 52.6862 194.091 50.3568 191.385 50.0924C190.408 49.996 189.419 49.996 188.436 49.996C157.653 49.9991 126.869 50.0147 96.0858 49.9742C95.0222 49.9742 93.8466 49.629 92.9104 49.1065C89.7692 47.3524 86.7152 45.446 83.5429 43.5457C83.291 44.0309 83.0639 44.4725 82.7498 45.079C83.7015 45.4366 84.6159 45.785 85.5302 46.1302C87.2905 47.256 89.0539 48.3788 90.8173 49.5015ZM31.53 6.6882L31.4864 6.64465C32.208 8.27433 32.1582 9.89469 31.5362 11.5586C31.1972 12.4667 31.0292 13.4433 30.8333 14.4012C29.95 18.6807 29.1445 22.9788 28.2022 27.2458C27.0794 32.3121 25.8292 37.3473 24.6691 42.4043C24.3332 43.8723 24.1218 45.3682 23.8512 46.8766C26.0718 47.0445 28.0249 47.1907 30.0744 47.3462C30.2455 46.9419 30.5534 46.3479 30.7524 45.7165C31.8379 42.3048 32.917 38.8899 33.9589 35.4657C35.5451 30.2532 38.4623 25.4202 38.341 19.7225C38.226 14.311 38.2042 8.89635 38.086 3.48171C38.0487 1.80538 36.7984 1.08073 35.3989 0.679529C34.2077 0.337421 32.1178 1.41662 31.4895 2.69798C30.852 3.99799 30.2642 5.37264 31.53 6.6882ZM65.3116 32.1893C64.8171 29.9376 63.3989 28.5769 61.48 27.846C56.7247 26.0391 52.0222 24.0829 47.2607 22.2883C45.4351 21.601 43.5037 21.1936 41.5942 20.6524C41.053 23.7501 41.1277 23.9056 43.454 25.1776C48.7816 28.0855 54.1589 30.9126 59.4056 33.9605C60.9513 34.8562 62.4752 36.1717 63.402 37.6708C65.3987 40.8928 66.9911 44.3605 68.7762 47.7132C69.0033 48.1362 69.3703 48.7551 69.7217 48.7924C70.972 48.923 72.2471 48.8453 73.6373 48.8453C73.5347 48.4316 73.516 48.1206 73.3885 47.8656C71.8583 44.8457 70.1975 41.888 68.8198 38.8028C68.0734 37.1265 67.6815 36.5387 65.6226 36.3879C64.6709 36.5061 64.0676 35.6104 63.9121 34.4767C63.6848 32.8196 64.3786 33.2778 65.3116 32.1893ZM2.02155 78.8404C2.53471 78.8156 2.34811 77.3211 2.64045 77.3616C6.55293 77.9152 10.5089 78.279 14.3623 79.1219C20.682 80.3955 20.8748 81.0766 22.3926 84.2831C19.749 77.2854 24.4141 64.5341 27.6797 59.7135C26.7467 60.18 23.3691 66.6707 22.8591 67.3332C21.6959 68.854 21.161 69.4371 19.4691 68.9364C18.1504 68.5445 17.3387 68.9488 16.6793 70.0653C16.048 71.1414 15.3358 72.174 14.6609 73.2252C14.4992 73.1599 14.3343 73.0945 14.1726 73.0292C13.787 71.4431 14.9968 70.0684 15.0901 68.5258C13.6595 68.3144 12.291 68.0282 10.9133 67.9505C10.425 67.9225 9.77186 68.2864 9.43597 68.6813C8.72999 69.5055 8.18261 70.4665 7.56993 71.3716C7.36777 71.3063 7.16562 71.2409 6.96346 71.1725C7.11274 70 7.26203 68.8275 7.42375 67.5648C6.59647 67.3533 5.80651 67.1512 5.36488 67.0392C7.17495 64.178 8.95702 61.3602 10.736 58.5456C10.509 58.3621 10.285 58.1786 10.058 57.9951C9.85894 58.3652 9.63813 58.7229 9.46085 59.1023C8.2106 61.7801 5.9869 63.6648 4.12396 65.8636C1.27202 69.2287 0.765079 74.6014 2.02155 78.8404ZM50.8124 21.4611C48.8375 20.0304 46.8471 18.6153 44.8971 17.1505C44.471 16.8302 44.2782 15.8194 44.1631 15.3467C43.5597 12.8866 45.5626 16.0169 39.187 10.5743C39.187 13.2707 39.302 15.9842 39.302 18.5345C43.7401 17.4739 46.959 20.4316 50.8124 21.4611ZM70.1478 38.2555C71.4944 40.871 72.6607 43.1974 73.9047 45.4802C74.1038 45.8441 74.6481 46.2142 75.0524 46.2328C76.7754 46.3168 78.5045 46.267 80.1031 46.267C79.8357 43.9594 78.1935 43.0232 76.5545 42.0684C74.5205 40.8835 72.5114 39.6643 70.1478 38.2555ZM21.4751 57.849C23.649 56.6516 25.5306 55.675 27.3376 54.5803C27.7699 54.319 28.084 53.7094 28.2488 53.1932C28.4759 52.481 28.507 51.7097 28.6345 50.8979C28.0156 50.7642 27.3842 50.6305 26.7498 50.4905C25.7608 50.2728 24.7407 49.7783 23.7921 49.8934C22.4112 50.0644 22.9337 51.492 22.6507 52.3877C22.4952 52.8791 22.3428 53.3736 22.2371 53.8743C21.9789 55.1494 21.7457 56.4276 21.4751 57.849ZM30.0838 5.59346C29.9065 5.54369 29.7261 5.49082 29.5488 5.44106C29.3529 5.83292 29.1196 6.21236 28.9704 6.62289C27.7699 9.93823 26.6378 13.2816 25.3782 16.5751C23.9725 20.2606 22.4392 23.8994 21.0148 27.5786C20.9153 27.8367 21.2325 28.2597 21.3538 28.6049C21.6679 28.4401 22.1437 28.353 22.2619 28.098C22.5356 27.5133 22.5885 26.8259 22.8186 26.2133C25.0143 20.3756 27.2536 14.5505 29.4213 8.70042C29.7852 7.71764 29.8692 6.63222 30.0838 5.59346ZM22.8124 32.3121C22.6507 32.2624 22.489 32.2126 22.3272 32.1628C20.8686 36.688 19.4131 41.2132 17.9047 45.9031C18.7009 45.9716 19.242 46.0182 19.9045 46.0742C20.8904 41.4091 21.8514 36.8622 22.8124 32.3121ZM20.8997 49.0537C23.0737 49.2994 25.2009 49.5388 27.3314 49.7814C27.4278 49.2123 27.5522 48.4876 27.6797 47.7599C25.3969 47.6075 23.1856 47.4613 20.8997 47.3089C20.8997 47.878 20.8997 48.5187 20.8997 49.0537ZM18.1939 59.0116C18.3277 59.0116 19.3011 58.9968 19.438 58.9968C19.438 56.4745 19.127 50.4143 19.127 47.8952C18.9932 47.8952 18.7973 47.8952 18.6605 47.8952C18.6605 50.4143 18.1939 56.4893 18.1939 59.0116ZM16.2719 45.5953C16.4057 45.6419 16.5394 45.6854 16.6731 45.7321C18.2904 41.0048 19.9076 36.2775 21.5248 31.5533C21.4004 31.5097 21.276 31.4693 21.1516 31.4258C19.5251 36.1468 17.8985 40.871 16.2719 45.5953ZM77.8203 41.1727C81.3285 43.5457 86.1491 45.8346 78.0318 40.8275C74.5983 38.7095 71.1679 36.5916 67.7344 34.4767C67.6566 34.6074 67.5757 34.7349 67.498 34.8624C70.9377 36.9648 74.3806 39.0672 77.8203 41.1727ZM12.1542 58.8131C9.65368 61.9511 8.9197 65.8419 7.7783 69.5646C9.42042 66.0627 10.0207 62.116 12.1542 58.8131ZM12.4403 58.9872C12.7295 59.8518 12.3439 60.0027 14.7729 60.3355C15.1803 60.3915 20.5638 60.4257 20.993 60.3355C20.9588 60.1924 22.3521 59.1923 22.3179 59.0461C21.0459 58.8751 13.7901 59.1738 12.4403 58.9872ZM47.4504 15.3467C47.3913 15.4431 47.3354 15.5426 47.2763 15.639C48.8375 16.9701 50.3957 18.3012 51.9569 19.6323C51.4002 18.6682 50.6725 17.8969 49.8763 17.2096C49.105 16.5471 48.2622 15.9656 47.4504 15.3467ZM17.0743 65.3753C16.9841 65.3256 16.897 65.2789 16.8069 65.2323C16.076 67.4777 15.342 69.7263 14.6111 71.9718C14.748 72.0154 14.8879 72.062 15.0248 72.1055C15.709 69.8601 16.3901 67.6177 17.0743 65.3753ZM22.3179 58.8597C23.9009 57.7121 25.484 56.5645 27.2474 55.2863C24.9273 55.7341 23.8481 57.6344 22.3179 58.8597Z" fill="black"/>
<path d="M72.9002 72.9624H74.1442V78.0629H61.9527V72.9624H63.8188L63.3212 70.4743H59.0915L58.5938 72.9624H60.4599V78.0629H49.8234V72.9624H51.0675L56.3235 53.8665H67.6442L72.9002 72.9624ZM59.7757 67.1777H62.6369L61.3618 60.9886H61.0508L59.7757 67.1777Z" fill="black"/>
<path d="M78.5501 78.0629V72.9624H80.1051V58.967H78.5501V53.8665H91.6746V58.967H88.8133V72.9624H91.6124V70.1011H97.8015V78.0629H78.5501Z" fill="black"/>
<path d="M102.29 72.9624H103.845V58.967H102.29V53.8665H115.943C118.618 53.8665 120.66 54.4471 122.07 55.6082C123.48 56.7485 124.185 58.6042 124.185 61.1752C124.185 63.7462 123.48 65.6122 122.07 66.7733C120.66 67.9137 118.618 68.4839 115.943 68.4839H112.553V72.9624H115.539V78.0629H102.29V72.9624ZM113.611 64.0676C114.813 64.0676 115.414 63.4041 115.414 62.0771V60.9575C115.414 60.2733 115.259 59.7757 114.948 59.4647C114.658 59.1329 114.212 58.967 113.611 58.967H112.553V64.0676H113.611Z" fill="black"/>
<path d="M153.553 58.967H151.998V72.9624H153.553V78.0629H141.797V72.9624H143.289V67.8308H138.935V72.9624H140.428V78.0629H128.672V72.9624H130.227V58.967H128.672V53.8665H140.428V58.967H138.935V63.6944H143.289V58.967H141.797V53.8665H153.553V58.967Z" fill="black"/>
<path d="M181.041 72.9624H182.285V78.0629H170.093V72.9624H171.96L171.462 70.4743H167.232L166.735 72.9624H168.601V78.0629H157.964V72.9624H159.208L164.464 53.8665H175.785L181.041 72.9624ZM167.916 67.1777H170.778L169.503 60.9886H169.192L167.916 67.1777Z" fill="black"/>
<path d="M118.034 92.3693V91.0431H118.438V87.4043H118.034V86.0782H121.446V87.4043H120.702V91.0431H121.43V90.2992H123.039V92.3693H118.034Z" fill="black"/>
<path d="M124.044 92.3693V91.0431H124.449V87.4043H124.044V86.0782H127.117V87.4043H126.713V91.0431H127.117V92.3693H124.044Z" fill="black"/>
<path d="M130.674 92.4825C130.157 92.4825 129.666 92.4393 129.203 92.3531C128.744 92.2615 128.391 92.159 128.143 92.0458V90.4448H129.922C129.922 90.6119 129.96 90.7332 130.035 90.8086C130.111 90.8841 130.248 90.9218 130.448 90.9218C130.615 90.9218 130.734 90.8976 130.804 90.8491C130.879 90.7952 130.917 90.717 130.917 90.6146C130.917 90.5283 130.882 90.4555 130.812 90.3962C130.742 90.3316 130.62 90.2669 130.448 90.2022L129.752 89.9596C129.154 89.7332 128.723 89.4663 128.459 89.159C128.2 88.8518 128.071 88.4367 128.071 87.9138C128.071 87.2777 128.278 86.7952 128.693 86.4663C129.114 86.1321 129.812 85.965 130.788 85.965C131.257 85.965 131.696 86.0135 132.106 86.1105C132.521 86.2022 132.855 86.3262 133.108 86.4825V87.9299H131.491C131.491 87.6604 131.324 87.5256 130.99 87.5256C130.828 87.5256 130.712 87.5472 130.642 87.5903C130.577 87.6281 130.545 87.6981 130.545 87.8006C130.545 87.8922 130.583 87.965 130.658 88.0189C130.739 88.0728 130.868 88.1294 131.046 88.1887L131.75 88.4313C132.321 88.6254 132.736 88.8787 132.995 89.1914C133.259 89.4987 133.391 89.903 133.391 90.4043C133.391 91.089 133.159 91.6065 132.696 91.9569C132.238 92.3073 131.564 92.4825 130.674 92.4825Z" fill="black"/>
<path d="M140.376 88.0351H138.986V87.4043H138.468V91.0431H139.034V92.3693H135.638V91.0431H136.204V87.4043H135.686V88.0351H134.296V86.0782H140.376V88.0351Z" fill="black"/>
<path d="M141.381 92.3693V91.0431H141.786V87.4043H141.381V86.0782H144.454V87.4043H144.05V91.0431H144.454V92.3693H141.381Z" fill="black"/>
<path d="M150.162 86.0782H152.815V87.4043H152.41V92.3693H150.138L147.769 88.7224V91.0431H148.157V92.3693H145.505V91.0431H145.909V87.4043H145.505V86.0782H148.424L150.55 89.3208V87.4043H150.162V86.0782Z" fill="black"/>
<path d="M159.95 90.3477H159.545V91.965C159.308 92.0997 158.96 92.221 158.502 92.3288C158.049 92.4313 157.559 92.4825 157.031 92.4825C156.022 92.4825 155.233 92.2183 154.661 91.69C154.09 91.1563 153.804 90.3342 153.804 89.2237C153.804 88.0863 154.087 87.2588 154.653 86.7413C155.225 86.2238 156.039 85.965 157.095 85.965C157.607 85.965 158.087 86.0189 158.535 86.1267C158.982 86.2345 159.319 86.3558 159.545 86.4906V88.4232H157.524V88.0432C157.524 87.8167 157.475 87.655 157.378 87.558C157.287 87.4556 157.138 87.4043 156.933 87.4043C156.729 87.4043 156.578 87.4556 156.481 87.558C156.389 87.655 156.343 87.8167 156.343 88.0432V90.4043C156.343 90.6307 156.389 90.7952 156.481 90.8976C156.578 90.9946 156.729 91.0431 156.933 91.0431C157.138 91.0431 157.287 90.9946 157.378 90.8976C157.475 90.7952 157.524 90.6307 157.524 90.4043V90.3477H157.087V89.1429H159.95V90.3477Z" fill="black"/>
<path d="M163.412 92.4825C162.895 92.4825 162.404 92.4393 161.941 92.3531C161.482 92.2615 161.129 92.159 160.881 92.0458V90.4448H162.66C162.66 90.6119 162.698 90.7332 162.774 90.8086C162.849 90.8841 162.986 90.9218 163.186 90.9218C163.353 90.9218 163.472 90.8976 163.542 90.8491C163.617 90.7952 163.655 90.717 163.655 90.6146C163.655 90.5283 163.62 90.4555 163.55 90.3962C163.48 90.3316 163.358 90.2669 163.186 90.2022L162.491 89.9596C161.892 89.7332 161.461 89.4663 161.197 89.159C160.938 88.8518 160.809 88.4367 160.809 87.9138C160.809 87.2777 161.016 86.7952 161.431 86.4663C161.852 86.1321 162.55 85.965 163.526 85.965C163.995 85.965 164.434 86.0135 164.844 86.1105C165.259 86.2022 165.593 86.3262 165.846 86.4825V87.9299H164.229C164.229 87.6604 164.062 87.5256 163.728 87.5256C163.566 87.5256 163.45 87.5472 163.38 87.5903C163.315 87.6281 163.283 87.6981 163.283 87.8006C163.283 87.8922 163.321 87.965 163.396 88.0189C163.477 88.0728 163.606 88.1294 163.784 88.1887L164.488 88.4313C165.059 88.6254 165.474 88.8787 165.733 89.1914C165.997 89.4987 166.129 89.903 166.129 90.4043C166.129 91.089 165.898 91.6065 165.434 91.9569C164.976 92.3073 164.302 92.4825 163.412 92.4825Z" fill="black"/>
<path fill-rule="evenodd" clip-rule="evenodd" d="M88.0183 47.3104C86.488 46.3361 85.309 45.6452 83.8716 44.7459C83.6427 44.6026 83.7395 44.3367 83.9721 44.4741C85.6252 45.4163 89.1271 47.361 91.4981 48.9073C91.7961 49.1016 91.6087 49.451 91.296 49.2815C90.5835 48.8954 89.5528 48.2874 88.0183 47.3104Z" fill="black"/>
<path fill-rule="evenodd" clip-rule="evenodd" d="M1.84418 75.7413C1.90016 74.9327 1.93748 74.3978 1.98102 73.7571C7.90261 74.6155 13.6625 75.4521 19.5001 76.3011C19.5374 76.9107 19.5685 77.4083 19.6214 78.2885C13.6251 77.427 7.78753 76.5904 1.84418 75.7413Z" fill="black"/>
<path d="M50.234 92.3693V91.0431H50.6383V87.4043H50.234V86.0782H55.6921V88.5202H53.8808V87.4043H52.9024V88.682H53.614V89.6038H52.9024V91.0431H53.8808V89.7655H55.6921V92.3693H50.234Z" fill="black"/>
<path d="M62.985 93C61.8422 93 60.9257 92.965 60.2357 92.8949C59.5511 92.8248 58.9608 92.6739 58.4648 92.442C57.9689 92.2156 57.5538 91.8733 57.2195 91.4151C56.8584 90.8922 56.6778 90.1617 56.6778 89.2237C56.6778 88.1294 56.9473 87.3127 57.4864 86.7736C58.0309 86.2345 58.791 85.965 59.7667 85.965C60.737 85.965 61.4944 86.2049 62.0389 86.6847C62.5834 87.1591 62.8556 87.8706 62.8556 88.8194C62.8556 89.2291 62.7882 89.6146 62.6535 89.9757C62.5241 90.3315 62.2977 90.6604 61.9742 90.9623L62.0147 91.0431H62.985V93ZM59.7667 91.0431C60.1333 91.0431 60.3166 90.8437 60.3166 90.4448V88.0027C60.3166 87.6038 60.1333 87.4043 59.7667 87.4043C59.4001 87.4043 59.2168 87.6038 59.2168 88.0027V90.4448C59.2168 90.8437 59.4001 91.0431 59.7667 91.0431Z" fill="black"/>
<path d="M67.0246 92.4825C66.1783 92.4825 65.5233 92.2965 65.0597 91.9245C64.6015 91.5526 64.3724 90.9488 64.3724 90.1132V87.4043H63.968V86.0782H66.9599V87.4043H66.6365V90.5256C66.6365 90.7035 66.6742 90.8356 66.7497 90.9218C66.8306 91.0027 66.9492 91.0431 67.1055 91.0431C67.2618 91.0431 67.3777 91.0027 67.4532 90.9218C67.5341 90.8356 67.5745 90.7035 67.5745 90.5256V87.4043H67.251V86.0782H70.0246V87.4043H69.6203V90.1132C69.6203 90.9488 69.3966 91.5526 68.9491 91.9245C68.5017 92.2965 67.8602 92.4825 67.0246 92.4825Z" fill="black"/>
<path d="M71.0455 92.3693V91.0431H71.4498V87.4043H71.0455V86.0782H74.1182V87.4043H73.7139V91.0431H74.1182V92.3693H71.0455Z" fill="black"/>
<path d="M75.1688 91.0431H75.5731V87.4043H75.1688V86.0782H78.7187C79.4141 86.0782 79.9451 86.2291 80.3117 86.531C80.6782 86.8275 80.8615 87.31 80.8615 87.9785C80.8615 88.6469 80.6782 89.1321 80.3117 89.434C79.9451 89.7305 79.4141 89.8787 78.7187 89.8787H77.8373V91.0431H78.6135V92.3693H75.1688V91.0431ZM78.1122 88.7305C78.4249 88.7305 78.5812 88.558 78.5812 88.213V87.9219C78.5812 87.744 78.5408 87.6146 78.4599 87.5337C78.3844 87.4475 78.2685 87.4043 78.1122 87.4043H77.8373V88.7305H78.1122Z" fill="black"/>
<path d="M90.7856 87.4043H90.3812V91.0431H90.7856V92.3693H87.729V91.0431H88.1171V88.213L86.7425 92.3693H85.5457L84.1306 88.2534V91.0431H84.5187V92.3693H81.8665V91.0431H82.2708V87.4043H81.8665V86.0782H85.5699L86.4109 88.6011L87.2195 86.0782H90.7856V87.4043Z" fill="black"/>
<path d="M91.8333 92.3693V91.0431H92.2376V87.4043H91.8333V86.0782H97.2915V88.5202H95.4802V87.4043H94.5018V88.682H95.2134V89.6038H94.5018V91.0431H95.4802V89.7655H97.2915V92.3693H91.8333Z" fill="black"/>
<path d="M102.983 86.0782H105.636V87.4043H105.231V92.3693H102.959L100.59 88.7224V91.0431H100.978V92.3693H98.3257V91.0431H98.73V87.4043H98.3257V86.0782H101.245L103.371 89.3208V87.4043H102.983V86.0782Z" fill="black"/>
<path d="M112.706 88.0351H111.315V87.4043H110.798V91.0431H111.364V92.3693H107.968V91.0431H108.534V87.4043H108.016V88.0351H106.625V86.0782H112.706V88.0351Z" fill="black"/>
<circle cx="33.2792" cy="4.04286" r="0.994031" fill="#F5B03A" stroke="black" stroke-width="0.5"/>
<circle cx="34.0564" cy="4.19796" r="0.466512" fill="black"/>
<path d="M38.0964 7.77521L45.4533 13.7087C45.6549 13.8713 45.6858 14.167 45.5221 14.3678C45.3601 14.5666 45.0681 14.5977 44.8678 14.4374L38.0964 9.01925L38.0964 7.77521Z" fill="white"/>
<path d="M38.1406 8.08594L45.6449 14.2019C45.7115 14.2562 45.7215 14.3541 45.6672 14.4207C45.6129 14.4873 45.515 14.4972 45.4484 14.443L37.9441 8.32702L38.1406 8.08594Z" fill="black"/>
<circle cx="66.4034" cy="34.3673" r="1.39953" fill="white"/>
<circle cx="66.3986" cy="34.3664" r="0.777519" fill="black"/>
</svg>
