<svg width="28" height="28" viewBox="0 0 28 28" fill="none" xmlns="http://www.w3.org/2000/svg">
<path d="M27.9728 12.4889C27.818 8.02294 26.6463 4.42669 23.9986 2.46319C21.3508 0.499694 17.3722 -0.180181 12.3733 0.0569438C10.0992 0.166319 8.05259 0.462944 6.38921 1.12794C4.67596 1.81569 3.34946 2.78694 2.37909 4.13619C0.428712 6.84782 -0.173288 10.9446 0.0410873 15.6617C0.245837 20.1417 1.40346 23.6872 4.08359 25.6192C6.74971 27.5424 11.0792 28.1532 15.6458 27.9572C20.076 27.7699 23.6757 26.5992 25.6033 23.9147C27.5266 21.2346 28.1373 17.2839 27.9728 12.4898V12.4889ZM7.70171 17.2332H7.12334V15.9933H7.70171C8.80421 15.9933 9.61096 15.1411 9.61096 14.0841C9.61108 13.8333 9.56177 13.585 9.46586 13.3533C9.36996 13.1216 9.22933 12.9111 9.05201 12.7338C8.8747 12.5565 8.66418 12.4158 8.43249 12.3199C8.20079 12.224 7.95247 12.1747 7.70171 12.1748H5.83796C5.80506 12.1748 5.77304 12.1855 5.74669 12.2052C5.72035 12.2249 5.7011 12.2526 5.69184 12.2842V19.0514H4.48871V12.2842C4.48871 11.5413 5.09509 10.9349 5.83796 10.9349H7.70171C9.44296 10.9349 10.8823 12.3481 10.8823 14.0841C10.8823 15.8253 9.53834 17.2332 7.70171 17.2332ZM17.8552 17.2332H16.6381V13.9931C16.611 13.0769 15.6397 12.1652 14.6055 12.1652C13.4435 12.1652 12.5912 13.1583 12.5912 14.0841C12.5912 15.4009 13.5161 16.0029 14.6055 16.0029H15.0386V17.2332H14.6055C12.8143 17.2332 11.3557 16.0843 11.3557 14.0841C11.3557 12.4574 12.8143 10.9349 14.6055 10.9349C16.2277 10.9349 17.8045 12.2973 17.8552 13.9931V17.2332ZM19.4005 11.1441L20.9868 14.3982L20.2991 15.7973L18.025 11.1441H19.4005ZM20.8722 19.2746H19.4915L23.4885 11.1441H24.8692L20.8722 19.2746Z" fill="#333333"/>
</svg>
