<svg width="90" height="90" viewBox="0 0 90 90" fill="none" xmlns="http://www.w3.org/2000/svg">
<path d="M64.5022 0C79.754 0 90 10.7015 90 26.6252V63.3748C90 79.2985 79.754 90 64.4977 90H25.4978C10.246 90 0 79.2985 0 63.3748V26.6252C0 10.7015 10.246 0 25.4978 0H64.5022ZM69.4647 47.4752C64.6409 44.4659 60.9168 48.6919 59.9122 50.0433C58.9438 51.3483 58.1112 52.7879 57.2333 54.2276C55.0884 57.7802 52.6313 61.8762 48.3777 64.2585C42.1964 67.6811 37.5039 64.5279 34.1282 62.2337C32.8612 61.3793 31.6303 60.5712 30.404 60.0325C27.3813 58.7276 24.6617 60.2136 20.6253 65.3406C18.5076 68.0201 16.4079 70.6765 14.2811 73.3235C13.0096 74.9071 13.3128 77.3498 15.0278 78.4087C17.7655 80.0944 21.105 81 24.8789 81H62.8037C64.9441 81 67.089 80.7074 69.1343 80.0387C73.7409 78.534 77.3972 75.0882 79.3067 70.5372C80.9177 66.7105 81.7005 62.0666 80.1937 58.2028C79.6914 56.9211 78.9402 55.7276 77.8859 54.678C75.121 51.9334 72.5372 49.37 69.4647 47.4752ZM29.2449 18C23.041 18 18 23.0478 18 29.25C18 35.4522 23.041 40.5 29.2449 40.5C35.4442 40.5 40.4897 35.4522 40.4897 29.25C40.4897 23.0478 35.4442 18 29.2449 18Z" fill="#A4A4A4"/>
</svg>
