<svg width="477" height="318" viewBox="0 0 477 318" fill="none" xmlns="http://www.w3.org/2000/svg">
<path d="M435.025 273.099C435.025 273.099 452.197 241.935 451.561 191.055C450.925 140.175 420.397 92.4753 382.873 79.1193C345.349 65.7633 312.277 82.9353 267.757 84.8433C223.237 86.7513 197.161 30.7833 133.561 57.4953C69.9615 84.2073 69.9615 138.267 80.7735 164.343C91.5855 190.419 111.938 203.139 89.6775 221.583C67.4175 240.027 45.7935 251.475 39.4335 258.471C35.6737 262.526 33.234 267.627 32.4375 273.099H435.025Z" fill="#F18805"/>
<path opacity="0.7" d="M435.025 273.099C435.025 273.099 452.197 241.935 451.561 191.055C450.925 140.175 420.397 92.4753 382.873 79.1193C345.349 65.7633 312.277 82.9353 267.757 84.8433C223.237 86.7513 197.161 30.7833 133.561 57.4953C69.9615 84.2073 69.9615 138.267 80.7735 164.343C91.5855 190.419 111.938 203.139 89.6775 221.583C67.4175 240.027 45.7935 251.475 39.4335 258.471C35.6737 262.526 33.234 267.627 32.4375 273.099H435.025Z" fill="white"/>
<g opacity="0.2">
<path d="M155.182 48.6562C152.103 48.6588 149.095 49.5737 146.537 51.2854C143.978 52.9972 141.985 55.4289 140.808 58.2733C139.631 61.1177 139.324 64.2471 139.925 67.2661C140.526 70.285 142.009 73.058 144.185 75.2347C146.362 77.4113 149.135 78.8939 152.154 79.495C155.173 80.0962 158.302 79.7889 161.147 78.6121C163.991 77.4353 166.423 75.4417 168.134 72.8833C169.846 70.3249 170.761 67.3165 170.764 64.2383C170.764 60.1056 169.122 56.1423 166.2 53.2201C163.278 50.2979 159.314 48.6562 155.182 48.6562ZM156.765 73.7337V75.2347H154.126V73.7337C151.804 73.2695 150.634 71.4759 150.634 68.6903V67.2847H153.687V68.8938C153.687 70.3629 154.323 70.8908 155.36 70.8908C156.396 70.8908 157.032 70.3629 157.032 68.8938C157.032 64.6707 150.723 64.4418 150.723 58.5969C150.723 55.8367 151.868 54.0813 154.126 53.5789V52.0525H156.765V53.5789C159.055 54.0495 160.225 55.8112 160.225 58.5969V59.2329H157.179V58.3934C157.179 56.9242 156.587 56.3646 155.563 56.3646C154.539 56.3646 153.948 56.9242 153.948 58.3934C153.948 62.6164 160.257 62.8454 160.257 68.6903C160.27 71.4759 159.068 73.2695 156.778 73.7337H156.765Z" stroke="black" stroke-linecap="round" stroke-linejoin="round"/>
<path d="M155.183 42.4063C150.867 42.405 146.647 43.6839 143.057 46.0811C139.468 48.4784 136.67 51.8863 135.018 55.8739C133.365 59.8614 132.933 64.2495 133.774 68.4829C134.616 72.7164 136.695 76.6052 139.747 79.6573C142.799 82.7094 146.688 84.7878 150.921 85.6296C155.155 86.4714 159.543 86.0387 163.53 84.3863C167.518 82.7339 170.926 79.9361 173.323 76.3466C175.72 72.7572 176.999 68.5374 176.998 64.2211C176.998 58.4354 174.699 52.8867 170.608 48.7957C166.517 44.7046 160.969 42.4063 155.183 42.4063V42.4063ZM155.183 82.1435C151.638 82.141 148.173 81.0873 145.227 79.1155C142.281 77.1438 139.986 74.3427 138.632 71.0665C137.278 67.7902 136.926 64.186 137.621 60.7097C138.315 57.2334 140.025 54.0412 142.534 51.5367C145.043 49.0322 148.238 47.3281 151.716 46.6397C155.193 45.9513 158.797 46.3097 162.071 47.6695C165.344 49.0294 168.141 51.3295 170.108 54.2791C172.074 57.2286 173.122 60.6951 173.118 64.2401C173.108 68.9908 171.214 73.5436 167.852 76.8998C164.49 80.2561 159.934 82.1419 155.183 82.1435Z" stroke="black" stroke-linecap="round" stroke-linejoin="round"/>
</g>
<g opacity="0.2">
<path d="M284.863 51.4766C282.611 51.4766 280.408 52.1446 278.535 53.3963C276.662 54.6479 275.202 56.4269 274.34 58.5083C273.478 60.5897 273.252 62.88 273.692 65.0895C274.131 67.2991 275.216 69.3288 276.809 70.9218C278.402 72.5148 280.432 73.5997 282.641 74.0392C284.851 74.4787 287.141 74.2532 289.222 73.391C291.304 72.5289 293.083 71.0689 294.334 69.1957C295.586 67.3225 296.254 65.1202 296.254 62.8673C296.251 59.8473 295.05 56.952 292.914 54.8166C290.779 52.6811 287.883 51.4799 284.863 51.4766V51.4766ZM286.021 69.8315V70.9254H284.113V69.8315C282.415 69.4881 281.569 68.1779 281.569 66.1364V65.106H283.801V66.289C283.801 67.3638 284.278 67.7454 285.029 67.7454C285.779 67.7454 286.25 67.3638 286.25 66.289C286.25 63.198 281.633 63.0454 281.633 58.7524C281.633 56.7363 282.472 55.4452 284.126 55.0827V53.9633H286.034V55.0827C287.706 55.4261 288.578 56.7108 288.578 58.7524V59.223H286.345V58.587C286.345 57.5186 285.919 57.1052 285.162 57.1052C284.405 57.1052 283.986 57.5186 283.986 58.587C283.986 61.678 288.603 61.8306 288.603 66.1236C288.578 68.1779 287.694 69.4881 286.021 69.8315V69.8315Z" stroke="black" stroke-linecap="round" stroke-linejoin="round"/>
<path d="M284.862 46.9062C281.705 46.9062 278.618 47.8425 275.993 49.5966C273.368 51.3507 271.322 53.8439 270.114 56.7608C268.905 59.6778 268.589 62.8876 269.205 65.9842C269.821 69.0808 271.342 71.9253 273.574 74.1578C275.807 76.3904 278.651 77.9108 281.748 78.5267C284.844 79.1427 288.054 78.8265 290.971 77.6183C293.888 76.41 296.381 74.364 298.135 71.7388C299.889 69.1136 300.826 66.0272 300.826 62.8698C300.826 58.636 299.144 54.5756 296.15 51.5819C293.156 48.5881 289.096 46.9063 284.862 46.9062V46.9062ZM284.862 75.9842C282.268 75.9842 279.733 75.215 277.576 73.774C275.419 72.333 273.739 70.2848 272.746 67.8885C271.753 65.4922 271.494 62.8553 272 60.3114C272.506 57.7674 273.755 55.4307 275.589 53.5966C277.423 51.7626 279.76 50.5135 282.304 50.0075C284.847 49.5015 287.484 49.7612 289.881 50.7538C292.277 51.7464 294.325 53.4273 295.766 55.5839C297.207 57.7406 297.976 60.2761 297.976 62.8698C297.973 66.347 296.59 69.6807 294.132 72.1394C291.673 74.598 288.339 75.9808 284.862 75.9842V75.9842Z" stroke="black" stroke-linecap="round" stroke-linejoin="round"/>
</g>
<g opacity="0.2">
<path d="M46.9845 152.461C44.7316 152.461 42.5293 153.129 40.6561 154.381C38.7829 155.632 37.323 157.411 36.4608 159.493C35.5987 161.574 35.3731 163.864 35.8126 166.074C36.2521 168.284 37.337 170.313 38.93 171.906C40.5231 173.499 42.5527 174.584 44.7623 175.024C46.9719 175.463 49.2622 175.238 51.3436 174.375C53.425 173.513 55.204 172.053 56.4556 170.18C57.7072 168.307 58.3753 166.105 58.3753 163.852C58.3719 160.832 57.1707 157.936 55.0353 155.801C52.8998 153.665 50.0045 152.464 46.9845 152.461V152.461ZM48.142 170.816V171.91H46.234V170.816C44.5359 170.472 43.69 169.162 43.69 167.121V166.09H45.9224V167.273C45.9224 168.348 46.393 168.736 47.1499 168.736C47.9067 168.736 48.3328 168.348 48.3328 167.273C48.3328 164.182 43.7155 164.03 43.7155 159.737C43.7155 157.721 44.555 156.43 46.2086 156.067V154.948H48.1166V156.067C49.7893 156.41 50.6606 157.695 50.6606 159.737V160.207H48.441V159.571C48.441 158.503 48.0085 158.096 47.258 158.096C46.5075 158.096 46.0814 158.503 46.0814 159.571C46.0814 162.669 50.6924 162.815 50.6924 167.108C50.6924 169.181 49.8147 170.453 48.142 170.816V170.816Z" stroke="black" stroke-linecap="round" stroke-linejoin="round"/>
<path d="M46.986 147.891C43.8293 147.893 40.7441 148.832 38.1206 150.587C35.4971 152.343 33.453 154.837 32.2467 157.754C31.0404 160.671 30.7261 163.881 31.3435 166.976C31.9608 170.072 33.4822 172.915 35.7153 175.147C37.9483 177.378 40.7928 178.897 43.8891 179.512C46.9854 180.127 50.1945 179.81 53.1107 178.601C56.0269 177.393 58.5194 175.347 60.2729 172.722C62.0264 170.097 62.9624 167.011 62.9624 163.854C62.9615 161.757 62.5476 159.681 61.7443 157.743C60.941 155.806 59.7639 154.046 58.2804 152.564C56.7968 151.081 55.0359 149.906 53.098 149.104C51.1601 148.302 49.0833 147.89 46.986 147.891V147.891ZM46.986 176.969C44.3923 176.969 41.8568 176.199 39.7001 174.758C37.5435 173.317 35.8626 171.269 34.87 168.873C33.8774 166.477 33.6177 163.84 34.1237 161.296C34.6297 158.752 35.8787 156.415 37.7128 154.581C39.5469 152.747 41.8836 151.498 44.4276 150.992C46.9715 150.486 49.6084 150.746 52.0047 151.738C54.401 152.731 56.4492 154.412 57.8902 156.568C59.3312 158.725 60.1004 161.26 60.1004 163.854C60.097 167.331 58.7142 170.665 56.2556 173.124C53.7969 175.582 50.4631 176.965 46.986 176.969V176.969Z" stroke="black" stroke-linecap="round" stroke-linejoin="round"/>
</g>
<g opacity="0.2">
<path d="M434.656 139.797C432.404 139.797 430.201 140.465 428.328 141.717C426.455 142.968 424.995 144.747 424.133 146.829C423.271 148.91 423.045 151.2 423.485 153.41C423.924 155.619 425.009 157.649 426.602 159.242C428.195 160.835 430.225 161.92 432.434 162.36C434.644 162.799 436.934 162.573 439.015 161.711C441.097 160.849 442.876 159.389 444.127 157.516C445.379 155.643 446.047 153.441 446.047 151.188C446.044 148.168 444.843 145.272 442.707 143.137C440.572 141.001 437.676 139.8 434.656 139.797ZM435.814 158.152V159.246H433.906V158.152C432.214 157.808 431.362 156.498 431.362 154.457V153.426H433.594V154.609C433.594 155.678 434.065 156.066 434.815 156.066C435.566 156.066 436.037 155.678 436.037 154.609C436.037 151.512 431.426 151.366 431.426 147.073C431.426 145.05 432.259 143.766 433.912 143.397V142.284H435.82V143.397C437.493 143.74 438.364 145.031 438.364 147.073V147.556H436.132V146.92C436.132 145.845 435.706 145.438 434.955 145.438C434.205 145.438 433.753 145.845 433.753 146.92C433.753 150.011 438.371 150.164 438.371 154.457C438.371 156.498 437.487 157.808 435.814 158.152V158.152Z" stroke="black" stroke-linecap="round" stroke-linejoin="round"/>
<path d="M434.655 135.227C431.498 135.227 428.411 136.163 425.786 137.917C423.161 139.671 421.115 142.164 419.907 145.081C418.698 147.998 418.382 151.208 418.998 154.305C419.614 157.401 421.134 160.246 423.367 162.478C425.6 164.711 428.444 166.231 431.541 166.847C434.637 167.463 437.847 167.147 440.764 165.939C443.681 164.73 446.174 162.684 447.928 160.059C449.682 157.434 450.619 154.347 450.619 151.19C450.619 149.094 450.206 147.018 449.403 145.081C448.601 143.144 447.425 141.385 445.943 139.902C444.461 138.42 442.701 137.244 440.764 136.442C438.827 135.639 436.751 135.227 434.655 135.227V135.227ZM434.655 164.304C432.06 164.31 429.522 163.545 427.362 162.107C425.202 160.669 423.517 158.622 422.521 156.226C421.524 153.831 421.261 151.193 421.764 148.647C422.267 146.102 423.514 143.763 425.347 141.926C427.18 140.089 429.517 138.838 432.062 138.33C434.606 137.822 437.244 138.08 439.642 139.072C442.04 140.064 444.09 141.744 445.532 143.902C446.974 146.059 447.744 148.595 447.744 151.19C447.741 154.663 446.361 157.993 443.908 160.451C441.455 162.909 438.128 164.294 434.655 164.304V164.304Z" stroke="black" stroke-linecap="round" stroke-linejoin="round"/>
</g>
<path d="M20.9883 273.422H444.564" stroke="#263238" stroke-linecap="round" stroke-linejoin="round"/>
<path d="M46.2292 217.505C48.1372 218.325 52.71 218.217 52.7164 218.217C52.7228 218.217 51.7242 215.209 51.6352 215.037C50.6303 212.926 47.4376 209.44 44.8364 209.79C44.4071 209.861 43.9976 210.021 43.6344 210.261C43.2711 210.5 42.9622 210.813 42.7277 211.179C42.4933 211.546 42.3384 211.957 42.2733 212.388C42.2081 212.818 42.2341 213.257 42.3496 213.676C42.7821 215.431 44.6265 216.767 46.2292 217.505Z" fill="#F18805"/>
<path d="M47.8202 230.799C49.7664 231.078 53.8749 229.889 54.1802 229.794C54.8564 232.143 55.6893 234.444 56.6733 236.682C57.233 237.992 57.8436 239.289 58.4732 240.587C58.098 240.04 57.7609 239.55 57.7037 239.486C56.1709 237.718 52.1768 235.193 49.76 236.224C49.3645 236.405 49.0114 236.667 48.7239 236.993C48.4363 237.319 48.2207 237.703 48.0912 238.118C47.9616 238.533 47.9209 238.971 47.9717 239.403C48.0226 239.835 48.1638 240.251 48.3863 240.625C49.2767 242.247 51.4136 243.048 53.1435 243.302C54.8735 243.557 58.416 242.615 59.3445 242.348L60.0823 243.837C61.2716 246.203 62.4673 248.556 63.5676 250.909C63.9555 251.736 64.3117 252.563 64.6679 253.389C64.3308 252.906 64.0319 252.499 64.0319 252.442C62.4991 250.667 58.4987 248.149 56.0882 249.173C55.6908 249.352 55.3358 249.614 55.0462 249.94C54.7567 250.266 54.5391 250.65 54.4077 251.065C54.2762 251.481 54.2339 251.92 54.2835 252.353C54.3331 252.787 54.4734 253.205 54.6954 253.58C55.5858 255.202 57.7164 256.003 59.4463 256.258C61.1762 256.512 64.3817 255.653 65.4883 255.348C65.8254 256.207 66.1625 257.072 66.455 257.892C66.6395 258.477 66.8557 259.024 67.0083 259.622C67.161 260.22 67.3391 260.786 67.4981 261.365C67.7652 262.484 68.0514 263.635 68.2867 264.736C68.4521 265.499 68.5983 266.23 68.751 266.962C68.3757 266.135 67.5998 264.532 67.5171 264.418C66.2451 262.433 62.7026 259.33 60.165 259.966C59.7462 260.085 59.3572 260.291 59.0232 260.57C58.6892 260.849 58.4178 261.196 58.2264 261.587C58.0351 261.978 57.9281 262.405 57.9126 262.84C57.897 263.275 57.9732 263.709 58.1361 264.112C58.7721 265.849 60.7628 266.968 62.4291 267.477C64.2735 268.043 68.3439 267.528 68.8527 267.477C69.1008 268.698 69.3234 269.881 69.4887 271.007C69.635 271.84 69.7686 272.635 69.8894 273.404H71.5239C71.3713 272.546 71.1996 271.655 71.0151 270.72C70.7735 269.48 70.4873 268.176 70.182 266.815C71.4095 266.324 72.6072 265.761 73.769 265.13C75.111 266.586 78.5454 268.31 78.9906 268.501C78.5263 269.652 78.0557 270.765 77.5977 271.808C77.3624 272.361 77.1271 272.883 76.8918 273.404H78.6217L79.0287 272.412C79.5121 271.248 80.0018 269.989 80.4915 268.698C80.9813 268.8 85.0199 269.62 86.8961 269.194C88.6005 268.812 90.6675 267.846 91.4307 266.16C91.6224 265.77 91.7301 265.343 91.7467 264.909C91.7634 264.474 91.6887 264.041 91.5274 263.637C91.3662 263.233 91.122 262.867 90.8107 262.564C90.4993 262.26 90.1278 262.025 89.7199 261.874C87.2331 261.04 83.4426 263.858 82.0879 265.74C82.0052 265.855 81.2484 267.159 80.7841 267.992C80.9813 267.458 81.1784 266.949 81.3756 266.402C81.7763 265.321 82.1388 264.227 82.5331 263.057C82.7048 262.484 82.8765 261.905 83.0546 261.327C83.2327 260.748 83.3599 260.118 83.5189 259.508C83.856 258.089 84.1549 256.633 84.3711 255.164C85.3188 255.507 88.7023 256.684 90.4513 256.563C92.2003 256.442 94.3818 255.8 95.393 254.248C95.6436 253.892 95.8162 253.486 95.8995 253.059C95.9828 252.631 95.975 252.191 95.8765 251.767C95.7781 251.342 95.5913 250.943 95.3282 250.596C95.0652 250.249 94.7318 249.961 94.35 249.751C92.0222 248.549 87.8437 250.769 86.1901 252.416C86.082 252.518 85.0262 253.841 84.4602 254.572C84.6001 253.688 84.74 252.804 84.8545 251.907C85.1789 249.306 85.4205 246.667 85.6813 244.034C85.7576 243.226 85.8467 242.425 85.9293 241.623C86.2664 241.744 90.2541 243.232 92.2194 243.093C93.962 242.972 96.1499 242.329 97.1547 240.777C97.4052 240.422 97.5777 240.017 97.661 239.59C97.7442 239.163 97.7364 238.723 97.6379 238.299C97.5394 237.875 97.3526 237.477 97.0896 237.13C96.8266 236.784 96.4934 236.496 96.1117 236.287C93.7839 235.085 89.6118 237.299 87.9518 238.946C87.8246 239.073 86.3046 240.975 85.9421 241.49C86.1329 239.722 86.3364 237.96 86.5781 236.23C86.9306 233.893 87.4363 231.581 88.0917 229.31C88.2444 229.368 92.4038 230.939 94.4136 230.799C96.1562 230.671 98.3441 230.035 99.3553 228.484C99.6049 228.127 99.7766 227.722 99.8594 227.294C99.9422 226.867 99.9341 226.427 99.8357 226.003C99.7374 225.579 99.5509 225.18 99.2884 224.833C99.026 224.486 98.6934 224.197 98.3123 223.987C95.9781 222.785 91.806 224.998 90.146 226.652C90.0188 226.779 88.3843 228.827 88.1172 229.196C88.1553 229.062 88.1808 228.922 88.2189 228.795C88.9359 226.534 89.8532 224.342 90.9601 222.244C91.5579 221.081 92.1939 219.999 92.8681 218.956C93.6122 219.332 97.0275 220.991 98.8529 221.061C100.678 221.131 102.841 220.737 104.017 219.306C104.305 218.979 104.52 218.595 104.65 218.179C104.78 217.764 104.82 217.325 104.769 216.893C104.718 216.46 104.577 216.043 104.354 215.669C104.131 215.295 103.832 214.972 103.477 214.721C101.289 213.27 96.9003 215.013 95.0687 216.476C94.9669 216.552 94.0447 217.474 93.3833 218.149C93.6822 217.684 93.9747 217.201 94.2673 216.762C95.3676 215.115 96.4742 213.665 97.4473 212.399C98.0197 211.68 98.5476 211.038 99.0437 210.447C99.9659 210.447 103.674 210.319 105.296 209.556C106.917 208.793 108.685 207.432 109.073 205.619C109.177 205.197 109.191 204.757 109.114 204.329C109.037 203.901 108.871 203.493 108.626 203.133C108.381 202.774 108.064 202.469 107.694 202.24C107.324 202.011 106.91 201.862 106.479 201.803C103.871 201.517 100.755 205.091 99.8259 207.228C99.7433 207.413 98.7829 210.453 98.8338 210.453H98.891C98.3949 211.019 97.8734 211.623 97.3137 212.297C96.2961 213.569 95.1577 214.975 94.0193 216.603C92.7789 218.352 91.6386 220.169 90.6039 222.047C89.4368 224.148 88.4598 226.349 87.6847 228.623C87.6875 228.651 87.6875 228.679 87.6847 228.706C87.6847 227.937 87.6847 225.787 87.6465 225.622C87.3413 223.307 85.4015 218.994 82.8193 218.517C82.3891 218.45 81.9494 218.474 81.5291 218.588C81.1088 218.702 80.7172 218.903 80.3799 219.178C80.0426 219.454 79.7672 219.797 79.5716 220.187C79.376 220.576 79.2648 221.002 79.245 221.437C79.0923 223.281 80.4279 225.125 81.7317 226.289C83.2009 227.606 87.284 228.878 87.6084 228.973C86.8789 231.307 86.3031 233.687 85.8848 236.097C85.6368 237.496 85.4269 238.92 85.2488 240.345C85.2488 239.677 85.2488 239.073 85.217 239.003C84.9117 236.682 82.9656 232.376 80.3898 231.899C79.9596 231.831 79.5199 231.855 79.0996 231.969C78.6792 232.083 78.2876 232.284 77.9503 232.56C77.613 232.835 77.3376 233.179 77.1421 233.568C76.9465 233.957 76.8352 234.383 76.8155 234.818C76.6628 236.656 77.9984 238.507 79.3022 239.671C80.606 240.835 84.0849 242.005 85.0262 242.298C84.9626 242.844 84.8863 243.391 84.8227 243.938C84.5047 246.571 84.1867 249.198 83.8305 251.761C83.697 252.671 83.538 253.555 83.3726 254.439C83.3726 253.854 83.3726 253.351 83.3726 253.281C83.0737 250.96 81.1275 246.648 78.5517 246.171C78.1217 246.104 77.6824 246.129 77.2625 246.243C76.8426 246.358 76.4514 246.559 76.1143 246.834C75.7772 247.109 75.5018 247.453 75.306 247.841C75.1101 248.23 74.9982 248.655 74.9774 249.09C74.8248 250.934 76.1604 252.779 77.4642 253.943C78.768 255.107 81.9162 256.169 82.9974 256.518C82.8066 257.422 82.6158 258.331 82.3614 259.196C82.1897 259.781 82.0688 260.36 81.8717 260.945C81.6745 261.53 81.4964 262.096 81.312 262.669C80.9177 263.75 80.5233 264.869 80.1099 265.912C79.8301 266.644 79.5503 267.337 79.2704 268.03C79.4103 267.133 79.652 265.365 79.6584 265.213C79.6243 263.155 79.0684 261.139 78.0429 259.355C78.0503 259.125 78.0354 258.895 77.9984 258.668C77.9447 258.234 77.7994 257.816 77.5723 257.441C77.3452 257.067 77.0413 256.745 76.6807 256.497C76.3201 256.249 75.9111 256.08 75.4804 256.002C75.0498 255.923 74.6074 255.937 74.1824 256.041C71.6384 256.716 70.0421 261.129 69.9212 263.495C69.9212 263.635 70.0039 265.136 70.0739 266.09C69.9467 265.537 69.8322 265.003 69.6923 264.437C69.4251 263.317 69.1326 262.204 68.8146 261.009C68.6429 260.436 68.4648 259.857 68.2867 259.279C68.1086 258.7 67.8797 258.102 67.6507 257.504C67.1483 256.137 66.5759 254.769 65.9653 253.408C66.9511 253.173 70.4173 252.289 71.8101 251.221C73.203 250.152 74.6658 248.416 74.6531 246.565C74.6661 246.13 74.5872 245.696 74.4214 245.294C74.2556 244.891 74.0068 244.527 73.6911 244.227C73.3754 243.927 72.9999 243.697 72.5892 243.552C72.1786 243.407 71.7419 243.35 71.3077 243.385C68.7001 243.671 66.4359 247.837 65.9653 250.114C65.9653 250.254 65.7809 251.939 65.7173 252.861C65.342 252.047 64.9731 251.233 64.5725 250.419C63.4086 248.072 62.1557 245.738 60.9155 243.423C60.5402 242.711 60.165 241.992 59.7961 241.274C60.1459 241.197 64.2926 240.23 65.8508 239.035C67.2373 237.973 68.7065 236.23 68.6937 234.379C68.7068 233.944 68.6278 233.511 68.4621 233.108C68.2963 232.705 68.0475 232.342 67.7318 232.042C67.4161 231.742 67.0406 231.511 66.6299 231.366C66.2192 231.221 65.7826 231.164 65.3484 231.199C62.7408 231.479 60.4766 235.651 60.006 237.922C59.9678 238.1 59.7516 240.517 59.7261 241.14C58.9057 239.556 58.1043 237.96 57.3729 236.383C56.3838 234.239 55.534 232.034 54.8289 229.781C54.9943 229.743 59.3255 228.757 60.9218 227.53C62.3083 226.467 63.7775 224.725 63.7647 222.874C63.7779 222.438 63.6988 222.004 63.5326 221.601C63.3665 221.198 63.1171 220.834 62.8006 220.534C62.4842 220.234 62.108 220.004 61.6965 219.859C61.2851 219.714 60.8477 219.658 60.413 219.694C57.8118 219.974 55.5476 224.146 55.077 226.417C55.0388 226.601 54.8035 229.202 54.7971 229.679C54.759 229.552 54.7017 229.418 54.6636 229.285C54.0131 226.997 53.5682 224.656 53.3343 222.289C53.1881 220.985 53.1245 219.745 53.0863 218.511C53.9131 218.409 57.6782 217.913 59.2364 216.966C60.7946 216.018 62.3846 214.492 62.5754 212.654C62.6365 212.222 62.6058 211.783 62.4853 211.365C62.3648 210.946 62.1573 210.558 61.8762 210.225C61.5952 209.893 61.2471 209.623 60.8546 209.434C60.4622 209.246 60.0343 209.142 59.5989 209.13C56.9786 209.13 54.2756 212.997 53.5506 215.223C53.5124 215.35 53.2517 216.622 53.0736 217.551C53.0736 217.004 53.0418 216.431 53.0736 215.904C53.0736 213.926 53.2008 212.087 53.3216 210.504C53.4043 209.588 53.487 208.768 53.5824 207.998C54.3392 207.476 57.3984 205.333 58.3015 203.807C59.2046 202.28 59.9551 200.162 59.2746 198.439C59.1293 198.028 58.8991 197.653 58.599 197.338C58.2989 197.022 57.9357 196.773 57.533 196.608C57.1303 196.442 56.6972 196.363 56.2619 196.376C55.8267 196.389 55.3991 196.494 55.007 196.684C52.6793 197.886 52.0687 202.573 52.463 204.882C52.5012 205.085 53.3789 208.144 53.417 208.119H53.4615C53.3598 208.857 53.258 209.652 53.169 210.517C53.01 212.126 52.8446 213.945 52.7937 215.929C52.7207 218.073 52.7717 220.22 52.9464 222.359C53.1324 224.754 53.5325 227.127 54.1421 229.45V229.533C53.7287 228.897 52.5139 227.11 52.4058 226.989C50.873 225.215 46.8789 222.696 44.4621 223.72C44.0664 223.901 43.7132 224.164 43.4257 224.491C43.1381 224.818 42.9225 225.202 42.7929 225.617C42.6634 226.033 42.6227 226.471 42.6736 226.904C42.7245 227.336 42.8658 227.753 43.0884 228.127C43.9533 229.743 46.0903 230.544 47.8202 230.799Z" fill="#F18805"/>
<path d="M92.7571 218.485C92.7952 218.485 93.5902 215.426 93.622 215.222C93.9464 212.907 93.2022 208.226 90.8427 207.101C90.4458 206.922 90.0157 206.829 89.5805 206.828C89.1453 206.827 88.7147 206.918 88.3169 207.094C87.919 207.27 87.5628 207.529 87.2715 207.852C86.9801 208.175 86.7602 208.556 86.626 208.97C85.99 210.707 86.7914 212.837 87.7454 214.306C88.8584 216.03 92.7507 218.479 92.7571 218.485Z" fill="#F18805"/>
<path d="M364.425 198.362C366.969 199.462 373.119 199.323 373.126 199.323C373.132 199.323 371.797 195.284 371.682 195.042C370.327 192.206 366.047 187.531 362.562 188.002C361.985 188.095 361.434 188.309 360.945 188.629C360.456 188.95 360.041 189.37 359.726 189.862C359.411 190.355 359.203 190.908 359.116 191.486C359.03 192.064 359.066 192.654 359.223 193.217C359.802 195.627 362.276 197.421 364.425 198.362Z" fill="#F18805"/>
<path d="M366.556 216.235C369.17 216.616 374.678 215.02 375.117 214.887C376.025 218.04 377.143 221.129 378.462 224.134C379.219 225.889 380.033 227.632 380.879 229.368C380.377 228.63 379.919 227.975 379.849 227.893C377.788 225.52 372.427 222.137 369.189 223.511C368.658 223.754 368.184 224.107 367.798 224.546C367.413 224.984 367.123 225.499 366.949 226.057C366.775 226.615 366.721 227.203 366.789 227.783C366.857 228.364 367.047 228.923 367.345 229.425C368.541 231.601 371.403 232.675 373.705 233.013C376.007 233.35 380.784 232.09 382.03 231.74C382.361 232.408 382.666 233.07 383.016 233.731C384.606 236.911 386.196 240.091 387.691 243.22C388.219 244.333 388.689 245.446 389.166 246.553C388.721 245.917 388.339 245.357 388.269 245.281C386.215 242.902 380.854 239.525 377.616 240.899C377.085 241.141 376.61 241.493 376.224 241.931C375.837 242.369 375.548 242.883 375.374 243.441C375.199 243.998 375.145 244.587 375.214 245.167C375.282 245.747 375.473 246.306 375.772 246.807C376.968 248.982 379.83 250.057 382.132 250.401C384.434 250.744 388.746 249.593 390.228 249.186C390.686 250.337 391.144 251.488 391.5 252.627C391.748 253.409 392.041 254.147 392.244 254.948C392.448 255.749 392.683 256.513 392.88 257.289C393.237 258.79 393.618 260.335 393.936 261.811C394.159 262.835 394.356 263.814 394.572 264.8C394.063 263.687 393.027 261.537 392.919 261.365C391.252 258.707 386.457 254.554 383.054 255.419C382.492 255.579 381.97 255.855 381.522 256.23C381.074 256.605 380.71 257.07 380.453 257.595C380.197 258.12 380.053 258.693 380.032 259.276C380.011 259.86 380.114 260.442 380.332 260.984C381.184 263.318 383.849 264.8 386.094 265.499C388.562 266.256 394.032 265.563 394.712 265.499C395.043 267.134 395.348 268.724 395.609 270.231C395.8 271.344 395.984 272.419 396.15 273.449H398.337C398.127 272.305 397.905 271.103 397.657 269.85C397.326 268.19 396.945 266.422 396.537 264.609C398.184 263.952 399.789 263.198 401.346 262.351C403.146 264.297 407.757 266.581 408.342 266.867C407.706 268.412 407.07 269.907 406.478 271.319C406.154 272.063 405.842 272.763 405.524 273.462H407.846C408.024 273.023 408.208 272.591 408.393 272.133C409.029 270.568 409.696 268.883 410.351 267.147C410.987 267.287 416.425 268.387 418.95 267.783C421.24 267.267 424.038 265.97 425.03 263.712C425.286 263.19 425.429 262.62 425.451 262.039C425.472 261.458 425.371 260.879 425.155 260.34C424.938 259.8 424.611 259.312 424.194 258.907C423.777 258.502 423.28 258.189 422.734 257.988C419.402 256.862 414.314 260.653 412.45 263.178C412.342 263.324 411.331 265.086 410.708 266.193C410.975 265.48 411.235 264.793 411.503 264.062C412.037 262.612 412.52 261.149 413.054 259.572L413.748 257.25C413.996 256.475 414.161 255.629 414.384 254.815C414.835 252.907 415.204 250.96 415.528 248.982C416.8 249.447 421.335 251.024 423.682 250.859C426.029 250.693 428.961 249.835 430.315 247.755C430.65 247.277 430.881 246.733 430.992 246.16C431.103 245.587 431.092 244.997 430.96 244.428C430.828 243.86 430.578 243.325 430.226 242.859C429.874 242.394 429.428 242.007 428.916 241.726C425.787 240.11 420.19 243.08 417.964 245.3C417.824 245.434 416.406 247.208 415.643 248.194C415.834 247.004 416.025 245.822 416.171 244.613C416.603 241.121 416.934 237.585 417.277 234.049C417.386 232.968 417.5 231.893 417.615 230.812C418.066 230.984 423.415 232.974 426.048 232.79C428.388 232.625 431.327 231.766 432.681 229.686C433.016 229.208 433.247 228.664 433.358 228.09C433.469 227.516 433.459 226.926 433.327 226.357C433.195 225.787 432.945 225.252 432.592 224.786C432.24 224.32 431.794 223.933 431.282 223.651C428.153 222.042 422.55 225.012 420.33 227.225C420.159 227.397 418.123 229.941 417.634 230.615C417.888 228.242 418.161 225.877 418.524 223.555C418.998 220.42 419.673 217.318 420.546 214.27C420.756 214.346 426.334 216.451 429.031 216.267C431.371 216.101 434.303 215.243 435.658 213.157C435.993 212.678 436.223 212.135 436.334 211.562C436.446 210.989 436.435 210.399 436.303 209.83C436.171 209.261 435.921 208.727 435.568 208.261C435.216 207.795 434.77 207.409 434.259 207.127C431.136 205.512 425.533 208.488 423.307 210.702C423.135 210.873 420.941 213.614 420.578 214.142C420.636 213.964 420.667 213.78 420.725 213.602C421.711 210.557 422.969 207.607 424.483 204.787C425.285 203.222 426.137 201.766 427.027 200.373C428.026 200.875 432.611 203.101 435.06 203.197C437.4 203.292 440.415 202.758 441.986 200.844C442.372 200.405 442.662 199.89 442.836 199.333C443.01 198.775 443.065 198.187 442.996 197.607C442.928 197.027 442.738 196.467 442.439 195.965C442.14 195.463 441.739 195.03 441.261 194.694C438.329 192.747 432.433 195.088 429.978 197.04C429.845 197.148 428.611 198.382 427.721 199.292C428.121 198.656 428.516 198.02 428.91 197.428C430.385 195.215 431.867 193.275 433.197 191.571C433.953 190.604 434.666 189.752 435.34 188.957C436.574 188.957 441.547 188.785 443.722 187.761C445.897 186.737 448.27 184.905 448.81 182.476C448.95 181.909 448.97 181.319 448.867 180.744C448.764 180.17 448.541 179.623 448.213 179.14C447.885 178.657 447.458 178.249 446.962 177.941C446.466 177.634 445.91 177.435 445.331 177.356C441.833 176.975 437.699 181.77 436.427 184.638C436.319 184.886 435.041 188.963 435.105 188.957H435.174C434.538 189.707 433.813 190.521 433.069 191.424C431.702 193.11 430.169 195.018 428.617 197.212C426.949 199.555 425.418 201.993 424.032 204.513C422.467 207.329 421.158 210.279 420.12 213.328C420.107 213.366 420.096 213.404 420.089 213.443C420.089 212.412 420.089 209.531 420.031 209.309C419.624 206.199 417.017 200.405 413.557 199.769C412.98 199.68 412.39 199.713 411.827 199.867C411.264 200.02 410.739 200.291 410.287 200.66C409.835 201.029 409.465 201.49 409.202 202.011C408.94 202.533 408.789 203.103 408.761 203.687C408.558 206.161 410.351 208.635 412.1 210.199C414.072 211.961 419.548 213.665 419.98 213.799C419.002 216.925 418.231 220.112 417.672 223.339C417.335 225.247 417.036 227.123 416.8 229.063C416.8 228.173 416.8 227.378 416.756 227.269C416.349 224.153 413.741 218.365 410.281 217.729C409.704 217.639 409.114 217.67 408.55 217.823C407.986 217.975 407.46 218.244 407.007 218.613C406.554 218.982 406.184 219.443 405.921 219.964C405.658 220.486 405.507 221.057 405.48 221.641C405.282 224.115 407.076 226.589 408.825 228.153C410.574 229.718 415.236 231.289 416.457 231.683C416.368 232.415 416.266 233.152 416.177 233.884C415.757 237.414 415.35 240.937 414.848 244.378C414.67 245.593 414.454 246.782 414.212 247.971C414.212 247.183 414.212 246.515 414.167 246.413C413.767 243.297 411.159 237.509 407.699 236.873C407.122 236.783 406.532 236.816 405.968 236.969C405.404 237.122 404.878 237.392 404.425 237.761C403.972 238.131 403.602 238.592 403.339 239.114C403.076 239.635 402.925 240.207 402.897 240.791C402.694 243.265 404.494 245.739 406.243 247.303C407.992 248.868 412.202 250.28 413.665 250.757C413.411 251.965 413.156 253.18 412.851 254.344C412.628 255.133 412.463 255.908 412.215 256.691C411.967 257.473 411.712 258.243 411.464 259.006C410.937 260.456 410.402 261.957 409.849 263.362C409.474 264.336 409.098 265.27 408.723 266.199C408.914 264.991 409.238 262.625 409.238 262.421C409.204 259.659 408.459 256.952 407.076 254.56C407.082 254.254 407.063 253.948 407.019 253.644C406.946 253.065 406.752 252.507 406.45 252.007C406.147 251.507 405.743 251.077 405.263 250.744C404.783 250.411 404.238 250.183 403.664 250.074C403.09 249.966 402.499 249.98 401.931 250.115C398.528 251.018 396.378 256.983 396.207 260.119C396.207 260.303 396.321 262.319 396.417 263.591C396.245 262.854 396.086 262.135 395.901 261.378C395.545 259.871 395.145 258.383 394.725 256.78C394.492 256.012 394.256 255.236 394.019 254.452C393.803 253.676 393.472 252.875 393.198 252.08C392.524 250.242 391.755 248.41 390.941 246.585C392.257 246.267 396.906 245.084 398.776 243.646C400.646 242.209 402.592 239.888 402.592 237.401C402.608 236.817 402.501 236.237 402.278 235.697C402.055 235.157 401.721 234.671 401.298 234.269C400.874 233.867 400.371 233.559 399.82 233.364C399.269 233.169 398.684 233.093 398.102 233.14C394.604 233.521 391.57 239.093 390.934 242.165C390.896 242.355 390.686 244.613 390.597 245.86C390.101 244.766 389.605 243.672 389.064 242.578C387.5 239.436 385.821 236.301 384.161 233.159C383.652 232.198 383.156 231.251 382.654 230.278C383.124 230.17 388.689 228.878 390.782 227.269C392.639 225.845 394.598 223.511 394.598 221.024C394.613 220.44 394.505 219.86 394.281 219.32C394.058 218.781 393.723 218.295 393.299 217.893C392.874 217.492 392.37 217.185 391.82 216.991C391.269 216.797 390.683 216.722 390.101 216.769C386.61 217.144 383.576 222.716 382.94 225.788C382.889 226.023 382.596 229.273 382.565 230.1C381.464 227.982 380.383 225.857 379.385 223.74C378.049 220.864 376.902 217.905 375.95 214.88C376.173 214.829 381.979 213.506 384.123 211.866C385.986 210.434 387.939 208.1 387.939 205.62C387.956 205.036 387.85 204.455 387.627 203.915C387.404 203.375 387.07 202.888 386.646 202.486C386.223 202.083 385.719 201.775 385.168 201.581C384.617 201.387 384.031 201.311 383.449 201.359C379.951 201.734 376.917 207.305 376.281 210.384C376.236 210.625 375.918 214.117 375.906 214.753C375.855 214.581 375.778 214.403 375.728 214.231C374.864 211.163 374.274 208.023 373.966 204.85C373.769 203.101 373.68 201.422 373.629 199.762C374.735 199.629 379.792 198.955 381.897 197.689C384.002 196.423 386.126 194.369 386.381 191.895C386.459 191.317 386.416 190.728 386.252 190.168C386.089 189.607 385.809 189.087 385.432 188.642C385.055 188.196 384.588 187.835 384.063 187.581C383.537 187.328 382.964 187.187 382.38 187.17C378.863 187.17 375.238 192.366 374.271 195.355C374.214 195.514 373.864 197.225 373.635 198.471C373.635 197.734 373.597 196.97 373.635 196.264C373.635 193.606 373.807 191.176 373.972 189.014C374.08 187.793 374.195 186.686 374.322 185.656C375.34 184.956 379.41 182.082 380.682 180.034C381.954 177.986 382.902 175.136 381.986 172.828C381.79 172.278 381.481 171.775 381.078 171.353C380.676 170.93 380.188 170.597 379.648 170.375C379.109 170.153 378.528 170.047 377.945 170.064C377.361 170.081 376.788 170.221 376.262 170.475C373.133 172.09 372.312 178.38 372.827 181.477C372.878 181.745 374.055 185.847 374.099 185.815L374.157 185.77C374.017 186.763 373.883 187.831 373.762 188.995C373.546 191.151 373.323 193.587 373.26 196.258C373.16 199.132 373.23 202.01 373.47 204.876C373.715 208.097 374.249 211.29 375.066 214.416C375.066 214.448 375.066 214.486 375.066 214.524C374.513 213.653 372.885 211.274 372.738 211.109C370.684 208.73 365.323 205.353 362.085 206.727C361.554 206.97 361.08 207.323 360.694 207.762C360.308 208.2 360.019 208.715 359.845 209.273C359.671 209.831 359.617 210.419 359.685 210.999C359.753 211.58 359.942 212.139 360.241 212.641C361.373 214.823 364.235 215.898 366.556 216.235Z" fill="#F18805"/>
<path d="M426.855 199.699C426.906 199.737 427.975 195.596 428.013 195.329C428.445 192.219 427.453 185.955 424.286 184.428C423.753 184.189 423.176 184.064 422.592 184.063C422.008 184.061 421.431 184.182 420.897 184.419C420.363 184.655 419.885 185.001 419.493 185.434C419.102 185.868 418.806 186.379 418.625 186.934C417.78 189.268 418.854 192.13 420.126 194.095C421.621 196.423 426.849 199.699 426.855 199.699Z" fill="#F18805"/>
<g opacity="0.3">
<path d="M83.174 153.025C87.308 154.348 96.9688 153.12 96.9752 153.12C97.0769 153.12 94.234 147.002 94.0114 146.633C91.4293 142.41 83.9499 135.77 78.563 137.093C74.677 138.028 72.8962 142.181 74.1682 145.813C75.4402 149.444 79.6505 151.906 83.174 153.025Z" stroke="black" stroke-linecap="round" stroke-linejoin="round"/>
<path d="M145.285 217.567C147.638 215.023 149.737 211.519 149.342 208.072C148.916 204.256 145.526 201.279 141.602 202.119C136.177 203.283 132.323 212.511 131.827 217.44C131.827 217.746 131.827 221.32 131.903 223.285C130.943 221.651 129.995 220.016 128.965 218.394C126.001 213.707 122.859 209.064 119.743 204.402C118.782 202.978 117.835 201.547 116.906 200.122C117.339 199.976 120.531 198.85 123.686 197.406" stroke="black" stroke-linecap="round" stroke-linejoin="round"/>
<path d="M138.524 235.85C138.066 234.781 137.494 233.7 136.991 232.613C135.636 229.84 134.135 227.092 132.539 224.345C135.648 223.272 138.667 221.958 141.57 220.414" stroke="black" stroke-linecap="round" stroke-linejoin="round"/>
<path d="M179.352 185.71C178.001 186.708 176.77 187.858 175.682 189.138C175.447 189.424 172.667 193.755 172.012 194.862C172.012 191.096 172.063 187.344 172.254 183.649C172.49 178.653 173.047 173.678 173.92 168.754C174.264 168.843 183.352 171.234 187.55 170.503C191.194 169.867 195.659 168.035 197.446 164.55C199.233 161.065 197.993 156.772 194.266 155.315C189.102 153.299 180.802 158.87 177.673 162.705C177.425 163.004 174.436 167.666 173.952 168.55C174.009 168.264 174.029 167.965 174.086 167.679C175.104 162.767 176.555 157.955 178.423 153.299C179.428 150.71 180.528 148.3 181.648 145.972C183.295 146.608 190.857 149.343 194.705 149.095C198.4 148.86 203.036 147.537 205.193 144.274C207.349 141.011 206.585 136.598 203.049 134.734C198.139 132.19 189.273 136.782 185.744 140.255C185.546 140.439 183.836 142.576 182.564 144.147C183.085 143.104 183.607 142.023 184.128 141.031C186.074 137.316 188.084 134.035 189.89 131.147C190.927 129.513 191.9 128.05 192.829 126.695C194.737 126.46 202.54 125.423 205.784 123.458C209.028 121.493 212.424 118.294 212.863 114.389C213.302 110.483 210.567 106.935 206.573 106.922C201.027 106.922 195.29 115.088 193.751 119.801C193.617 120.208 192.275 126.797 192.371 126.797H192.492C191.576 128.069 190.584 129.474 189.585 131.014C187.709 133.876 185.623 137.119 183.588 140.802C181.352 144.75 179.348 148.826 177.584 153.006C175.587 157.68 174.01 162.522 172.871 167.475C172.871 167.533 172.871 167.596 172.871 167.654C172.731 166.038 172.19 161.522 172.108 161.179C170.969 156.365 165.932 147.721 160.405 147.282C156.424 146.964 153.409 150.367 153.518 154.202C153.626 158.037 156.818 161.707 159.814 163.876C163.197 166.318 172.063 168.099 172.769 168.245C171.734 173.311 171.04 178.44 170.69 183.598C170.473 186.606 170.346 189.64 170.251 192.686C170.085 191.287 169.926 190.041 169.888 189.869C168.75 185.048 163.713 176.411 158.186 175.972C154.204 175.654 151.19 179.057 151.298 182.892C151.406 186.727 154.599 190.397 157.594 192.559C160.59 194.722 168.165 196.433 170.162 196.852C170.162 198.016 170.104 199.186 170.085 200.35C169.996 205.953 169.933 211.55 169.704 217.033C169.627 218.941 169.475 220.849 169.335 222.757C169.182 221.485 169.049 220.473 169.01 220.321C167.872 215.5 162.841 206.863 157.314 206.418C153.327 206.106 150.318 209.509 150.42 213.337C150.522 217.166 153.721 220.849 156.717 223.011C159.712 225.173 166.556 226.719 168.928 227.221C168.724 229.167 168.521 231.114 168.235 232.983C168.012 234.255 167.885 235.527 167.599 236.799C167.312 238.071 167.064 239.305 166.804 240.545C166.212 242.905 165.614 245.347 164.978 247.643C164.552 249.24 164.107 250.753 163.706 252.273C163.808 250.365 163.929 246.587 163.903 246.269C163.392 241.943 161.78 237.82 159.222 234.294C159.186 233.81 159.105 233.331 158.981 232.863C157.989 229.161 154.16 226.732 150.427 228.15C145.243 230.121 142.833 239.827 143.093 244.775C143.093 245.061 143.628 248.209 143.984 250.187C143.596 249.062 143.233 247.955 142.82 246.797C142.019 244.495 141.147 242.225 140.219 239.801" stroke="black" stroke-linecap="round" stroke-linejoin="round"/>
<path d="M113.625 230.614C115.5 231.306 117.473 231.694 119.47 231.765C123.044 231.911 129.716 229.425 131.974 228.541C132.877 230.277 133.78 232.007 134.575 233.73C135.09 234.92 135.669 236.026 136.12 237.247C136.572 238.468 137.062 239.632 137.526 240.809C138.334 243.105 139.186 245.471 139.917 247.735C140.439 249.306 140.909 250.807 141.386 252.321C140.413 250.661 138.435 247.455 138.238 247.201C135.185 243.308 126.994 237.572 121.791 239.486C118.039 240.866 116.748 245.21 118.433 248.657C120.119 252.104 124.571 254.089 128.202 254.801C132.196 255.577 140.661 253.612 141.717 253.357C142.493 255.863 143.231 258.312 143.886 260.633C144.373 262.35 144.831 264.004 145.26 265.594L148.694 265.238C148.179 263.47 147.632 261.625 147.034 259.698C146.252 257.154 145.368 254.438 144.433 251.665C146.907 250.363 149.302 248.917 151.607 247.334C154.749 250.101 162.349 252.925 163.335 253.287C162.603 255.831 161.866 258.254 161.128 260.55C160.746 261.772 160.365 262.923 159.989 264.061L163.621 263.686C163.837 262.967 164.053 262.261 164.257 261.511C165.007 258.967 165.764 256.207 166.515 253.376C167.577 253.484 176.246 254.324 180.106 253.027C183.61 251.844 187.738 249.357 189.01 245.649C190.282 241.941 188.374 237.871 184.469 236.999C179.063 235.785 171.698 242.552 169.205 246.819C169.052 247.067 167.755 249.999 166.96 251.831C167.259 250.673 167.564 249.548 167.857 248.352C168.461 245.992 168.982 243.62 169.561 241.07C169.797 239.798 170.038 238.57 170.274 237.305C170.509 236.039 170.661 234.697 170.865 233.38C171.266 230.321 171.501 227.205 171.711 224.057C173.778 224.572 181.149 226.308 184.812 225.672C188.476 225.036 192.915 223.204 194.702 219.726C196.489 216.247 195.249 211.941 191.522 210.484C186.358 208.468 178.052 214.04 174.923 217.875C174.726 218.116 172.792 221.118 171.743 222.791C171.838 220.883 171.946 219.007 171.984 217.067C172.099 211.528 172.035 205.918 171.984 200.321C171.984 198.604 171.984 196.893 171.984 195.182C172.722 195.379 181.435 197.631 185.538 196.912C189.182 196.276 193.64 194.451 195.427 190.966C197.214 187.48 195.974 183.187 192.247 181.731C189.818 180.783 186.695 181.515 183.744 182.952" stroke="black" stroke-linecap="round" stroke-linejoin="round"/>
<path d="M107.77 224.609C107.969 225.523 108.347 226.387 108.883 227.153C109.375 227.864 109.976 228.493 110.663 229.017" stroke="black" stroke-linecap="round" stroke-linejoin="round"/>
<path d="M90.9453 180.66C95.3528 180.189 102.063 177.48 102.66 177.219C104.59 182.015 106.838 186.677 109.389 191.173C110.865 193.806 112.429 196.407 114.032 198.995C113.123 197.921 112.309 196.967 112.175 196.846C108.569 193.456 99.6013 189.029 94.7486 191.707C91.2506 193.615 90.6337 198.13 92.8406 201.285C95.0475 204.44 99.7348 205.737 103.424 205.877C107.112 206.017 114.376 203.276 116.277 202.519C116.913 203.505 117.511 204.497 118.141 205.483C121.162 210.202 124.195 214.902 127.045 219.602C128.043 221.255 128.953 222.922 129.9 224.588C129.093 223.64 128.406 222.845 128.285 222.731C124.679 219.341 115.711 214.914 110.858 217.592C109.757 218.198 108.869 219.128 108.314 220.257" stroke="black" stroke-linecap="round" stroke-linejoin="round"/>
<path d="M116.292 141.19C116.428 140.602 116.499 140 116.502 139.396C116.502 135.58 113.436 132.228 109.461 132.629C103.941 133.195 99.1009 141.947 98.0706 146.787C98.0134 147.047 97.7335 149.788 97.5682 151.785C97.4283 150.628 97.2629 149.439 97.1548 148.326C96.7286 144.153 96.5951 140.312 96.5188 136.878C96.4806 134.938 96.487 133.189 96.5188 131.548C98.0006 130.276 103.915 125.118 105.544 121.696C107.172 118.275 108.228 113.664 106.421 110.191C104.615 106.719 100.392 105.237 97.053 107.431C92.4166 110.471 92.1495 120.469 93.466 125.239C93.5805 125.652 96.099 131.898 96.1753 131.834L96.2644 131.758C96.2071 133.335 96.169 135.033 96.1626 136.878C96.1626 140.293 96.2262 144.153 96.5633 148.326C96.8741 152.852 97.4496 157.356 98.2868 161.815C99.2032 166.814 100.561 171.722 102.345 176.481C102.345 176.539 102.395 176.596 102.414 176.647C101.41 175.375 98.4649 171.909 98.2105 171.667C94.6044 168.277 85.6368 163.85 80.7841 166.534C77.2861 168.442 76.6692 172.952 78.8761 176.106C80.5488 178.517 83.5952 179.808 86.5654 180.367" stroke="black" stroke-linecap="round" stroke-linejoin="round"/>
<path d="M126.077 196.215C127.189 195.638 128.224 194.927 129.162 194.097C131.852 191.553 134.568 187.571 134.135 183.679C133.703 179.787 130.319 176.893 126.395 177.733C120.97 178.896 117.116 188.125 116.626 193.047C116.588 193.423 116.658 198.562 116.735 199.872C114.668 196.723 112.632 193.569 110.75 190.383C108.188 186.083 105.908 181.622 103.925 177.027C104.256 176.912 113.16 173.891 116.258 170.965C118.941 168.421 121.657 164.44 121.225 160.548C120.792 156.655 117.409 153.755 113.485 154.595C108.059 155.759 104.212 164.987 103.716 169.916C103.677 170.304 103.754 175.837 103.836 176.836C103.722 176.575 103.576 176.308 103.468 176.041C101.604 171.381 100.161 166.564 99.1555 161.648C98.564 158.945 98.1506 156.325 97.8008 153.762C99.518 153.374 107.341 151.491 110.413 149.163C111.904 148.05 113.224 146.724 114.33 145.227" stroke="black" stroke-linecap="round" stroke-linejoin="round"/>
<path d="M181.309 145.006C181.405 145.05 182.403 138.391 182.422 137.965C182.594 133.017 180.018 123.337 174.79 121.467C171.038 120.113 167.254 122.606 166.319 126.32C165.384 130.034 167.521 134.435 169.842 137.31C172.577 140.687 181.303 145.006 181.309 145.006Z" stroke="black" stroke-linecap="round" stroke-linejoin="round"/>
</g>
<g opacity="0.3">
<path d="M327.154 63.4708C330.607 64.8637 334.067 65.8304 334.073 65.8304C334.08 65.8304 333.927 59.146 333.895 58.7008C333.151 53.81 328.807 44.7851 323.369 43.8947C319.426 43.2587 316.164 46.4006 315.935 50.2547C315.706 54.1089 318.612 58.0012 321.423 60.4307" stroke="black" stroke-linecap="round" stroke-linejoin="round"/>
<path d="M408.717 116.337C409.378 116.638 410.066 116.878 410.771 117.056C414.377 117.876 419.198 117.933 422.219 115.415C425.24 112.896 425.742 108.457 422.855 105.671C418.88 101.804 409.06 103.712 404.684 106.034C404.341 106.212 399.781 109.347 398.992 109.971C399.151 109.729 399.291 109.462 399.45 109.22C402.3 105.091 405.509 101.221 409.041 97.6577C410.949 95.6606 412.914 93.8417 414.854 92.1562C416.126 93.371 422.028 98.8342 425.666 100.106C429.158 101.327 433.934 101.906 437.203 99.7374C438.401 98.9655 439.326 97.8368 439.848 96.5107C440.369 95.1846 440.461 93.7281 440.11 92.3471" stroke="black" stroke-linecap="round" stroke-linejoin="round"/>
<path d="M356.939 37.1521C358.51 35.0088 359.642 32.4712 359.438 29.9272C359.127 26.1112 355.807 23.0265 351.876 23.7452C346.419 24.7501 342.292 33.8576 341.649 38.7675C341.599 39.1873 341.49 45.9225 341.586 45.8971L341.7 45.859C341.064 47.2963 340.339 48.8354 339.621 50.5399C338.304 53.7199 336.854 57.2688 335.531 61.2692C334.059 65.5611 332.84 69.9359 331.881 74.3708C330.78 79.3312 330.125 84.3798 329.922 89.4567C329.918 89.5182 329.918 89.5797 329.922 89.6412C329.489 88.0703 328.122 83.7391 328.014 83.4147C326.004 78.8928 319.466 71.3307 313.952 71.9159C309.977 72.3356 307.662 76.2343 308.45 79.9867C309.239 83.7391 313.08 86.7537 316.426 88.331C320.197 90.1055 329.241 90.239 329.96 90.239C329.871 95.408 330.124 100.577 330.717 105.713C331.054 108.708 331.486 111.71 331.989 114.719C331.569 113.377 331.181 112.175 331.111 112.022C329.101 107.494 322.557 99.938 317.043 100.517C313.074 100.943 310.759 104.842 311.548 108.588C312.336 112.334 316.178 115.361 319.523 116.932C322.868 118.503 330.621 118.789 332.663 118.84C332.86 119.991 333.038 121.142 333.235 122.293C334.183 127.82 335.143 133.328 335.938 138.759C336.218 140.667 336.422 142.575 336.631 144.483C336.256 143.288 335.932 142.289 335.862 142.143C333.858 137.615 327.314 130.059 321.8 130.638C317.831 131.064 315.516 134.963 316.305 138.709C317.094 142.455 320.935 145.482 324.28 147.053C327.518 148.579 334.628 148.885 337.051 148.961C337.21 150.913 337.369 152.86 337.433 154.755C337.433 156.027 337.554 157.299 337.496 158.571C337.439 159.843 337.433 161.115 337.407 162.387C337.261 164.816 337.121 167.329 336.924 169.695C336.79 171.348 336.638 172.913 336.492 174.496C336.237 172.588 335.658 168.861 335.576 168.556C334.304 163.78 328.955 155.308 323.415 155.054C319.409 154.863 316.534 158.361 316.725 162.177C316.915 165.993 320.274 169.567 323.339 171.628C326.723 173.905 335.283 175.374 336.358 175.552C336.097 178.166 335.824 180.704 335.531 183.101C335.315 184.869 335.092 186.574 334.863 188.189L338.171 189.194C338.387 187.371 338.599 185.463 338.807 183.47C339.08 180.818 339.315 177.975 339.532 175.056C342.308 174.815 345.069 174.414 347.8 173.854C349.625 177.619 355.533 183.178 356.297 183.89C354.643 185.932 353.015 187.897 351.444 189.729C350.617 190.702 349.822 191.636 349.033 192.521L352.525 193.583L353.969 191.834C355.661 189.773 357.422 187.528 359.216 185.213C360.144 185.728 367.808 189.868 371.872 190.167C375.561 190.441 380.337 189.76 382.92 186.822C385.502 183.884 385.349 179.406 382.093 177.091C377.583 173.867 368.171 177.244 364.196 180.195C363.96 180.373 361.652 182.548 360.183 183.947C360.908 182.993 361.626 182.077 362.358 181.092C363.827 179.152 365.239 177.168 366.759 175.037L368.877 171.857C369.608 170.801 370.244 169.599 370.944 168.467C372.502 165.802 373.946 163.029 375.345 160.199C377.049 161.471 383.168 165.923 386.793 166.775C390.418 167.628 395.22 167.653 398.241 165.134C401.262 162.616 401.764 158.177 398.877 155.391C394.902 151.524 385.088 153.432 380.713 155.753C380.439 155.9 377.488 157.916 375.885 159.054C376.712 157.35 377.545 155.652 378.328 153.896C380.585 148.808 382.71 143.644 384.847 138.473C385.483 136.89 386.176 135.293 386.844 133.741C387.48 134.206 394.603 139.669 398.661 140.598C402.26 141.424 407.088 141.475 410.109 138.957C413.13 136.438 413.632 132.005 410.745 129.219C406.77 125.353 396.956 127.261 392.58 129.576C392.25 129.754 388.008 132.66 386.964 133.455C388.434 129.983 389.928 126.542 391.544 123.209C393.698 118.697 396.143 114.329 398.864 110.133C401.092 111.832 403.415 113.401 405.822 114.833" stroke="black" stroke-linecap="round" stroke-linejoin="round"/>
<path d="M351.534 66.1408C354.046 64.9642 356.374 63.1834 357.411 60.7221C358.899 57.1923 357.366 52.9247 353.55 51.7545C348.246 50.1263 340.385 56.3082 337.555 60.3723C337.396 60.5949 336.079 63.0117 335.145 64.7861C335.469 63.6667 335.781 62.5029 336.111 61.4344C337.339 57.4276 338.712 53.8342 339.927 50.6605C340.646 48.8607 341.333 47.2452 341.994 45.7443C343.851 45.1528 351.299 42.6915 354.129 40.1729C354.409 39.9249 354.682 39.6641 354.956 39.3906" stroke="black" stroke-linecap="round" stroke-linejoin="round"/>
<path d="M438.385 89.5337C434.461 85.9212 425.226 86.748 420.844 88.4843C420.596 88.5861 418.161 89.8772 416.392 90.8375C417.276 90.0807 418.18 89.2857 419.045 88.5797C422.282 85.9149 425.405 83.6698 428.19 81.7046C429.787 80.6043 431.249 79.6376 432.642 78.7472C434.512 79.2814 442.087 81.3357 445.839 80.7951C449.592 80.2545 454.012 78.5754 455.907 75.1474C457.802 71.7194 456.683 67.3882 453.007 65.8236C447.919 63.6485 439.441 69.0036 436.197 72.7115C435.918 73.0359 432.108 78.5945 432.21 78.62H432.324C430.976 79.4531 429.545 80.3562 428.006 81.3802C425.169 83.2882 421.983 85.4633 418.676 88.0709C415.082 90.8373 411.653 93.8103 408.404 96.9749C404.75 100.507 401.417 104.358 398.444 108.48L398.349 108.633C398.852 107.087 400.104 102.718 400.162 102.375C400.982 97.4901 399.697 87.5748 394.775 85.0181C391.232 83.1801 387.143 85.158 385.737 88.7196C384.332 92.2812 385.864 96.9177 387.785 100.079C389.954 103.64 397.433 108.728 398.025 109.135C395.105 113.407 392.475 117.868 390.151 122.491C388.777 125.182 387.48 127.923 386.214 130.696C386.609 129.341 386.946 128.152 386.971 127.961C387.792 123.076 386.513 113.161 381.59 110.604C378.042 108.766 373.959 110.744 372.553 114.306C371.147 117.868 372.68 122.504 374.601 125.665C376.522 128.826 382.869 133.335 384.516 134.499C384.039 135.567 383.556 136.623 383.085 137.679C380.827 142.811 378.595 147.938 376.254 152.905C375.434 154.654 374.556 156.346 373.71 158.044C374.054 156.842 374.346 155.83 374.346 155.671C375.167 150.787 373.882 140.872 368.96 138.321C365.411 136.483 361.328 138.455 359.922 142.016C358.516 145.578 360.049 150.214 361.97 153.375C363.827 156.435 369.602 160.613 371.586 162C370.639 163.71 369.678 165.428 368.705 167.043C368.006 168.131 367.401 169.225 366.638 170.28L364.425 173.46C362.962 175.406 361.467 177.429 359.973 179.292C358.955 180.564 357.957 181.836 356.965 183.058C357.804 181.321 359.381 177.9 359.477 177.594C360.69 173.41 360.808 168.984 359.82 164.741C359.974 164.281 360.087 163.809 360.157 163.329C360.679 159.513 358.097 155.805 354.103 155.665C348.563 155.468 342.572 163.481 340.886 168.137C340.785 168.41 340.041 171.508 339.614 173.473C339.691 172.284 339.786 171.126 339.856 169.892C340.009 167.463 340.085 165.033 340.187 162.419C340.187 161.147 340.187 159.875 340.187 158.603C340.187 157.331 340.085 155.97 340.041 154.641C339.869 151.563 339.545 148.446 339.15 145.317C341.281 145.451 348.849 145.794 352.328 144.49C355.807 143.187 359.877 140.554 360.99 136.801C362.103 133.049 360.094 129.055 356.17 128.311C350.719 127.28 343.583 134.289 341.217 138.633C341.065 138.906 339.716 142.214 339.01 144.052C338.762 142.144 338.521 140.293 338.203 138.398C337.293 132.934 336.199 127.433 335.131 121.938C334.806 120.253 334.495 118.573 334.183 116.894C334.946 116.945 343.927 117.53 347.825 116.093C351.285 114.821 355.336 112.175 356.449 108.423C357.562 104.671 355.553 100.676 351.629 99.9323C346.178 98.902 339.042 105.911 336.676 110.255C336.498 110.585 334.558 115.343 334.132 116.615C333.445 112.907 332.797 109.212 332.3 105.542C331.61 100.589 331.24 95.5965 331.194 90.5958C331.55 90.5958 340.925 91.2954 344.912 89.8008C348.379 88.5288 352.424 85.8831 353.537 82.1307C354.65 78.3783 352.64 74.3842 348.716 73.6401C343.265 72.6098 336.136 79.6121 333.763 83.9624C333.579 84.3058 331.499 89.432 331.219 90.3923C331.219 90.0998 331.188 89.8008 331.188 89.5083C331.285 84.4927 331.826 79.4955 332.803 74.575C333.312 71.8529 333.948 69.2771 334.622 66.784C336.352 67.0893 344.289 68.3931 348.029 67.42C348.493 67.2992 348.97 67.1656 349.447 67.0002" stroke="black" stroke-linecap="round" stroke-linejoin="round"/>
<path d="M414.941 91.0998C415.011 91.1761 418.522 85.4267 418.7 85.0387C420.78 80.5486 422.166 70.6397 418.064 66.8809C415.132 64.1716 410.674 64.9729 408.371 68.0639C406.069 71.1548 406.33 76.0012 407.347 79.5564C408.569 83.7349 414.941 91.0934 414.941 91.0998Z" stroke="black" stroke-linecap="round" stroke-linejoin="round"/>
</g>
<path d="M218.047 128.156H420.511L394.308 273.419H191.844L218.047 128.156Z" fill="white" stroke="#263238" stroke-linecap="round" stroke-linejoin="round"/>
<path d="M416.462 128.156L403.863 198.014L392.23 262.511L390.259 273.425H187.801L207.364 164.968L214.004 128.156H416.462Z" fill="#263238" stroke="#263238" stroke-linecap="round" stroke-linejoin="round"/>
<path d="M219.527 132.711H409.29L384.728 268.866H194.965L219.527 132.711Z" fill="#F18805" stroke="#263238" stroke-linecap="round" stroke-linejoin="round"/>
<path d="M196.886 258.219L194.965 268.865H384.728L386.649 258.219H196.886Z" fill="#BFBFBF" stroke="#263238" stroke-linecap="round" stroke-linejoin="round"/>
<path d="M403.672 132.711L379.109 268.866H384.732L409.294 132.711H403.672Z" fill="#BFBFBF" stroke="#263238" stroke-linecap="round" stroke-linejoin="round"/>
<path d="M400.364 182.193L405.141 155.703H399.525L394.742 182.193H400.364Z" fill="#A1A1A1" stroke="#263238" stroke-linecap="round" stroke-linejoin="round"/>
<path d="M391.211 263.805H142.688V273.421H391.211V263.805Z" fill="white" stroke="#263238" stroke-linecap="round" stroke-linejoin="round"/>
<path d="M178.125 263.805H56.1406V273.421H178.125V263.805Z" fill="#263238" stroke="#263238" stroke-linecap="round" stroke-linejoin="round"/>
<path d="M217.793 142.327H407.556L409.293 132.711H219.529L217.793 142.327Z" fill="#BFBFBF" stroke="#263238" stroke-linecap="round" stroke-linejoin="round"/>
<path d="M229.738 139.336H320.127L320.953 134.75H230.565L229.738 139.336Z" fill="white" stroke="#263238" stroke-linecap="round" stroke-linejoin="round"/>
<path opacity="0.2" d="M225.312 185.805H295.405L286.336 236.1H216.242L225.312 185.805Z" fill="black"/>
<path d="M220.983 181.156H291.083L282.014 231.445H211.914L220.983 181.156Z" fill="white" stroke="#263238" stroke-linecap="round" stroke-linejoin="round"/>
<path d="M290.023 187.014L291.085 181.156H220.985L219.93 187.014H290.023Z" fill="#263238" stroke="#263238" stroke-linecap="round" stroke-linejoin="round"/>
<path d="M287.199 184.214C287.2 184.558 287.099 184.895 286.909 185.181C286.719 185.468 286.448 185.691 286.13 185.824C285.813 185.956 285.463 185.991 285.126 185.924C284.788 185.857 284.478 185.692 284.235 185.448C283.992 185.205 283.826 184.895 283.76 184.558C283.693 184.22 283.728 183.871 283.86 183.553C283.992 183.236 284.216 182.965 284.502 182.774C284.789 182.584 285.125 182.483 285.469 182.484C285.928 182.484 286.368 182.667 286.692 182.991C287.017 183.315 287.199 183.756 287.199 184.214Z" fill="white" stroke="#263238" stroke-linecap="round" stroke-linejoin="round"/>
<path d="M248.168 192.596C251.577 193.092 252.651 195.821 251.882 199.7L251.729 200.483H248.714L248.912 199.491C249.414 196.947 248.695 195.363 246.368 195.363C244.04 195.363 242.755 196.934 242.253 199.491C240.981 205.971 250.667 206.016 249.064 214.119C248.301 217.998 246.101 220.765 242.494 221.261L242.062 223.449H239.423L239.855 221.261C236.363 220.765 235.289 218.036 236.039 214.119L236.389 212.344H239.403L239.015 214.322C238.5 216.923 239.283 218.412 241.598 218.412C243.913 218.412 245.274 216.923 245.783 214.322C247.055 207.886 237.413 207.803 239.015 199.694C239.791 195.732 241.916 193.131 245.49 192.59L245.948 190.281H248.587L248.168 192.596Z" fill="#263238"/>
<path d="M254.718 217.365L253.929 221.372H250.832L251.621 217.365H254.718ZM253.809 206.063L256.486 192.484H259.704L257.027 206.063L254.858 214.967H252.492L253.809 206.063Z" fill="#263238"/>
<path d="M261.238 217.365L260.449 221.372H257.352L258.14 217.365H261.238ZM260.334 206.063L263.006 192.484H266.23L263.553 206.063L261.397 214.967H258.999L260.334 206.063Z" fill="#263238"/>
<path opacity="0.2" d="M263.783 128.156L257.143 164.968H207.363L214.003 128.156H263.783Z" fill="black"/>
<path d="M169.819 90.6328H265.537L253.154 159.314H157.43L169.819 90.6328Z" fill="white" stroke="#263238" stroke-linecap="round" stroke-linejoin="round"/>
<path d="M224.679 90.6328L219.139 97.349L218.745 90.6328H216.767L213.511 96.484L211.946 90.6328H209.771L207.723 96.7511L204.619 90.6328H203.01L202.012 98.144L195.944 90.6773L196.58 100.593L189.069 94.576L191.651 104.014L182.976 99.6831L187.409 108.282L177.907 105.795L184.019 113.224L174.053 112.677L181.603 118.649L171.56 120.067L180.261 124.354L170.523 127.68L180.051 130.116L170.988 135.223L180.967 135.712L172.934 142.403L182.976 140.934L176.286 148.954L186.01 145.577L180.916 154.614L189.953 149.463L186.646 159.175L194.641 152.439L193.687 159.314H195.843L199.9 154.398L200.193 159.314H203.271L205.535 155.257L206.616 159.314H209.873L211.316 154.99L213.517 159.314H216.271L217.034 153.603L221.677 159.314H222.987L222.459 151.148L229.977 157.165L227.388 147.727L236.07 152.064L231.63 143.459L241.139 145.952L235.027 138.524L244.993 139.071L237.437 133.092L247.486 131.68L238.779 127.394L248.516 124.067L238.995 121.631L248.052 116.524L238.079 116.028L246.106 109.338L236.063 110.807L242.754 102.787L233.03 106.17L238.124 97.1264L229.093 102.284L232.4 92.5662L224.405 99.3015L225.607 90.6328H224.679Z" fill="white" stroke="#263238" stroke-linecap="round" stroke-linejoin="round"/>
<path d="M264.093 98.64L265.537 90.6328H169.819L168.375 98.64H264.093Z" fill="#263238" stroke="#263238" stroke-linecap="round" stroke-linejoin="round"/>
<path d="M260.241 94.8191C260.242 95.2888 260.104 95.7483 259.843 96.1394C259.583 96.5305 259.213 96.8356 258.779 97.0159C258.345 97.1962 257.868 97.2437 257.407 97.1524C256.946 97.0611 256.523 96.835 256.191 96.5029C255.859 96.1707 255.633 95.7474 255.541 95.2867C255.45 94.8259 255.498 94.3484 255.678 93.9146C255.858 93.4809 256.163 93.1105 256.554 92.8503C256.945 92.5901 257.405 92.4519 257.875 92.4531C258.502 92.4531 259.104 92.7024 259.548 93.1461C259.991 93.5898 260.241 94.1916 260.241 94.8191Z" fill="white" stroke="#263238" stroke-linecap="round" stroke-linejoin="round"/>
<path d="M196.148 115.414C199.493 115.414 200.498 117.01 199.875 120.171L199.678 121.183C199.226 123.453 198.304 124.865 196.32 125.45C198.291 126.035 198.762 127.689 198.298 130.055L197.935 131.861C197.299 135.086 195.391 136.898 192.039 136.898H187.098L191.327 115.414H196.148ZM192.465 134.717C194.214 134.717 195.194 133.794 195.588 131.804L195.963 129.896C196.434 127.504 195.639 126.716 193.585 126.716H191.499L189.921 134.723L192.465 134.717ZM193.769 124.541C195.677 124.541 196.771 123.905 197.216 121.685L197.464 120.413C197.84 118.505 197.375 117.589 195.658 117.589H193.292L191.925 124.522L193.769 124.541Z" fill="#263238"/>
<path d="M202.394 131.829C202.013 133.737 202.553 134.933 204.302 134.933C206.051 134.933 207.018 133.763 207.4 131.829L210.631 115.414H212.876L209.658 131.708C209.022 134.965 207.114 137.14 203.775 137.14C200.436 137.14 199.418 134.965 200.054 131.708L203.266 115.414H205.632L202.394 131.829Z" fill="#263238"/>
<path d="M216.321 129.196L214.496 115.414H216.983L218.255 125.972L223.712 115.414H225.982L218.694 129.196L217.174 136.898H214.814L216.321 129.196Z" fill="#263238"/>
<path d="M226.38 133.922L225.795 136.898H223.492L224.077 133.922H226.38ZM225.705 125.514L227.69 115.414H230.081L228.09 125.514L226.481 132.141H224.701L225.705 125.514Z" fill="#263238"/>
<path d="M208.143 297.979C208.143 297.979 209.084 303.627 210.127 305.828C211.17 308.028 213.059 310.737 211.8 311.055C210.541 311.373 208.773 310.737 207.513 309.383C206.082 307.683 204.507 306.108 202.807 304.676C200.511 302.768 200.193 302.266 200.823 300.911C201.626 299.485 202.534 298.12 203.538 296.828L208.143 297.979Z" fill="white" stroke="#263238" stroke-linecap="round" stroke-linejoin="round"/>
<path d="M211.736 311.062C208.772 309.822 206.648 306.699 204.797 304.778C203.542 303.486 202.149 302.334 200.644 301.344C200.294 302.406 200.771 303.004 202.806 304.676C204.506 306.108 206.081 307.683 207.513 309.383C208.747 310.718 210.515 311.342 211.736 311.062Z" fill="white" stroke="#263238" stroke-linecap="round" stroke-linejoin="round"/>
<path d="M183.166 249.039C183.166 249.039 179.61 253.637 178.459 256.881C177.308 260.125 177.823 263.572 179.922 264.621C182.021 265.67 210.565 264.621 210.565 264.621L203.569 296.828L208.173 297.979C208.173 297.979 222.083 266.294 223.024 263.991C223.965 261.689 225.428 256.881 224.696 255.628C223.965 254.375 211.938 253.014 211.938 253.014L211.989 249.707L184.12 249.77L183.166 249.039Z" fill="#263238" stroke="#263238" stroke-linecap="round" stroke-linejoin="round"/>
<path d="M210.891 263.372L212.519 255.867" stroke="#7A7A7A" stroke-linecap="round" stroke-linejoin="round"/>
<path d="M203.149 189.159C203.149 189.159 202.144 185.635 199.753 185.26C197.362 184.885 195.104 185.26 195.358 186.265C195.613 187.27 195.733 187.645 195.733 187.645C195.733 187.645 190.455 187.899 187.688 190.539C184.921 193.178 187.815 198.807 189.323 200.969C190.83 203.131 192.592 205.122 192.719 205.745C192.846 206.369 193.596 208.512 192.083 209.644C190.569 210.776 177.499 216.933 177.754 218.319C178.008 219.706 182.555 249.706 182.555 249.706H211.951C211.951 249.706 216.874 216.812 216.238 216.182C215.602 215.553 202.793 209.644 202.793 209.644L203.429 206.127C203.429 206.127 207.582 205.625 207.455 204.62C207.328 203.615 206.323 198.959 206.323 198.959L207.328 197.579L204.79 194.437V192.421L203.149 189.159Z" fill="#F18805" stroke="#263238" stroke-linecap="round" stroke-linejoin="round"/>
<path d="M202.774 209.644L203.41 206.127C203.41 206.127 207.564 205.625 207.436 204.62C207.309 203.615 206.304 198.959 206.304 198.959L207.309 197.579L204.791 194.437V192.421L203.156 189.159C203.156 189.159 202.151 185.635 199.76 185.26C197.368 184.885 195.111 185.26 195.365 186.265C195.619 187.27 195.74 187.645 195.74 187.645C195.74 187.645 190.461 187.899 187.695 190.539C184.928 193.178 187.822 198.807 189.329 200.969C190.837 203.131 192.598 205.122 192.726 205.745C192.853 206.369 193.603 208.512 192.09 209.644C191.577 209.984 191.046 210.297 190.5 210.579C191.931 212.067 194.786 214.624 197.896 215.069C200.72 215.476 203.442 212.735 205.051 210.7L202.774 209.644Z" fill="white" stroke="#263238" stroke-linecap="round" stroke-linejoin="round"/>
<path d="M191.961 204.5C192.06 204.499 192.156 204.461 192.228 204.392C193.29 203.33 194.709 202.694 193.926 202.052C193.144 201.409 193.926 199.508 194.282 199.508C194.639 199.508 195.771 199.222 195.771 198.942C195.387 198.095 194.886 197.308 194.282 196.601C193.716 195.889 196.909 192.982 197.755 192.486C198.601 191.99 195.561 192.563 195.414 191.354C195.268 190.146 202.347 189.071 203.078 188.956C202.824 188.2 201.806 185.592 199.752 185.268C197.367 184.892 195.103 185.268 195.357 186.273C195.612 187.277 195.732 187.653 195.732 187.653C195.732 187.653 190.454 187.907 187.687 190.546C184.92 193.186 187.814 198.814 189.322 200.977C190.257 202.293 191.287 203.572 191.961 204.5Z" fill="#263238" stroke="#263238" stroke-linecap="round" stroke-linejoin="round"/>
<path d="M195.48 200.47C195.48 200.47 193.343 196.953 192.091 198.562C190.838 200.171 192.466 203.084 193.999 203.338C194.41 203.423 194.835 203.422 195.246 203.336C195.658 203.249 196.047 203.079 196.39 202.836L197.897 203.968" fill="white"/>
<path d="M195.48 200.47C195.48 200.47 193.343 196.953 192.091 198.562C190.838 200.171 192.466 203.084 193.999 203.338C194.41 203.423 194.835 203.422 195.246 203.336C195.658 203.249 196.047 203.079 196.39 202.836L197.897 203.968" stroke="#263238" stroke-linecap="round" stroke-linejoin="round"/>
<path d="M203.361 194.946C203.405 195.397 203.246 195.779 202.992 195.811C202.738 195.842 202.489 195.499 202.445 195.047C202.4 194.596 202.559 194.214 202.807 194.189C203.056 194.163 203.31 194.5 203.361 194.946Z" fill="#263238"/>
<path d="M202.934 200.344C203.827 200.628 204.774 200.699 205.7 200.554" stroke="#263238" stroke-linecap="round" stroke-linejoin="round"/>
<path d="M201.305 193.258C201.627 192.901 202.05 192.65 202.517 192.536C202.984 192.423 203.475 192.453 203.925 192.622" stroke="#263238" stroke-linecap="round" stroke-linejoin="round"/>
<path d="M213.477 232.053L215.309 237.141L211.41 244.105L214.17 246.681L224.505 240.474C224.759 240.317 224.949 240.076 225.043 239.794C225.137 239.512 225.129 239.205 225.021 238.928L216.155 215.918L215.163 215.625" fill="#F18805"/>
<path d="M213.477 232.053L215.309 237.141L211.41 244.105L214.17 246.681L224.505 240.474C224.759 240.317 224.949 240.076 225.043 239.794C225.137 239.512 225.129 239.205 225.021 238.928L216.155 215.918L215.163 215.625" stroke="#263238" stroke-linecap="round" stroke-linejoin="round"/>
<path d="M215.309 237.133C216.212 236.77 217.192 236.638 218.159 236.749C219.126 236.86 220.05 237.211 220.848 237.769" stroke="#263238" stroke-linecap="round" stroke-linejoin="round"/>
<path d="M210.246 240.75C210.246 240.75 208.033 241.322 207.702 241.386C207.371 241.45 206.627 242.715 206.246 243.294C205.864 243.873 204.026 244.051 204.917 244.941C205.807 245.832 206.875 244.814 207.384 244.369C207.893 243.924 208.523 243.358 208.523 243.358L209.667 243.548C210.005 244.325 210.452 245.049 210.997 245.698C211.754 246.525 212.224 247.155 213.871 246.97C215.519 246.786 216.129 245.011 214.927 243.3C213.725 241.59 210.246 240.75 210.246 240.75Z" fill="white" stroke="#263238" stroke-linecap="round" stroke-linejoin="round"/>
<path d="M212.086 240.407C212.086 240.407 211.392 239.135 210.629 239.459C209.866 239.784 208.791 244.147 209.3 244.719C209.809 245.291 210.247 243.326 211.074 242.175C211.497 241.639 211.837 241.043 212.086 240.407Z" fill="white" stroke="#263238" stroke-linecap="round" stroke-linejoin="round"/>
<path d="M212.087 240.41C212.087 240.41 209.937 244.022 210.439 245.04C210.942 246.057 211.521 245.103 212.214 243.959C212.907 242.814 213.607 241.809 213.486 241.046C213.365 240.283 212.723 240.187 212.087 240.41Z" fill="white" stroke="#263238" stroke-linecap="round" stroke-linejoin="round"/>
<path d="M213.543 241.828C213.543 241.828 214.751 241.949 214.751 242.967C214.751 243.984 212.659 245.752 211.959 245.752C211.26 245.752 211.769 244.995 211.769 244.995L213.543 241.828Z" fill="white" stroke="#263238" stroke-linecap="round" stroke-linejoin="round"/>
<path d="M214.686 243.725C214.686 243.725 215.252 243.541 215.322 244.234C215.392 244.927 213.802 246.142 212.982 246.327C212.161 246.511 212.982 245.252 212.982 245.252L214.686 243.725Z" fill="white" stroke="#263238" stroke-linecap="round" stroke-linejoin="round"/>
<path d="M182.359 228.847L179.064 237.115L182.95 243.201L181.297 246.273L169.849 240.454C169.596 240.297 169.406 240.057 169.311 239.774C169.217 239.492 169.225 239.185 169.334 238.908L177.64 218.009L178.416 217.469" fill="#F18805"/>
<path d="M182.359 228.847L179.064 237.115L182.95 243.201L181.297 246.273L169.849 240.454C169.596 240.297 169.406 240.057 169.311 239.774C169.217 239.492 169.225 239.185 169.334 238.908L177.64 218.009L178.416 217.469" stroke="#263238" stroke-linecap="round" stroke-linejoin="round"/>
<path d="M174.961 237.047C174.45 237.229 173.967 237.479 173.523 237.791" stroke="#263238" stroke-linecap="round" stroke-linejoin="round"/>
<path d="M179.064 237.134C178.257 236.809 177.387 236.672 176.52 236.733" stroke="#263238" stroke-linecap="round" stroke-linejoin="round"/>
<path d="M181.798 242.184C181.798 242.184 180.024 245.097 180.914 246.306C181.804 247.514 184.73 245.924 184.73 245.924C184.73 245.924 185.042 246.051 186.123 245.542C187.204 245.034 188.031 243.45 187.579 242.362C187.128 241.275 181.798 242.184 181.798 242.184Z" fill="white" stroke="#263238" stroke-linecap="round" stroke-linejoin="round"/>
<path d="M187.797 240.406C188.192 240.778 188.683 241.032 189.215 241.138C189.94 241.208 191.88 240.788 192.262 241.138C192.643 241.487 192.363 242.556 191.568 242.798C190.773 243.039 190.182 242.759 189.285 242.696C188.388 242.632 188.109 242.626 188.109 242.626L187.797 240.406Z" fill="white" stroke="#263238" stroke-linecap="round" stroke-linejoin="round"/>
<path d="M186.078 240.6C186.078 240.6 187.007 240.009 187.687 240.346C188.368 240.683 188.787 242.89 188.787 243.73C188.787 244.569 188.444 245.332 188.196 245.332C188.008 245.305 187.831 245.228 187.682 245.109C187.533 244.991 187.419 244.835 187.35 244.658C187.178 244.238 186.415 241.866 186.333 241.446C186.272 241.158 186.187 240.875 186.078 240.6Z" fill="white" stroke="#263238" stroke-linecap="round" stroke-linejoin="round"/>
<path d="M184.642 241.048C185.216 240.746 185.859 240.601 186.506 240.628C187.18 240.794 187.517 244.349 187.6 245.023C187.682 245.697 187.434 246.123 186.76 245.703C186.086 245.284 185.66 243.331 185.323 242.829C184.986 242.326 184.223 241.614 184.642 241.048Z" fill="white" stroke="#263238" stroke-linecap="round" stroke-linejoin="round"/>
<path d="M183.121 241.784C183.281 241.53 183.507 241.325 183.775 241.191C184.043 241.056 184.342 240.997 184.641 241.021C185.57 241.192 186.416 244.658 186.587 245.167C186.759 245.676 185.913 246.096 185.57 245.841C184.753 244.832 184.019 243.758 183.375 242.63C183.286 242.375 183.121 241.784 183.121 241.784Z" fill="white" stroke="#263238" stroke-linecap="round" stroke-linejoin="round"/>
<path d="M183.531 241.938C183.452 241.813 183.332 241.719 183.191 241.673C183.051 241.626 182.899 241.63 182.761 241.684C182.578 241.737 182.408 241.827 182.262 241.95C182.116 242.073 181.998 242.225 181.915 242.396C181.635 243.083 182.551 244.304 183.187 245.093C183.823 245.882 184.637 245.818 184.707 245.335C184.555 244.133 184.155 242.976 183.531 241.938Z" fill="white" stroke="#263238" stroke-linecap="round" stroke-linejoin="round"/>
<path d="M214.234 235.102H184.641V253.819H214.234V235.102Z" fill="white" stroke="#263238" stroke-linecap="round" stroke-linejoin="round"/>
<path d="M199.253 243.818C200.436 243.818 201.396 242.858 201.396 241.675C201.396 240.491 200.436 239.531 199.253 239.531C198.069 239.531 197.109 240.491 197.109 241.675C197.109 242.858 198.069 243.818 199.253 243.818Z" fill="white" stroke="#263238" stroke-linecap="round" stroke-linejoin="round"/>
<path d="M185.972 297.645C185.972 297.645 185.661 305.385 187.015 308.1C188.37 310.816 190.469 312.597 191.83 309.881C193.191 307.166 191.099 300.157 191.099 299.006C191.086 298.2 191.016 297.397 190.889 296.602L185.972 297.123V297.645Z" fill="white" stroke="#263238" stroke-linecap="round" stroke-linejoin="round"/>
<path d="M180.953 257.404C180.953 257.404 181.367 274.137 182.937 283.658C184.508 293.179 185.971 297.65 185.971 297.65C187.08 297.817 188.208 297.817 189.317 297.65C190.045 297.446 190.704 297.048 191.225 296.499C191.225 296.499 193.133 263.764 193.209 260.94C193.285 258.117 193.107 255.401 192.376 254.58C191.644 253.76 185.38 253.226 183.173 254.479" fill="#263238"/>
<path d="M180.953 257.404C180.953 257.404 181.367 274.137 182.937 283.658C184.508 293.179 185.971 297.65 185.971 297.65C187.08 297.817 188.208 297.817 189.317 297.65C190.045 297.446 190.704 297.048 191.225 296.499C191.225 296.499 193.133 263.764 193.209 260.94C193.285 258.117 193.107 255.401 192.376 254.58C191.644 253.76 185.38 253.226 183.173 254.479" stroke="#263238" stroke-linecap="round" stroke-linejoin="round"/>
<path d="M416.711 80.375H324.504L324.975 144.974H335.049V159.907L348.691 144.974H417.182L416.711 80.375Z" fill="white"/>
<path d="M416.713 80.3792C416.713 80.3792 416.713 80.7608 416.713 81.5176C416.713 82.2745 416.713 83.4256 416.751 84.8884C416.751 87.8586 416.821 92.2215 416.878 97.8183C416.974 109.044 417.114 125.204 417.292 144.965V145.099H417.158L348.725 145.13L348.839 145.079L335.203 160.019L334.917 160.331V144.971L335.082 145.137H324.811V144.971C324.652 121.706 324.499 99.7772 324.359 80.3792V80.2266H324.506L391.235 80.3029L410.054 80.341H415.021H416.293H416.713H414.989H409.99L391.139 80.3792L324.506 80.4555L324.658 80.3029C324.805 99.7009 324.97 121.643 325.142 144.895L324.976 144.736H335.216V159.835L334.93 159.727L348.572 144.863L348.616 144.812H348.725H417.215L417.088 144.946C416.974 125.23 416.878 109.082 416.815 97.8819C416.783 92.2724 416.764 87.8967 416.751 84.9202C416.751 83.432 416.751 82.2999 416.751 81.524C416.751 80.7481 416.713 80.3792 416.713 80.3792Z" fill="#263238"/>
<path d="M416.243 89.49C416.243 89.5663 395.814 89.6363 370.616 89.6363C345.418 89.6363 324.977 89.5663 324.977 89.49C324.977 89.4137 345.405 89.3438 370.616 89.3438C395.827 89.3438 416.243 89.4073 416.243 89.49Z" fill="#263238"/>
<path d="M328.76 87.2024C329.435 87.2024 329.981 86.6045 329.981 85.8669C329.981 85.1292 329.435 84.5312 328.76 84.5312C328.086 84.5312 327.539 85.1292 327.539 85.8669C327.539 86.6045 328.086 87.2024 328.76 87.2024Z" fill="#E0E0E0"/>
<path d="M332.373 87.2024C333.048 87.2024 333.595 86.6045 333.595 85.8669C333.595 85.1292 333.048 84.5312 332.373 84.5312C331.699 84.5312 331.152 85.1292 331.152 85.8669C331.152 86.6045 331.699 87.2024 332.373 87.2024Z" fill="#E0E0E0"/>
<path d="M335.979 87.2024C336.653 87.2024 337.2 86.6045 337.2 85.8669C337.2 85.1292 336.653 84.5312 335.979 84.5312C335.305 84.5312 334.758 85.1292 334.758 85.8669C334.758 86.6045 335.305 87.2024 335.979 87.2024Z" fill="#E0E0E0"/>
<path d="M371.881 125.653C379.064 125.653 384.887 119.83 384.887 112.647C384.887 105.464 379.064 99.6406 371.881 99.6406C364.698 99.6406 358.875 105.464 358.875 112.647C358.875 119.83 364.698 125.653 371.881 125.653Z" fill="#F18805"/>
<path d="M368.747 116.457V108.787C368.746 108.701 368.769 108.617 368.812 108.543C368.854 108.468 368.916 108.407 368.99 108.363C369.064 108.32 369.148 108.297 369.233 108.297C369.319 108.296 369.403 108.318 369.478 108.361L376.334 112.228C376.409 112.27 376.472 112.332 376.516 112.407C376.559 112.482 376.582 112.567 376.582 112.654C376.582 112.74 376.559 112.825 376.516 112.9C376.472 112.975 376.409 113.037 376.334 113.08L369.472 116.896C369.397 116.939 369.311 116.962 369.225 116.961C369.138 116.96 369.053 116.936 368.979 116.891C368.905 116.846 368.844 116.782 368.803 116.706C368.763 116.629 368.743 116.543 368.747 116.457Z" fill="white"/>
<path d="M410.23 136.766H330.609V137.16H410.23V136.766Z" fill="#263238"/>
<path d="M355.427 136.336H330.547V137.392H355.427V136.336Z" fill="#F18805"/>
<path d="M355.021 138.286C355.688 138.286 356.229 137.694 356.229 136.963C356.229 136.233 355.688 135.641 355.021 135.641C354.354 135.641 353.812 136.233 353.812 136.963C353.812 137.694 354.354 138.286 355.021 138.286Z" fill="#F18805"/>
<path d="M416.015 91.9677C420.862 91.9677 424.792 88.0382 424.792 83.1909C424.792 78.3436 420.862 74.4141 416.015 74.4141C411.168 74.4141 407.238 78.3436 407.238 83.1909C407.238 88.0382 411.168 91.9677 416.015 91.9677Z" fill="#F18805"/>
<path d="M419.434 81.0237L418.184 79.7734L412.589 85.368L413.839 86.6182L419.434 81.0237Z" fill="white"/>
<path d="M413.836 79.7576L412.586 81.0078L418.18 86.6023L419.431 85.3521L413.836 79.7576Z" fill="white"/>
<path d="M311.145 171.125V234.286H368.83L381.295 243.928V234.286V231.812V171.125H311.145Z" fill="white"/>
<path d="M311.144 171.124H312.416H316.156L330.396 171.086L381.276 171.016H381.415V171.156C381.415 191.412 381.415 215.3 381.415 240.778V244.296L381.148 244.092L368.727 234.418L368.829 234.45H311.144H311.004V234.31C311.036 215.23 311.055 199.458 311.074 188.41C311.074 182.902 311.074 178.584 311.112 175.639C311.112 174.177 311.112 173.051 311.112 172.288C311.112 171.524 311.112 171.149 311.112 171.149C311.112 171.149 311.112 171.556 311.112 172.319C311.112 173.083 311.112 174.227 311.112 175.697C311.112 178.648 311.112 182.979 311.144 188.493C311.144 199.521 311.188 215.294 311.214 234.285L311.08 234.151H368.765H368.823L368.867 234.183L381.333 243.819L381.066 243.952V240.772C381.066 215.294 381.066 191.406 381.066 171.149L381.212 171.295L330.408 171.219L316.136 171.187H312.365H311.392L311.144 171.124Z" fill="#263238"/>
<path d="M380.906 183.12C380.906 183.222 365.438 183.311 346.371 183.311C327.303 183.311 311.836 183.222 311.836 183.12C311.836 183.019 327.297 182.93 346.371 182.93C365.444 182.93 380.906 183.012 380.906 183.12Z" fill="#263238"/>
<path d="M318.974 178.415C318.974 178.76 318.871 179.098 318.678 179.385C318.485 179.673 318.212 179.896 317.892 180.027C317.572 180.158 317.22 180.191 316.881 180.122C316.543 180.052 316.232 179.884 315.99 179.638C315.747 179.391 315.583 179.079 315.519 178.739C315.454 178.399 315.493 178.048 315.628 177.73C315.764 177.412 315.991 177.142 316.281 176.953C316.571 176.765 316.911 176.667 317.256 176.672C317.714 176.679 318.151 176.865 318.472 177.191C318.794 177.517 318.974 177.957 318.974 178.415Z" fill="#E0E0E0"/>
<path d="M324.11 178.415C324.11 178.759 324.008 179.097 323.816 179.383C323.624 179.67 323.352 179.893 323.033 180.025C322.714 180.157 322.364 180.191 322.025 180.123C321.687 180.055 321.377 179.889 321.133 179.644C320.89 179.4 320.724 179.089 320.658 178.751C320.591 178.412 320.627 178.062 320.759 177.743C320.892 177.425 321.117 177.153 321.404 176.962C321.692 176.772 322.029 176.671 322.374 176.672C322.603 176.672 322.829 176.717 323.04 176.805C323.251 176.892 323.443 177.021 323.604 177.183C323.765 177.345 323.893 177.537 323.98 177.748C324.067 177.96 324.111 178.186 324.11 178.415Z" fill="#E0E0E0"/>
<path d="M329.259 178.415C329.259 178.759 329.157 179.096 328.965 179.383C328.774 179.669 328.501 179.893 328.183 180.025C327.865 180.156 327.514 180.191 327.176 180.124C326.838 180.056 326.528 179.89 326.284 179.647C326.04 179.403 325.874 179.093 325.807 178.754C325.74 178.416 325.774 178.066 325.906 177.748C326.038 177.429 326.261 177.157 326.548 176.966C326.835 176.774 327.171 176.672 327.516 176.672C327.978 176.672 328.422 176.855 328.748 177.182C329.075 177.509 329.259 177.952 329.259 178.415Z" fill="#E0E0E0"/>
<path d="M368.35 206.06C368.451 209.925 367.403 213.732 365.339 217.001C363.275 220.27 360.288 222.853 356.755 224.423C353.223 225.993 349.304 226.48 345.494 225.823C341.685 225.165 338.156 223.391 335.355 220.727C332.553 218.063 330.605 214.628 329.757 210.856C328.909 207.084 329.199 203.146 330.59 199.539C331.981 195.932 334.411 192.819 337.572 190.594C340.733 188.368 344.484 187.131 348.348 187.037C353.523 186.908 358.538 188.839 362.289 192.406C366.04 195.974 368.221 200.885 368.35 206.06Z" fill="#F18805"/>
<path d="M363.684 206.178C363.761 209.124 362.962 212.026 361.39 214.518C359.817 217.01 357.54 218.979 354.848 220.177C352.156 221.374 349.169 221.747 346.265 221.247C343.361 220.746 340.671 219.396 338.535 217.367C336.398 215.337 334.912 212.72 334.264 209.845C333.615 206.971 333.834 203.969 334.892 201.218C335.95 198.468 337.8 196.094 340.208 194.396C342.616 192.697 345.474 191.751 348.42 191.677C350.375 191.625 352.321 191.958 354.146 192.659C355.972 193.36 357.642 194.414 359.06 195.761C360.478 197.108 361.616 198.721 362.409 200.509C363.203 202.296 363.636 204.223 363.684 206.178Z" fill="#F18805"/>
<g opacity="0.3">
<path d="M363.685 205.703C363.476 205.126 363.329 204.53 363.247 203.922C362.874 202.33 362.258 200.805 361.421 199.4C360.844 198.443 360.162 197.553 359.386 196.748C358.498 195.824 357.493 195.02 356.397 194.357C355.809 193.996 355.195 193.682 354.559 193.415C353.898 193.127 353.216 192.893 352.517 192.716C351.799 192.526 351.068 192.392 350.329 192.315C349.566 192.244 348.799 192.227 348.033 192.264C347.266 192.311 346.503 192.413 345.75 192.569C344.316 192.878 342.937 193.404 341.661 194.128C341.06 194.466 340.484 194.846 339.937 195.266C338.923 196.049 338.015 196.96 337.234 197.975C336.555 198.864 335.975 199.823 335.504 200.837C334.824 202.326 334.38 203.912 334.188 205.538C334.172 206.148 334.094 206.756 333.952 207.35C333.756 206.756 333.686 206.128 333.749 205.506C333.772 203.795 334.115 202.104 334.76 200.519C335.207 199.419 335.781 198.376 336.471 197.409C337.274 196.3 338.221 195.304 339.288 194.446C339.864 193.974 340.477 193.549 341.12 193.174C341.788 192.78 342.485 192.44 343.206 192.156C343.954 191.861 344.724 191.625 345.508 191.45C346.319 191.276 347.142 191.163 347.97 191.113C348.795 191.074 349.622 191.095 350.444 191.177C351.243 191.262 352.034 191.411 352.81 191.622C353.559 191.837 354.291 192.112 354.998 192.442C355.678 192.738 356.333 193.089 356.956 193.492C359.128 194.865 360.91 196.772 362.133 199.031C362.942 200.527 363.468 202.159 363.685 203.846C363.818 204.458 363.818 205.091 363.685 205.703Z" fill="black"/>
</g>
<g opacity="0.3">
<path d="M350.716 215.374L350.811 217.962L348.496 218.051L348.4 215.507C346.342 215.521 344.32 214.955 342.568 213.873L343.732 211.004C345.098 211.879 346.667 212.386 348.286 212.473L348.14 208.607C345.545 208.085 342.638 207.335 342.511 204.027C342.422 201.572 344.12 199.397 347.758 198.844L347.663 196.3L349.978 196.211L350.073 198.755C351.732 198.785 353.36 199.208 354.824 199.989L353.781 202.883C352.668 202.291 351.449 201.928 350.194 201.814L350.34 205.745C352.935 206.247 355.791 207.017 355.918 210.26C356.007 212.645 354.328 214.795 350.716 215.374ZM348.006 205.198L347.879 201.916C346.664 202.24 346.206 202.927 346.232 203.69C346.257 204.453 346.976 204.95 348.006 205.229V205.198ZM352.204 210.623C352.172 209.815 351.485 209.402 350.474 209.09L350.595 212.27C351.746 212.016 352.236 211.399 352.236 210.654L352.204 210.623Z" fill="black"/>
</g>
<path d="M363.977 205.89C363.977 205.89 363.977 205.808 363.977 205.642C363.977 205.477 363.939 205.229 363.907 204.924L363.856 204.396C363.856 204.205 363.786 203.995 363.742 203.76C363.662 203.234 363.543 202.716 363.386 202.208C362.994 200.805 362.391 199.469 361.599 198.246C360.451 196.449 358.937 194.915 357.156 193.744C355.376 192.572 353.368 191.79 351.264 191.447C348.613 191.027 345.898 191.319 343.396 192.293C342.719 192.552 342.06 192.858 341.425 193.209C340.794 193.572 340.191 193.98 339.618 194.43C339.028 194.886 338.47 195.381 337.946 195.912C337.433 196.473 336.955 197.066 336.515 197.686C335.612 198.96 334.921 200.371 334.467 201.865C333.506 204.957 333.587 208.279 334.696 211.322C335.222 212.792 335.98 214.168 336.941 215.399C337.408 215.997 337.914 216.564 338.455 217.097C339.004 217.601 339.584 218.07 340.191 218.502C341.366 219.345 342.664 220.002 344.039 220.448C346.584 221.3 349.309 221.463 351.938 220.919C354.226 220.441 356.369 219.432 358.196 217.974C359.708 216.778 360.977 215.303 361.936 213.631C362.666 212.38 363.204 211.028 363.532 209.617C363.664 209.101 363.758 208.576 363.812 208.046C363.844 207.817 363.882 207.608 363.901 207.41C363.92 207.213 363.901 207.035 363.901 206.876C363.901 206.577 363.901 206.336 363.939 206.158C363.935 206.077 363.935 205.996 363.939 205.916C363.949 205.996 363.949 206.077 363.939 206.158V206.883C363.939 207.042 363.939 207.22 363.939 207.417C363.939 207.614 363.895 207.824 363.869 208.053C363.847 208.578 363.785 209.101 363.685 209.617C363.379 211.059 362.853 212.444 362.127 213.726C360.387 216.823 357.621 219.215 354.307 220.492C350.993 221.769 347.337 221.851 343.969 220.722C343.277 220.493 342.602 220.219 341.946 219.901C341.283 219.563 340.645 219.176 340.038 218.744C339.414 218.309 338.819 217.833 338.257 217.319C337.704 216.775 337.188 216.195 336.712 215.583C335.723 214.329 334.945 212.922 334.41 211.417C333.276 208.307 333.195 204.91 334.181 201.75C334.643 200.223 335.352 198.781 336.279 197.482C336.726 196.849 337.215 196.245 337.742 195.676C338.278 195.138 338.847 194.635 339.447 194.169C340.034 193.703 340.653 193.279 341.298 192.897C341.935 192.546 342.596 192.24 343.275 191.981C345.822 191.009 348.581 190.731 351.27 191.173C353.41 191.53 355.449 192.338 357.252 193.544C359.055 194.75 360.58 196.327 361.726 198.169C362.513 199.414 363.105 200.772 363.481 202.195C363.628 202.711 363.739 203.235 363.812 203.766C363.844 203.995 363.888 204.205 363.907 204.402C363.926 204.599 363.907 204.771 363.907 204.93C363.907 205.235 363.92 205.477 363.945 205.655C363.963 205.732 363.974 205.811 363.977 205.89Z" fill="#263238"/>
<path d="M387.606 177.826C391.307 174.125 391.307 168.125 387.606 164.424C383.906 160.723 377.905 160.723 374.205 164.424C370.504 168.125 370.504 174.125 374.205 177.826C377.905 181.527 383.906 181.527 387.606 177.826Z" fill="#F18805"/>
<path d="M384.599 168.787L383.25 167.438L377.21 173.477L378.559 174.826L384.599 168.787Z" fill="white"/>
<path d="M378.556 167.432L377.207 168.781L383.247 174.821L384.596 173.472L378.556 167.432Z" fill="white"/>
<path d="M227.404 69.2854C226.091 71.9358 224.021 74.1368 221.456 75.6099C218.891 77.0829 215.946 77.7618 212.995 77.5605C210.044 77.3592 207.219 76.2867 204.878 74.4789C202.537 72.6712 200.785 70.2093 199.843 67.4052C198.902 64.601 198.814 61.5806 199.59 58.7264C200.367 55.8722 201.972 53.3125 204.204 51.3714C206.436 49.4304 209.194 48.1952 212.128 47.8224C215.063 47.4495 218.042 47.9557 220.688 49.2769C224.231 51.0401 226.93 54.1385 228.189 57.8906C229.448 61.6427 229.166 65.7414 227.404 69.2854Z" fill="#F5F5F5"/>
<path d="M224.226 67.6992C223.22 69.7165 221.639 71.3901 219.681 72.5081C217.724 73.6262 215.479 74.1384 213.231 73.9799C210.982 73.8215 208.831 72.9995 207.05 71.6181C205.269 70.2366 203.938 68.3578 203.225 66.2194C202.512 64.081 202.45 61.7793 203.046 59.6054C203.642 57.4316 204.87 55.4835 206.573 54.0077C208.277 52.5318 210.38 51.5947 212.617 51.3147C214.853 51.0348 217.123 51.4248 219.138 52.4352C221.836 53.7848 223.888 56.1511 224.843 59.0136C225.797 61.8761 225.575 65.0003 224.226 67.6992Z" fill="#EBEBEB"/>
<path d="M212.152 69.2644L211.287 71.0833L209.697 70.3137L210.53 68.5711C209.134 67.8472 207.971 66.7452 207.172 65.3911L208.984 63.8647C209.592 64.9433 210.468 65.8461 211.528 66.485L212.8 63.8202C211.236 62.5482 209.538 60.9963 210.638 58.7322C211.452 57.0404 213.379 56.1882 216.038 57.104L216.896 55.3359L218.493 56.0991L217.685 57.7909C218.797 58.4084 219.747 59.2801 220.458 60.3349L218.715 61.9185C218.174 61.1182 217.478 60.4348 216.667 59.9088L215.364 62.6245C216.934 63.8965 218.601 65.4165 217.52 67.668C216.706 69.3152 214.804 70.1675 212.152 69.2644ZM213.945 61.4415L215.039 59.1774C214.098 58.9611 213.545 59.2664 213.29 59.8134C213.036 60.3603 213.354 60.9073 213.945 61.4415ZM214.842 66.6122C215.109 66.0525 214.798 65.5247 214.206 64.9586L213.144 67.1592C214.047 67.3691 214.594 67.121 214.842 66.6313V66.6122Z" fill="#F18805"/>
</svg>
